<svg width="197" height="75" viewBox="0 0 197 75" fill="none" xmlns="http://www.w3.org/2000/svg">
<g clip-path="url(#clip0_60_86098)">
<path d="M190.188 0.100159H6.8038C3.1017 0.100159 0.100555 3.08958 0.100555 6.77721V68.2144C0.100555 71.9021 3.1017 74.8915 6.8038 74.8915H190.188C193.89 74.8915 196.891 71.9021 196.891 68.2144V6.77721C196.891 3.08958 193.89 0.100159 190.188 0.100159Z" fill="white" stroke="#939598" stroke-width="0.25"/>
<path d="M20.6711 36.8657C20.6711 36.9742 20.6376 37.0576 20.5622 37.1077C20.4952 37.1578 20.4198 37.1828 20.336 37.1828C20.2522 37.1828 20.1768 37.1578 20.1097 37.1077C20.0427 37.0576 20.0008 36.9742 20.0008 36.8657V32.6091L18.8445 35.2465C18.811 35.33 18.7607 35.3884 18.6937 35.4218C18.6266 35.4551 18.5512 35.4718 18.4758 35.4718C18.2915 35.4718 18.1658 35.3967 18.0988 35.2465L16.9089 32.6091V36.8657C16.9089 36.9742 16.8754 37.0576 16.8084 37.1077C16.7414 37.1578 16.6659 37.1828 16.5822 37.1828C16.4984 37.1828 16.423 37.1578 16.3559 37.1077C16.2889 37.0576 16.2554 36.9742 16.2554 36.8657V31.4573C16.2554 31.3404 16.2805 31.2486 16.3392 31.1818C16.3978 31.1151 16.4984 31.0817 16.6492 31.0817H16.6743C16.7916 31.0817 16.8754 31.1067 16.9341 31.1568C16.9927 31.2069 17.0346 31.2653 17.0681 31.3321L18.4674 34.4536L19.8584 31.3321C19.8835 31.2653 19.9338 31.2069 19.9924 31.1568C20.0511 31.1067 20.1433 31.0817 20.2606 31.0817H20.2857C20.4365 31.0817 20.5371 31.1151 20.5957 31.1818C20.646 31.2486 20.6711 31.3488 20.6711 31.4573V36.8657Z" fill="#58595B"/>
<path d="M22.8664 31.5909C22.8664 31.6994 22.8329 31.7829 22.7575 31.8413C22.6905 31.8997 22.6151 31.9248 22.5313 31.9248C22.4475 31.9248 22.3721 31.8997 22.305 31.8413C22.238 31.7829 22.1961 31.6994 22.1961 31.5909V31.3989C22.1961 31.2904 22.2296 31.207 22.305 31.1486C22.3721 31.0901 22.4475 31.0651 22.5313 31.0651C22.6151 31.0651 22.6905 31.0901 22.7575 31.1486C22.8246 31.207 22.8664 31.2904 22.8664 31.3989V31.5909ZM22.8664 36.8658C22.8664 36.9743 22.8329 37.0577 22.7575 37.1078C22.6905 37.1579 22.6151 37.1829 22.5313 37.1829C22.4475 37.1829 22.3721 37.1579 22.305 37.1078C22.238 37.0577 22.1961 36.9743 22.1961 36.8658V33.2268C22.1961 33.1183 22.2296 33.0348 22.305 32.9764C22.3721 32.918 22.4475 32.8929 22.5313 32.8929C22.6151 32.8929 22.6905 32.918 22.7575 32.9764C22.8246 33.0348 22.8664 33.1183 22.8664 33.2268V36.8658Z" fill="#58595B"/>
<path d="M26.0756 36.8657C26.0756 36.9491 26.0505 37.0243 26.0002 37.091C25.9499 37.1578 25.8662 37.1912 25.7488 37.1912C25.5896 37.1912 25.4388 37.1661 25.3048 37.1077C25.1623 37.0493 25.045 36.9658 24.9361 36.8657C24.8272 36.7655 24.7517 36.6403 24.6931 36.4984C24.6344 36.3566 24.6093 36.2147 24.6093 36.0561V33.5939H24.2993C24.1903 33.5939 24.1066 33.5605 24.0479 33.4938C23.9892 33.427 23.9641 33.3519 23.9641 33.2684C23.9641 33.185 23.9892 33.1098 24.0479 33.0431C24.1066 32.9763 24.1903 32.9429 24.2993 32.9429H24.6093V31.4239C24.6093 31.3154 24.6428 31.2319 24.7098 31.1735C24.7769 31.1151 24.8523 31.09 24.9361 31.09C25.0199 31.09 25.0953 31.1151 25.1623 31.1735C25.2293 31.2319 25.2629 31.3154 25.2629 31.4239V32.9429H25.7321C25.841 32.9429 25.9248 32.9763 25.9835 33.0431C26.0421 33.1098 26.0673 33.185 26.0673 33.2684C26.0673 33.3519 26.0421 33.427 25.9835 33.4938C25.9248 33.5605 25.841 33.5939 25.7321 33.5939H25.2629V36.0477C25.2629 36.198 25.3131 36.3148 25.4137 36.3983C25.5142 36.4817 25.6315 36.5318 25.7656 36.5402C25.8745 36.5485 25.9499 36.5902 26.0002 36.657C26.0505 36.7238 26.0756 36.7906 26.0756 36.874V36.8657Z" fill="#58595B"/>
<path d="M27.8352 31.5909C27.8352 31.6994 27.8017 31.7829 27.7263 31.8413C27.6593 31.8997 27.5839 31.9248 27.5001 31.9248C27.4163 31.9248 27.3409 31.8997 27.2738 31.8413C27.2068 31.7829 27.1649 31.6994 27.1649 31.5909V31.3989C27.1649 31.2904 27.1984 31.207 27.2738 31.1486C27.3409 31.0901 27.4163 31.0651 27.5001 31.0651C27.5839 31.0651 27.6593 31.0901 27.7263 31.1486C27.7933 31.207 27.8352 31.2904 27.8352 31.3989V31.5909ZM27.8352 36.8658C27.8352 36.9743 27.8017 37.0577 27.7263 37.1078C27.6593 37.1579 27.5839 37.1829 27.5001 37.1829C27.4163 37.1829 27.3409 37.1579 27.2738 37.1078C27.2068 37.0577 27.1649 36.9743 27.1649 36.8658V33.2268C27.1649 33.1183 27.1984 33.0348 27.2738 32.9764C27.3409 32.918 27.4163 32.8929 27.5001 32.8929C27.5839 32.8929 27.6593 32.918 27.7263 32.9764C27.7933 33.0348 27.8352 33.1183 27.8352 33.2268V36.8658Z" fill="#58595B"/>
<path d="M32.0834 37.6085C32.0834 37.8088 32.0499 37.9924 31.9745 38.1594C31.8991 38.3263 31.7985 38.4765 31.6728 38.6101C31.5471 38.7353 31.3963 38.8354 31.2204 38.9105C31.0444 38.9856 30.8684 39.019 30.6757 39.019H30.6003C30.4495 39.019 30.2987 39.0023 30.1395 38.9606C29.9803 38.9189 29.8378 38.8605 29.7038 38.7853C29.5697 38.7102 29.4524 38.6101 29.3435 38.4932C29.2345 38.3764 29.1591 38.2345 29.1172 38.0676C29.1088 38.0091 29.1005 37.9757 29.1005 37.9507C29.1005 37.8505 29.134 37.7754 29.201 37.717C29.268 37.6586 29.3518 37.6335 29.4356 37.6335C29.5781 37.6335 29.687 37.7087 29.7457 37.8589C29.7959 38.0008 29.8965 38.126 30.0473 38.2178C30.1981 38.3096 30.3825 38.3597 30.5919 38.3597H30.6673C30.8684 38.3597 31.0444 38.2846 31.1952 38.1427C31.3377 38.0008 31.4131 37.8172 31.4131 37.6085V36.9408C31.3377 37.0243 31.2287 37.0827 31.0863 37.1244C30.9439 37.1661 30.8014 37.1912 30.6506 37.1912H30.5919C30.3992 37.1912 30.2149 37.1578 30.0473 37.0827C29.8797 37.0076 29.7289 36.9074 29.5948 36.7822C29.4691 36.657 29.3602 36.5068 29.2848 36.3399C29.2094 36.1729 29.1675 35.9893 29.1675 35.789V34.295C29.1675 34.1031 29.201 33.9194 29.2848 33.7525C29.3602 33.5772 29.4608 33.4353 29.5948 33.3018C29.7205 33.1766 29.8713 33.0765 30.0473 33.0013C30.2233 32.9262 30.3992 32.8928 30.5919 32.8928H30.6673C30.8517 32.8928 31.0109 32.9179 31.1366 32.9763C31.2623 33.0347 31.3544 33.0931 31.4215 33.1516C31.4298 33.0681 31.4717 33.0013 31.5388 32.9513C31.6058 32.9095 31.6728 32.8845 31.7482 32.8845C31.832 32.8845 31.9074 32.9095 31.9745 32.9596C32.0415 33.0097 32.075 33.0931 32.075 33.2016V37.5918L32.0834 37.6085ZM31.4215 34.2449C31.4215 34.0279 31.3461 33.861 31.1952 33.7358C31.0444 33.6106 30.8768 33.5522 30.6757 33.5522H30.6003C30.3992 33.5522 30.2233 33.6273 30.0724 33.7692C29.9216 33.9111 29.8462 34.0864 29.8462 34.295V35.789C29.8462 35.9977 29.9216 36.1729 30.0724 36.3148C30.2233 36.4567 30.3992 36.5318 30.6003 36.5318H30.6757C30.8768 36.5318 31.0444 36.4734 31.1952 36.3482C31.3461 36.223 31.4215 36.0644 31.4215 35.8641V34.2449Z" fill="#58595B"/>
<path d="M36.5913 36.8573C36.5913 36.9408 36.5662 37.0243 36.5075 37.091C36.4489 37.1578 36.3735 37.1912 36.2646 37.1912C36.231 37.1912 36.2059 37.1912 36.2059 37.1912C36.0551 37.1662 35.9294 37.1244 35.8372 37.066C35.7451 37.0076 35.6696 36.9408 35.611 36.8573C35.3512 37.0827 35.0328 37.1995 34.6642 37.1995H34.5887C34.4128 37.1995 34.2452 37.1745 34.0692 37.1244C33.8933 37.0743 33.7508 36.9909 33.6168 36.8907C33.4827 36.7822 33.3822 36.657 33.2984 36.4984C33.2146 36.3399 33.1727 36.1646 33.1727 35.9559V35.8558C33.1727 35.6304 33.223 35.4385 33.3235 35.2966C33.4241 35.1463 33.5497 35.0295 33.7006 34.9377C33.8514 34.8459 34.019 34.7791 34.1949 34.729C34.3709 34.6789 34.5468 34.6456 34.7144 34.6122C34.8736 34.5788 35.0245 34.5538 35.1501 34.5287C35.2758 34.5037 35.3596 34.4703 35.3931 34.4202C35.4015 34.4035 35.4099 34.3785 35.4183 34.3534C35.4183 34.3284 35.4183 34.295 35.4183 34.2783C35.4183 34.0196 35.3512 33.836 35.2088 33.7275C35.0664 33.619 34.8988 33.5689 34.706 33.5689H34.6474C34.4631 33.5689 34.3206 33.6023 34.2201 33.6774C34.1111 33.7525 34.019 33.861 33.9436 34.0029C33.91 34.0697 33.8681 34.1114 33.8095 34.1364C33.7508 34.1615 33.7006 34.1782 33.6419 34.1782C33.5581 34.1782 33.4827 34.1531 33.4157 34.0947C33.3486 34.0363 33.3151 33.9612 33.3151 33.8694C33.3151 33.8026 33.3235 33.7525 33.3486 33.7108C33.4157 33.5522 33.5078 33.427 33.6084 33.3185C33.7089 33.21 33.8179 33.1349 33.9352 33.0681C34.0525 33.0097 34.1698 32.968 34.2955 32.9346C34.4212 32.9095 34.5385 32.8928 34.6558 32.8928H34.7144C34.9071 32.8928 35.0915 32.9262 35.2591 32.993C35.4267 33.0598 35.5775 33.1599 35.6948 33.2768C35.8205 33.402 35.9126 33.5439 35.9797 33.7024C36.0467 33.861 36.0802 34.0363 36.0802 34.2282V36.2481C36.0802 36.4066 36.1556 36.5068 36.3065 36.5318C36.407 36.5485 36.474 36.5903 36.5243 36.6487C36.5662 36.7071 36.5913 36.7739 36.5913 36.8406V36.8573ZM35.4183 35.1046C35.2507 35.1463 35.0831 35.1797 34.8988 35.2048C34.7144 35.2298 34.5468 35.2632 34.3876 35.3133C34.2284 35.3633 34.1028 35.4218 34.0022 35.5136C33.9017 35.6054 33.8514 35.7139 33.8514 35.8558V35.9226C33.8514 36.1062 33.9184 36.2564 34.0609 36.3649C34.1949 36.4734 34.3793 36.5318 34.5971 36.5318H34.6725C34.8736 36.5318 35.0496 36.4651 35.2004 36.3148C35.3512 36.1729 35.4266 35.9977 35.4266 35.789V35.1046H35.4183Z" fill="#58595B"/>
<path d="M39.3648 36.8657C39.3648 36.9491 39.3397 37.0243 39.2894 37.091C39.2391 37.1578 39.1553 37.1912 39.038 37.1912C38.8788 37.1912 38.728 37.1661 38.5939 37.1077C38.4515 37.0493 38.3342 36.9658 38.2253 36.8657C38.1163 36.7655 38.0409 36.6403 37.9823 36.4984C37.9236 36.3566 37.8985 36.2147 37.8985 36.0561V33.5939H37.5884C37.4795 33.5939 37.3957 33.5605 37.3371 33.4938C37.2784 33.427 37.2533 33.3519 37.2533 33.2684C37.2533 33.185 37.2784 33.1098 37.3371 33.0431C37.3957 32.9763 37.4795 32.9429 37.5884 32.9429H37.8985V31.4239C37.8985 31.3154 37.932 31.2319 37.999 31.1735C38.066 31.1151 38.1415 31.09 38.2253 31.09C38.309 31.09 38.3845 31.1151 38.4515 31.1735C38.5185 31.2319 38.552 31.3154 38.552 31.4239V32.9429H39.0213C39.1302 32.9429 39.214 32.9763 39.2726 33.0431C39.3313 33.1098 39.3564 33.185 39.3564 33.2684C39.3564 33.3519 39.3313 33.427 39.2726 33.4938C39.214 33.5605 39.1302 33.5939 39.0213 33.5939H38.552V36.0477C38.552 36.198 38.6023 36.3148 38.7029 36.3983C38.8034 36.4817 38.9207 36.5318 39.0548 36.5402C39.1637 36.5485 39.2391 36.5902 39.2894 36.657C39.3397 36.7238 39.3648 36.7906 39.3648 36.874V36.8657Z" fill="#58595B"/>
<path d="M41.116 31.5909C41.116 31.6994 41.0825 31.7829 41.0071 31.8413C40.9401 31.8997 40.8647 31.9248 40.7809 31.9248C40.6971 31.9248 40.6217 31.8997 40.5546 31.8413C40.4876 31.7829 40.4457 31.6994 40.4457 31.5909V31.3989C40.4457 31.2904 40.4792 31.207 40.5546 31.1486C40.6217 31.0901 40.6971 31.0651 40.7809 31.0651C40.8647 31.0651 40.9401 31.0901 41.0071 31.1486C41.0741 31.207 41.116 31.2904 41.116 31.3989V31.5909ZM41.116 36.8658C41.116 36.9743 41.0825 37.0577 41.0071 37.1078C40.9401 37.1579 40.8647 37.1829 40.7809 37.1829C40.6971 37.1829 40.6217 37.1579 40.5546 37.1078C40.4876 37.0577 40.4457 36.9743 40.4457 36.8658V33.2268C40.4457 33.1183 40.4792 33.0348 40.5546 32.9764C40.6217 32.918 40.6971 32.8929 40.7809 32.8929C40.8647 32.8929 40.9401 32.918 41.0071 32.9764C41.0741 33.0348 41.116 33.1183 41.116 33.2268V36.8658Z" fill="#58595B"/>
<path d="M45.3223 35.789C45.3223 35.9893 45.2888 36.1729 45.2134 36.3399C45.138 36.5068 45.0374 36.657 44.9117 36.7822C44.7861 36.9074 44.6352 37.0076 44.4593 37.0827C44.2833 37.1578 44.1074 37.1912 43.9146 37.1912H43.8309C43.6381 37.1912 43.4538 37.1578 43.2862 37.0827C43.1186 37.0076 42.9678 36.9074 42.8337 36.7822C42.7081 36.657 42.6075 36.5068 42.5321 36.3399C42.4567 36.1729 42.4232 35.9893 42.4232 35.789V34.295C42.4232 34.1031 42.4567 33.9194 42.5321 33.7525C42.6075 33.5856 42.7081 33.4353 42.8337 33.3018C42.9594 33.1683 43.1103 33.0765 43.2862 33.0013C43.4622 32.9262 43.6381 32.8928 43.8309 32.8928H43.9146C44.1074 32.8928 44.2917 32.9262 44.4593 33.0013C44.6352 33.0765 44.7777 33.1766 44.9117 33.3018C45.0374 33.427 45.138 33.5772 45.2134 33.7525C45.2888 33.9278 45.3223 34.1031 45.3223 34.295V35.789ZM44.6604 34.295C44.6604 34.0947 44.585 33.9194 44.4425 33.7692C44.3001 33.6273 44.1241 33.5522 43.9146 33.5522H43.8309C43.6298 33.5522 43.4538 33.6273 43.303 33.7692C43.1605 33.9111 43.0851 34.0864 43.0851 34.295V35.789C43.0851 35.9893 43.1605 36.1646 43.303 36.3148C43.4454 36.4651 43.6298 36.5318 43.8392 36.5318H43.9146C44.1157 36.5318 44.2917 36.4567 44.4425 36.3148C44.5933 36.1729 44.6604 35.9977 44.6604 35.789V34.295Z" fill="#58595B"/>
<path d="M49.4448 36.8657C49.4448 36.9742 49.4113 37.0576 49.3443 37.1077C49.2772 37.1578 49.2018 37.1828 49.118 37.1828C49.0342 37.1828 48.9588 37.1578 48.8918 37.1077C48.8248 37.0576 48.7913 36.9742 48.7913 36.8657V34.295C48.7913 34.0947 48.7158 33.9194 48.5734 33.7692C48.431 33.6273 48.2466 33.5522 48.0371 33.5522H47.9617C47.7606 33.5522 47.5847 33.6273 47.4338 33.7692C47.283 33.9111 47.2076 34.0863 47.2076 34.295V36.8657C47.2076 36.9742 47.1741 37.0576 47.1071 37.1077C47.04 37.1578 46.9646 37.1828 46.8808 37.1828C46.797 37.1828 46.7216 37.1578 46.6546 37.1077C46.5876 37.0576 46.554 36.9742 46.554 36.8657V33.2267C46.554 33.1265 46.5876 33.0431 46.6546 32.9846C46.7216 32.9262 46.8054 32.9012 46.8892 32.9012C46.9646 32.9012 47.0317 32.9262 47.0987 32.9679C47.1657 33.0097 47.2076 33.0764 47.2244 33.1683C47.3082 33.0848 47.4171 33.0264 47.5512 32.9763C47.6852 32.9262 47.8277 32.9095 47.9785 32.9095H48.0539C48.2382 32.9095 48.4226 32.9346 48.5902 32.993C48.7577 33.0514 48.9086 33.1349 49.0342 33.2517C49.1599 33.3686 49.2605 33.5105 49.3443 33.6941C49.4197 33.8693 49.4616 34.078 49.4616 34.32V36.8907L49.4448 36.8657Z" fill="#58595B"/>
<path d="M56.4916 35.789C56.4916 35.9893 56.4581 36.1729 56.3827 36.3399C56.3073 36.5068 56.2067 36.657 56.081 36.7822C55.9553 36.9074 55.8045 37.0076 55.6285 37.0827C55.4526 37.1578 55.2766 37.1912 55.0839 37.1912H55.0001C54.8074 37.1912 54.6231 37.1578 54.4555 37.0827C54.2795 37.0076 54.1371 36.9074 54.003 36.7822C53.8773 36.657 53.7768 36.5068 53.7014 36.3399C53.626 36.1729 53.5924 35.9893 53.5924 35.789V34.295C53.5924 34.1031 53.626 33.9194 53.7014 33.7525C53.7768 33.5856 53.8773 33.4353 54.003 33.3018C54.1287 33.1766 54.2795 33.0765 54.4555 33.0013C54.6314 32.9262 54.8074 32.8928 55.0001 32.8928H55.0839C55.2766 32.8928 55.461 32.9262 55.6285 33.0013C55.8045 33.0765 55.947 33.1766 56.081 33.3018C56.2067 33.427 56.3073 33.5772 56.3827 33.7525C56.4581 33.9278 56.4916 34.1031 56.4916 34.295V35.789ZM55.8296 34.295C55.8296 34.0947 55.7542 33.9194 55.6118 33.7692C55.4693 33.6273 55.2934 33.5522 55.0839 33.5522H55.0001C54.799 33.5522 54.6231 33.6273 54.4722 33.7692C54.3298 33.9111 54.2544 34.0864 54.2544 34.295V35.789C54.2544 35.9893 54.3298 36.1646 54.4722 36.3148C54.6147 36.4651 54.799 36.5318 55.0085 36.5318H55.0839C55.285 36.5318 55.461 36.4567 55.6118 36.3148C55.7626 36.1729 55.8296 35.9977 55.8296 35.789V34.295Z" fill="#58595B"/>
<path d="M59.4326 31.3988C59.4326 31.4823 59.4075 31.5574 59.3489 31.6242C59.2902 31.691 59.2064 31.7243 59.0975 31.7243C58.955 31.7243 58.8461 31.7744 58.7623 31.8662C58.6785 31.958 58.6366 32.0749 58.6366 32.2084V32.9012H59.0472C59.1645 32.9012 59.2483 32.9346 59.2986 33.0013C59.3489 33.0681 59.374 33.1432 59.374 33.2267C59.374 33.3101 59.3489 33.3853 59.2902 33.452C59.2316 33.5188 59.1478 33.5522 59.0388 33.5522H58.6283V36.8406C58.6283 36.9491 58.5947 37.0326 58.5277 37.0827C58.4607 37.1328 58.3853 37.1578 58.3015 37.1578C58.2177 37.1578 58.1423 37.1328 58.0752 37.0827C58.0082 37.0326 57.9747 36.9491 57.9747 36.8406V33.5522H57.782C57.673 33.5522 57.5893 33.5188 57.5306 33.452C57.472 33.3853 57.4468 33.3101 57.4468 33.2267C57.4468 33.1432 57.472 33.0681 57.5306 33.0013C57.5893 32.9346 57.673 32.9012 57.782 32.9012H57.9747V32.2084C57.9747 32.0415 57.9998 31.8913 58.0585 31.7494C58.1171 31.6075 58.1925 31.4823 58.2931 31.3821C58.3936 31.282 58.511 31.1985 58.6534 31.1401C58.7875 31.0817 58.9383 31.0566 59.1059 31.0566C59.2148 31.0566 59.2986 31.09 59.3572 31.1568C59.4159 31.2236 59.441 31.2987 59.441 31.3821L59.4326 31.3988Z" fill="#58595B"/>
<path d="M66.8565 36.8659C66.8565 36.9828 66.823 37.0662 66.7476 37.1163C66.6805 37.1664 66.6051 37.1914 66.5213 37.1914C66.4375 37.1914 66.3621 37.1664 66.2951 37.1163C66.2281 37.0662 66.1862 36.9828 66.1862 36.8659V34.362H64.1165V36.8659C64.1165 36.9744 64.083 37.0579 64.016 37.1079C63.949 37.158 63.8736 37.1831 63.7898 37.1831C63.706 37.1831 63.6306 37.158 63.5635 37.1079C63.4965 37.0579 63.463 36.9744 63.463 36.8659V31.4074C63.463 31.2989 63.4965 31.2155 63.5635 31.157C63.6306 31.0986 63.706 31.0736 63.7898 31.0736C63.8736 31.0736 63.949 31.0986 64.016 31.157C64.083 31.2155 64.1165 31.2989 64.1165 31.4074V33.711H66.1862V31.4074C66.1862 31.2989 66.2197 31.2155 66.2951 31.157C66.3621 31.0986 66.4375 31.0736 66.5213 31.0736C66.6051 31.0736 66.6805 31.0986 66.7476 31.157C66.8146 31.2155 66.8565 31.2989 66.8565 31.4074V36.8659Z" fill="#58595B"/>
<path d="M71.1298 36.8657C71.1298 36.9658 71.0963 37.0493 71.0293 37.1077C70.9622 37.1662 70.8868 37.1912 70.803 37.1912C70.7276 37.1912 70.6606 37.1745 70.5936 37.1328C70.5265 37.091 70.493 37.0243 70.4679 36.9408C70.3841 37.0243 70.2752 37.0827 70.1411 37.1244C70.007 37.1662 69.8646 37.1912 69.7138 37.1912H69.6384C69.454 37.1912 69.2697 37.1662 69.1021 37.1077C68.9261 37.0493 68.7837 36.9658 68.6496 36.8573C68.5156 36.7488 68.4234 36.5986 68.3396 36.4233C68.2558 36.2481 68.2223 36.0394 68.2223 35.7974V33.2267C68.2223 33.1182 68.2558 33.0347 68.3228 32.9763C68.3899 32.9179 68.4653 32.8928 68.5491 32.8928C68.6329 32.8928 68.7083 32.9179 68.7753 32.9763C68.8423 33.0347 68.8842 33.1182 68.8842 33.2267V35.7974C68.8842 35.9977 68.9596 36.1729 69.1021 36.3232C69.2445 36.4734 69.4205 36.5402 69.63 36.5402H69.7054C69.9149 36.5402 70.0908 36.4651 70.2416 36.3232C70.3925 36.1813 70.4595 36.006 70.4595 35.7974V33.2267C70.4595 33.1182 70.493 33.0347 70.56 32.9763C70.6271 32.9179 70.7025 32.8928 70.7863 32.8928C70.8701 32.8928 70.9455 32.9179 71.0125 32.9763C71.0795 33.0347 71.1131 33.1182 71.1131 33.2267V36.8657H71.1298Z" fill="#58595B"/>
<path d="M77.5566 36.8657C77.5566 36.9742 77.523 37.0576 77.456 37.1077C77.389 37.1578 77.3136 37.1828 77.2298 37.1828C77.146 37.1828 77.0706 37.1578 77.0035 37.1077C76.9365 37.0576 76.903 36.9742 76.903 36.8657V34.2867C76.903 34.0446 76.836 33.861 76.6935 33.7358C76.5594 33.6106 76.3751 33.5522 76.1573 33.5522H76.0818C75.8724 33.5522 75.6964 33.6273 75.5456 33.7692C75.4031 33.9111 75.3277 34.0864 75.3277 34.3034V36.849C75.3277 36.9658 75.2942 37.0493 75.2272 37.1077C75.1601 37.1662 75.0847 37.1912 75.0009 37.1912C74.9172 37.1912 74.8417 37.1662 74.7747 37.1077C74.7077 37.0493 74.6658 36.9658 74.6658 36.849V34.3034C74.6658 34.0864 74.5904 33.9027 74.4479 33.7609C74.3055 33.619 74.1211 33.5522 73.9117 33.5522H73.8363C73.6352 33.5522 73.4592 33.6106 73.3084 33.7358C73.1576 33.861 73.0821 34.0196 73.0821 34.2199V36.8573C73.0821 36.9658 73.0486 37.0493 72.9816 37.0994C72.9146 37.1495 72.8392 37.1745 72.7554 37.1745C72.6716 37.1745 72.5962 37.1495 72.5291 37.0994C72.4621 37.0493 72.4202 36.9658 72.4202 36.8573V33.2183C72.4202 33.1182 72.4537 33.0347 72.5291 32.9763C72.5962 32.9179 72.6799 32.8928 72.7637 32.8928C72.8308 32.8928 72.8978 32.9179 72.9648 32.9596C73.0319 33.0013 73.0654 33.0681 73.0905 33.1599C73.1743 33.0765 73.2832 33.018 73.4173 32.968C73.5514 32.9179 73.6938 32.9012 73.8446 32.9012H73.92C74.1379 32.9012 74.3474 32.9429 74.5317 33.0347C74.7161 33.1265 74.8753 33.2434 75.0093 33.3936C75.1434 33.2434 75.3026 33.1182 75.4869 33.0347C75.6713 32.9429 75.8724 32.9012 76.0986 32.9012H76.174C76.3584 32.9012 76.5427 32.9262 76.7103 32.9846C76.8779 33.0431 77.0287 33.1265 77.1627 33.235C77.2968 33.3519 77.3974 33.4938 77.4728 33.669C77.5482 33.8443 77.5901 34.053 77.5901 34.295V36.874L77.5566 36.8657Z" fill="#58595B"/>
<path d="M81.9723 36.8573C81.9723 36.9408 81.9472 37.0243 81.8885 37.091C81.8299 37.1578 81.7545 37.1912 81.6455 37.1912C81.612 37.1912 81.5869 37.1912 81.5869 37.1912C81.436 37.1662 81.3104 37.1244 81.2182 37.066C81.126 37.0076 81.0506 36.9408 80.992 36.8573C80.7322 37.0827 80.4138 37.1995 80.0451 37.1995H79.9697C79.7938 37.1995 79.6262 37.1745 79.4502 37.1244C79.2826 37.0743 79.1318 36.9909 78.9977 36.8907C78.8637 36.7822 78.7631 36.657 78.6793 36.4984C78.5955 36.3399 78.5536 36.1646 78.5536 35.9559V35.8558C78.5536 35.6304 78.6039 35.4385 78.7045 35.2966C78.805 35.1463 78.9307 35.0295 79.0815 34.9377C79.2324 34.8459 79.3999 34.7791 79.5759 34.729C79.7519 34.6789 79.9278 34.6456 80.0954 34.6122C80.263 34.5788 80.4054 34.5538 80.5311 34.5287C80.6568 34.5037 80.7406 34.4703 80.7741 34.4202C80.7825 34.4035 80.7909 34.3785 80.7992 34.3534C80.7992 34.3284 80.7992 34.295 80.7992 34.2783C80.7992 34.0196 80.7322 33.836 80.5898 33.7275C80.4473 33.619 80.2797 33.5689 80.0954 33.5689H80.0367C79.8524 33.5689 79.71 33.6023 79.6094 33.6774C79.5089 33.7525 79.4083 33.861 79.3329 34.0029C79.2994 34.0697 79.2575 34.1114 79.1988 34.1364C79.1402 34.1615 79.0899 34.1782 79.0313 34.1782C78.9475 34.1782 78.8721 34.1531 78.805 34.0947C78.738 34.0363 78.7045 33.9612 78.7045 33.8694C78.7045 33.8026 78.7129 33.7525 78.738 33.7108C78.805 33.5522 78.8972 33.427 78.9977 33.3185C79.0983 33.2183 79.2072 33.1349 79.3245 33.0681C79.4418 33.0097 79.5591 32.968 79.6848 32.9346C79.8105 32.9095 79.9278 32.8928 80.0451 32.8928H80.1038C80.2965 32.8928 80.4808 32.9262 80.6484 32.993C80.816 33.0598 80.9668 33.1599 81.0841 33.2768C81.2098 33.402 81.302 33.5439 81.369 33.7024C81.436 33.861 81.4696 34.0363 81.4696 34.2282V36.2481C81.4696 36.4066 81.545 36.5068 81.6958 36.5318C81.7963 36.5485 81.8634 36.5903 81.9137 36.6487C81.9555 36.7071 81.9807 36.7739 81.9807 36.8406L81.9723 36.8573ZM80.7992 35.1046C80.6317 35.1463 80.4641 35.1797 80.2797 35.2048C80.0954 35.2298 79.9278 35.2632 79.7686 35.3133C79.6094 35.3633 79.4837 35.4218 79.3832 35.5136C79.2826 35.597 79.2324 35.7139 79.2324 35.8558V35.9226C79.2324 36.1062 79.2994 36.2564 79.4418 36.3649C79.5759 36.4734 79.7602 36.5318 79.9781 36.5318H80.0535C80.2546 36.5318 80.4306 36.4651 80.5814 36.3148C80.7322 36.1646 80.8076 35.9977 80.8076 35.789V35.1046H80.7992Z" fill="#58595B"/>
<path d="M85.8351 36.8657C85.8351 36.9742 85.8015 37.0576 85.7345 37.1077C85.6675 37.1578 85.5921 37.1828 85.5083 37.1828C85.4245 37.1828 85.3491 37.1578 85.282 37.1077C85.215 37.0576 85.1731 36.9742 85.1731 36.8657V34.295C85.1731 34.0947 85.0977 33.9194 84.9553 33.7692C84.8128 33.6273 84.6285 33.5522 84.419 33.5522H84.3436C84.1425 33.5522 83.9665 33.6273 83.8157 33.7692C83.6649 33.9111 83.5895 34.0863 83.5895 34.295V36.8657C83.5895 36.9742 83.5559 37.0576 83.4889 37.1077C83.4219 37.1578 83.3465 37.1828 83.2627 37.1828C83.1789 37.1828 83.1035 37.1578 83.0364 37.1077C82.9694 37.0576 82.9275 36.9742 82.9275 36.8657V33.2267C82.9275 33.1265 82.961 33.0431 83.0364 32.9846C83.1035 32.9262 83.1873 32.9012 83.2711 32.9012C83.3465 32.9012 83.4135 32.9262 83.4805 32.9679C83.5476 33.0097 83.5811 33.0764 83.6062 33.1683C83.69 33.0848 83.7989 33.0264 83.933 32.9763C84.0671 32.9262 84.2095 32.9095 84.3603 32.9095H84.4357C84.6201 32.9095 84.7961 32.9346 84.972 32.993C85.1396 33.0514 85.2904 33.1349 85.4161 33.2517C85.5418 33.3686 85.6423 33.5105 85.7261 33.6941C85.8015 33.8693 85.8434 34.078 85.8434 34.32V36.8907L85.8351 36.8657Z" fill="#58595B"/>
<path d="M89.7481 34.8125C89.7481 34.896 89.7229 34.9711 89.6726 35.0378C89.6224 35.1046 89.5386 35.138 89.4213 35.138H87.1422C87.0332 35.138 86.9494 35.1046 86.8908 35.0378C86.8321 34.9711 86.807 34.896 86.807 34.8125C86.807 34.729 86.8321 34.6539 86.8908 34.5871C86.9494 34.5204 87.0332 34.487 87.1422 34.487H89.4129C89.5302 34.487 89.614 34.5204 89.6726 34.5871C89.7313 34.6539 89.7564 34.729 89.7564 34.8125H89.7481Z" fill="#58595B"/>
<path d="M95.3788 36.9327C95.3704 36.9994 95.3369 37.0579 95.2866 37.1079C95.2363 37.158 95.1609 37.1831 95.0604 37.1831H94.9012C94.809 37.1831 94.7336 37.158 94.6749 37.1079C94.6163 37.0579 94.5828 36.9994 94.5744 36.941L93.527 32.4757L92.4796 36.941C92.4713 37.0078 92.4377 37.0579 92.3791 37.1079C92.3204 37.158 92.245 37.1831 92.1528 37.1831H91.9936C91.9015 37.1831 91.8261 37.158 91.7674 37.1079C91.7088 37.0579 91.6752 36.9994 91.6669 36.9327L90.4938 31.4742C90.4938 31.4742 90.4854 31.3991 90.4854 31.3657C90.4854 31.2989 90.5189 31.2405 90.5692 31.1737C90.6195 31.1069 90.7116 31.0736 90.8206 31.0736C90.8876 31.0736 90.9546 31.0903 91.0133 31.132C91.072 31.1737 91.1138 31.2405 91.139 31.3323L92.0858 35.7141L93.1164 31.3073C93.1332 31.2405 93.1667 31.1821 93.217 31.1403C93.2673 31.0986 93.3427 31.0736 93.4432 31.0736H93.5857C93.6778 31.0736 93.7532 31.0986 93.8119 31.1403C93.8706 31.1821 93.9041 31.2405 93.9208 31.3073L94.9515 35.7141L95.8983 31.3323C95.915 31.2405 95.9569 31.1737 96.0156 31.132C96.0742 31.0903 96.1413 31.0736 96.2167 31.0736C96.3256 31.0736 96.4094 31.1069 96.4681 31.1737C96.5267 31.2405 96.5519 31.3156 96.5519 31.3907C96.5519 31.4158 96.5519 31.4491 96.5519 31.4742L95.3788 36.9327Z" fill="#58595B"/>
<path d="M98.3199 31.5909C98.3199 31.6994 98.2863 31.7829 98.2109 31.8413C98.1439 31.8997 98.0685 31.9248 97.9847 31.9248C97.9009 31.9248 97.8255 31.8997 97.7585 31.8413C97.6914 31.7829 97.6495 31.6994 97.6495 31.5909V31.3989C97.6495 31.2904 97.6831 31.207 97.7585 31.1486C97.8255 31.0901 97.9009 31.0651 97.9847 31.0651C98.0685 31.0651 98.1439 31.0901 98.2109 31.1486C98.278 31.207 98.3199 31.2904 98.3199 31.3989V31.5909ZM98.3199 36.8658C98.3199 36.9743 98.2863 37.0577 98.2109 37.1078C98.1439 37.1579 98.0685 37.1829 97.9847 37.1829C97.9009 37.1829 97.8255 37.1579 97.7585 37.1078C97.6914 37.0577 97.6495 36.9743 97.6495 36.8658V33.2268C97.6495 33.1183 97.6831 33.0348 97.7585 32.9764C97.8255 32.918 97.9009 32.8929 97.9847 32.8929C98.0685 32.8929 98.1439 32.918 98.2109 32.9764C98.278 33.0348 98.3199 33.1183 98.3199 33.2268V36.8658Z" fill="#58595B"/>
<path d="M101.286 36.8657C101.286 36.9491 101.261 37.0243 101.211 37.091C101.16 37.1578 101.077 37.1912 100.959 37.1912C100.8 37.1912 100.649 37.1661 100.515 37.1077C100.373 37.0493 100.255 36.9658 100.146 36.8657C100.046 36.7655 99.9622 36.6403 99.9035 36.4984C99.8448 36.3566 99.8197 36.2147 99.8197 36.0561V31.4155C99.8197 31.307 99.8532 31.2236 99.9203 31.1651C99.9873 31.1067 100.063 31.0817 100.146 31.0817C100.23 31.0817 100.306 31.1067 100.373 31.1651C100.44 31.2236 100.473 31.307 100.473 31.4155V36.0561C100.473 36.1896 100.524 36.3065 100.616 36.3983C100.708 36.4901 100.825 36.5402 100.959 36.5485C101.077 36.5485 101.16 36.5819 101.211 36.6487C101.261 36.7154 101.286 36.7906 101.286 36.874V36.8657Z" fill="#58595B"/>
<path d="M105.099 36.8826C105.099 36.9911 105.065 37.0662 104.99 37.1163C104.923 37.1664 104.847 37.1914 104.763 37.1914C104.688 37.1914 104.621 37.1747 104.554 37.133C104.487 37.0913 104.453 37.0245 104.437 36.941C104.37 37.0078 104.277 37.0662 104.152 37.1163C104.026 37.1664 103.875 37.1914 103.682 37.1914H103.607C103.406 37.1914 103.222 37.158 103.054 37.0829C102.878 37.0078 102.736 36.9076 102.602 36.7824C102.476 36.6572 102.375 36.507 102.3 36.3401C102.224 36.1732 102.191 35.9895 102.191 35.7892V34.2952C102.191 34.1033 102.224 33.9197 102.3 33.7527C102.375 33.5858 102.476 33.4356 102.602 33.302C102.727 33.1768 102.878 33.0767 103.054 33.0016C103.23 32.9264 103.414 32.8931 103.607 32.8931H103.666C103.817 32.8931 103.967 32.9181 104.101 32.9682C104.244 33.0183 104.344 33.085 104.428 33.1852V31.4074C104.428 31.2989 104.462 31.2155 104.529 31.157C104.596 31.0986 104.671 31.0736 104.755 31.0736C104.839 31.0736 104.914 31.0986 104.981 31.157C105.048 31.2155 105.09 31.2989 105.09 31.4074V36.8909L105.099 36.8826ZM104.437 34.2285C104.437 34.0282 104.361 33.8612 104.21 33.7444C104.06 33.6192 103.892 33.5608 103.691 33.5608H103.615C103.406 33.5608 103.23 33.6359 103.079 33.7778C102.937 33.9197 102.861 34.0949 102.861 34.3036V35.7976C102.861 35.9979 102.937 36.1732 103.079 36.3234C103.222 36.4736 103.398 36.5404 103.607 36.5404H103.691C103.892 36.5404 104.06 36.482 104.21 36.3568C104.361 36.2316 104.437 36.0647 104.437 35.8477V34.2285Z" fill="#58595B"/>
<path d="M108.107 36.8657C108.107 36.9491 108.081 37.0243 108.031 37.091C107.981 37.1578 107.897 37.1912 107.78 37.1912C107.621 37.1912 107.47 37.1661 107.336 37.1077C107.193 37.0493 107.076 36.9658 106.967 36.8657C106.866 36.7655 106.783 36.6403 106.724 36.4984C106.665 36.3566 106.64 36.2147 106.64 36.0561V31.4155C106.64 31.307 106.674 31.2236 106.741 31.1651C106.808 31.1067 106.883 31.0817 106.967 31.0817C107.051 31.0817 107.126 31.1067 107.193 31.1651C107.26 31.2236 107.294 31.307 107.294 31.4155V36.0561C107.294 36.1896 107.344 36.3065 107.436 36.3983C107.528 36.4901 107.646 36.5402 107.78 36.5485C107.897 36.5485 107.981 36.5819 108.031 36.6487C108.081 36.7154 108.107 36.7906 108.107 36.874V36.8657Z" fill="#58595B"/>
<path d="M109.866 31.5909C109.866 31.6994 109.833 31.7829 109.766 31.8413C109.699 31.8997 109.623 31.9248 109.539 31.9248C109.456 31.9248 109.38 31.8997 109.313 31.8413C109.246 31.7829 109.213 31.6994 109.213 31.5909V31.3989C109.213 31.2904 109.246 31.207 109.313 31.1486C109.38 31.0901 109.456 31.0651 109.539 31.0651C109.623 31.0651 109.699 31.0901 109.766 31.1486C109.833 31.207 109.866 31.2904 109.866 31.3989V31.5909ZM109.866 36.8658C109.866 36.9743 109.833 37.0577 109.766 37.1078C109.699 37.1579 109.623 37.1829 109.539 37.1829C109.456 37.1829 109.38 37.1579 109.313 37.1078C109.246 37.0577 109.213 36.9743 109.213 36.8658V33.2268C109.213 33.1183 109.246 33.0348 109.313 32.9764C109.38 32.918 109.456 32.8929 109.539 32.8929C109.623 32.8929 109.699 32.918 109.766 32.9764C109.833 33.0348 109.866 33.1183 109.866 33.2268V36.8658Z" fill="#58595B"/>
<path d="M112.983 31.3988C112.983 31.4823 112.958 31.5574 112.899 31.6242C112.841 31.691 112.757 31.7243 112.648 31.7243C112.506 31.7243 112.397 31.7744 112.313 31.8662C112.229 31.958 112.187 32.0749 112.187 32.2084V32.9012H112.598C112.715 32.9012 112.799 32.9346 112.849 33.0013C112.899 33.0681 112.925 33.1432 112.925 33.2267C112.925 33.3101 112.899 33.3853 112.841 33.452C112.782 33.5188 112.698 33.5522 112.589 33.5522H112.179V36.8406C112.179 36.9491 112.145 37.0326 112.07 37.0827C112.003 37.1328 111.927 37.1578 111.844 37.1578C111.76 37.1578 111.684 37.1328 111.617 37.0827C111.55 37.0326 111.508 36.9491 111.508 36.8406V33.5522H111.316C111.207 33.5522 111.123 33.5188 111.064 33.452C111.006 33.3853 110.981 33.3101 110.981 33.2267C110.981 33.1432 111.006 33.0681 111.064 33.0013C111.123 32.9346 111.207 32.9012 111.316 32.9012H111.508V32.2084C111.508 32.0415 111.534 31.8913 111.592 31.7494C111.651 31.6075 111.726 31.4823 111.827 31.3821C111.927 31.282 112.045 31.1985 112.187 31.1401C112.321 31.0817 112.472 31.0566 112.64 31.0566C112.749 31.0566 112.832 31.09 112.891 31.1568C112.95 31.2236 112.975 31.2987 112.975 31.3821L112.983 31.3988Z" fill="#58595B"/>
<path d="M116.67 35.0128C116.67 35.0963 116.636 35.1797 116.569 35.2465C116.502 35.3133 116.427 35.3467 116.335 35.3467H114.424V35.789C114.424 35.9893 114.5 36.1646 114.642 36.3148C114.785 36.4567 114.961 36.5318 115.17 36.5318H115.254C115.421 36.5318 115.564 36.4901 115.681 36.3983C115.799 36.3148 115.882 36.2063 115.941 36.0811C115.966 36.006 116.008 35.9476 116.067 35.9225C116.125 35.8975 116.176 35.8725 116.234 35.8725C116.318 35.8725 116.402 35.9059 116.469 35.9726C116.536 36.0394 116.569 36.1145 116.569 36.2147C116.569 36.2731 116.561 36.3232 116.536 36.3649C116.435 36.6069 116.268 36.8073 116.042 36.9575C115.815 37.1077 115.556 37.1828 115.262 37.1828H115.179C114.986 37.1828 114.801 37.1495 114.634 37.0743C114.466 36.9992 114.315 36.8991 114.181 36.7739C114.056 36.6487 113.955 36.4984 113.88 36.3315C113.804 36.1646 113.771 35.981 113.771 35.7807V34.2867C113.771 34.0947 113.804 33.9111 113.88 33.7442C113.955 33.5772 114.056 33.427 114.181 33.2935C114.307 33.1683 114.458 33.0681 114.634 32.993C114.81 32.9179 114.986 32.8845 115.179 32.8845H115.262C115.455 32.8845 115.639 32.9179 115.807 32.9846C115.983 33.0514 116.125 33.1516 116.259 33.2851C116.385 33.4103 116.486 33.5605 116.561 33.7358C116.636 33.9111 116.67 34.0947 116.67 34.295V35.0128ZM116.008 34.295C116.008 34.078 115.933 33.9027 115.782 33.7609C115.631 33.619 115.463 33.5438 115.271 33.5438H115.187C114.986 33.5438 114.81 33.619 114.659 33.7609C114.508 33.9027 114.433 34.078 114.433 34.2867V34.7207H116.008V34.295Z" fill="#58595B"/>
<path d="M123.641 35.789C123.641 35.9893 123.608 36.1729 123.532 36.3399C123.457 36.5068 123.356 36.657 123.231 36.7822C123.105 36.9074 122.954 37.0076 122.778 37.0827C122.602 37.1578 122.426 37.1912 122.234 37.1912H122.15C121.957 37.1912 121.773 37.1578 121.605 37.0827C121.429 37.0076 121.287 36.9074 121.153 36.7822C121.027 36.657 120.927 36.5068 120.851 36.3399C120.776 36.1729 120.742 35.9893 120.742 35.789V34.295C120.742 34.0947 120.776 33.9111 120.86 33.7442C120.935 33.5689 121.035 33.427 121.161 33.3018C121.287 33.1766 121.438 33.0765 121.605 33.0013C121.781 32.9262 121.957 32.8928 122.15 32.8928H122.234C122.426 32.8928 122.611 32.9262 122.778 33.0013C122.954 33.0765 123.097 33.1766 123.222 33.3018C123.348 33.427 123.449 33.5772 123.524 33.7525C123.599 33.9278 123.633 34.1031 123.633 34.295C123.633 34.4035 123.599 34.487 123.532 34.5454C123.465 34.6038 123.39 34.6289 123.306 34.6289C123.222 34.6289 123.147 34.6038 123.08 34.5538C123.013 34.5037 122.979 34.4202 122.971 34.3117C122.963 34.0947 122.887 33.9111 122.745 33.7692C122.602 33.6273 122.435 33.5605 122.225 33.5605H122.142C121.94 33.5605 121.764 33.6357 121.614 33.7775C121.471 33.9194 121.396 34.0947 121.396 34.3034V35.7974C121.396 35.9977 121.471 36.1729 121.614 36.3232C121.756 36.4734 121.94 36.5402 122.15 36.5402H122.225C122.426 36.5402 122.602 36.4651 122.745 36.3232C122.887 36.1813 122.963 36.006 122.971 35.7974C122.971 35.6805 123.013 35.597 123.08 35.5386C123.147 35.4802 123.222 35.4552 123.306 35.4552C123.39 35.4552 123.465 35.4802 123.532 35.5386C123.599 35.597 123.633 35.6805 123.633 35.7974L123.641 35.789Z" fill="#58595B"/>
<path d="M127.538 35.789C127.538 35.9893 127.504 36.1729 127.429 36.3399C127.353 36.5068 127.253 36.657 127.127 36.7822C127.001 36.9074 126.851 37.0076 126.675 37.0827C126.499 37.1578 126.323 37.1912 126.13 37.1912H126.046C125.853 37.1912 125.669 37.1578 125.502 37.0827C125.334 37.0076 125.183 36.9074 125.049 36.7822C124.923 36.657 124.823 36.5068 124.747 36.3399C124.672 36.1729 124.638 35.9893 124.638 35.789V34.295C124.638 34.1031 124.672 33.9194 124.747 33.7525C124.823 33.5856 124.923 33.4353 125.049 33.3018C125.175 33.1766 125.326 33.0765 125.502 33.0013C125.677 32.9262 125.853 32.8928 126.046 32.8928H126.13C126.323 32.8928 126.507 32.9262 126.675 33.0013C126.851 33.0765 126.993 33.1766 127.127 33.3018C127.261 33.427 127.353 33.5772 127.429 33.7525C127.504 33.9278 127.538 34.1031 127.538 34.295V35.789ZM126.876 34.295C126.876 34.0947 126.8 33.9194 126.658 33.7692C126.515 33.6273 126.339 33.5522 126.13 33.5522H126.046C125.845 33.5522 125.669 33.6273 125.518 33.7692C125.367 33.9111 125.3 34.0864 125.3 34.295V35.789C125.3 35.9893 125.376 36.1646 125.518 36.3148C125.661 36.4567 125.845 36.5318 126.055 36.5318H126.13C126.331 36.5318 126.507 36.4567 126.658 36.3148C126.809 36.1729 126.876 35.9977 126.876 35.789V34.295Z" fill="#58595B"/>
<path d="M131.66 36.8657C131.66 36.9742 131.627 37.0576 131.56 37.1077C131.493 37.1578 131.417 37.1828 131.333 37.1828C131.25 37.1828 131.174 37.1578 131.107 37.1077C131.04 37.0576 131.007 36.9742 131.007 36.8657V34.295C131.007 34.0947 130.931 33.9194 130.789 33.7692C130.646 33.619 130.462 33.5522 130.252 33.5522H130.177C129.976 33.5522 129.8 33.6273 129.649 33.7692C129.498 33.9111 129.423 34.0863 129.423 34.295V36.8657C129.423 36.9742 129.389 37.0576 129.322 37.1077C129.255 37.1578 129.18 37.1828 129.096 37.1828C129.012 37.1828 128.937 37.1578 128.87 37.1077C128.803 37.0576 128.769 36.9742 128.769 36.8657V33.2267C128.769 33.1265 128.803 33.0431 128.87 32.9846C128.937 32.9262 129.021 32.9012 129.105 32.9012C129.18 32.9012 129.247 32.9262 129.314 32.9679C129.381 33.0097 129.415 33.0764 129.44 33.1683C129.523 33.0848 129.632 33.0264 129.766 32.9763C129.901 32.9262 130.043 32.9095 130.194 32.9095H130.269C130.454 32.9095 130.63 32.9346 130.805 32.993C130.973 33.0514 131.124 33.1349 131.25 33.2517C131.375 33.3686 131.484 33.5105 131.56 33.6941C131.635 33.8693 131.677 34.078 131.677 34.32V36.8907L131.66 36.8657Z" fill="#58595B"/>
<path d="M135.69 36.8826C135.69 36.9911 135.657 37.0662 135.59 37.1163C135.523 37.1664 135.447 37.1914 135.364 37.1914C135.288 37.1914 135.221 37.1747 135.154 37.133C135.087 37.0913 135.054 37.0245 135.037 36.941C134.97 37.0078 134.878 37.0662 134.752 37.1163C134.626 37.1664 134.467 37.1914 134.283 37.1914H134.207C134.006 37.1914 133.822 37.158 133.654 37.0829C133.487 37.0078 133.336 36.9076 133.202 36.7824C133.076 36.6572 132.976 36.507 132.9 36.3401C132.825 36.1732 132.791 35.9895 132.791 35.7892V34.2952C132.791 34.1033 132.825 33.9197 132.9 33.7527C132.976 33.5858 133.076 33.4356 133.202 33.302C133.328 33.1768 133.478 33.0767 133.654 33.0016C133.83 32.9264 134.015 32.8931 134.207 32.8931H134.266C134.417 32.8931 134.559 32.9181 134.702 32.9682C134.844 33.0183 134.953 33.085 135.028 33.1852V31.4074C135.028 31.2989 135.062 31.2155 135.137 31.157C135.204 31.0986 135.28 31.0736 135.364 31.0736C135.447 31.0736 135.523 31.0986 135.59 31.157C135.657 31.2155 135.69 31.2989 135.69 31.4074V36.8909V36.8826ZM135.028 34.2285C135.028 34.0282 134.953 33.8612 134.802 33.7444C134.651 33.6192 134.484 33.5608 134.283 33.5608H134.207C133.998 33.5608 133.822 33.6359 133.671 33.7778C133.52 33.9197 133.453 34.0949 133.453 34.3036V35.7976C133.453 35.9979 133.529 36.1732 133.671 36.3234C133.814 36.4653 133.99 36.5404 134.199 36.5404H134.283C134.484 36.5404 134.651 36.482 134.802 36.3568C134.953 36.2316 135.028 36.0647 135.028 35.8477V34.2285Z" fill="#58595B"/>
<path d="M138.699 36.8657C138.699 36.9491 138.673 37.0243 138.623 37.091C138.573 37.1578 138.489 37.1912 138.372 37.1912C138.213 37.1912 138.062 37.1661 137.928 37.1077C137.785 37.0493 137.668 36.9658 137.559 36.8657C137.45 36.7655 137.375 36.6403 137.316 36.4984C137.257 36.3566 137.232 36.2147 137.232 36.0561V31.4155C137.232 31.307 137.266 31.2236 137.333 31.1651C137.4 31.1067 137.475 31.0817 137.559 31.0817C137.643 31.0817 137.718 31.1067 137.785 31.1651C137.852 31.2236 137.886 31.307 137.886 31.4155V36.0561C137.886 36.1896 137.936 36.3065 138.028 36.3983C138.12 36.4901 138.238 36.5402 138.372 36.5485C138.489 36.5485 138.573 36.5819 138.623 36.6487C138.673 36.7154 138.699 36.7906 138.699 36.874V36.8657Z" fill="#58595B"/>
<path d="M140.458 31.5909C140.458 31.6994 140.425 31.7829 140.358 31.8413C140.291 31.8997 140.215 31.9248 140.131 31.9248C140.048 31.9248 139.972 31.8997 139.905 31.8413C139.838 31.7829 139.805 31.6994 139.805 31.5909V31.3989C139.805 31.2904 139.838 31.207 139.905 31.1486C139.972 31.0901 140.048 31.0651 140.131 31.0651C140.215 31.0651 140.291 31.0901 140.358 31.1486C140.425 31.207 140.458 31.2904 140.458 31.3989V31.5909ZM140.458 36.8658C140.458 36.9743 140.425 37.0577 140.358 37.1078C140.291 37.1579 140.215 37.1829 140.131 37.1829C140.048 37.1829 139.972 37.1579 139.905 37.1078C139.838 37.0577 139.805 36.9743 139.805 36.8658V33.2268C139.805 33.1183 139.838 33.0348 139.905 32.9764C139.972 32.918 140.048 32.8929 140.131 32.8929C140.215 32.8929 140.291 32.918 140.358 32.9764C140.425 33.0348 140.458 33.1183 140.458 33.2268V36.8658Z" fill="#58595B"/>
<path d="M144.673 35.789C144.673 35.9893 144.639 36.1729 144.564 36.3399C144.488 36.5068 144.388 36.657 144.262 36.7822C144.137 36.9074 143.986 37.0076 143.81 37.0827C143.634 37.1578 143.458 37.1912 143.265 37.1912H143.181C142.989 37.1912 142.804 37.1578 142.637 37.0827C142.461 37.0076 142.318 36.9074 142.184 36.7822C142.059 36.657 141.958 36.5068 141.883 36.3399C141.807 36.1729 141.774 35.9893 141.774 35.789V34.295C141.774 34.0947 141.807 33.9111 141.891 33.7442C141.966 33.5689 142.067 33.427 142.193 33.3018C142.318 33.1766 142.469 33.0765 142.637 33.0013C142.813 32.9262 142.989 32.8928 143.181 32.8928H143.265C143.458 32.8928 143.642 32.9262 143.81 33.0013C143.986 33.0765 144.128 33.1766 144.254 33.3018C144.38 33.427 144.48 33.5772 144.556 33.7525C144.631 33.9278 144.664 34.1031 144.664 34.295C144.664 34.4035 144.631 34.487 144.564 34.5454C144.497 34.6038 144.421 34.6289 144.338 34.6289C144.254 34.6289 144.178 34.6038 144.111 34.5538C144.044 34.5037 144.011 34.4202 144.002 34.3117C143.994 34.0947 143.919 33.9111 143.776 33.7692C143.634 33.6273 143.466 33.5605 143.257 33.5605H143.173C142.972 33.5605 142.796 33.6357 142.645 33.7775C142.503 33.9194 142.427 34.0947 142.427 34.3034V35.7974C142.427 35.9977 142.503 36.1729 142.645 36.3232C142.788 36.4734 142.972 36.5402 143.181 36.5402H143.257C143.458 36.5402 143.634 36.4651 143.776 36.3232C143.919 36.1813 143.994 36.006 144.002 35.7974C144.002 35.6805 144.044 35.597 144.111 35.5386C144.178 35.4802 144.254 35.4552 144.338 35.4552C144.421 35.4552 144.497 35.4802 144.564 35.5386C144.631 35.597 144.664 35.6805 144.664 35.7974L144.673 35.789Z" fill="#58595B"/>
<path d="M147.58 36.8657C147.58 36.9491 147.555 37.0243 147.505 37.091C147.455 37.1578 147.371 37.1912 147.254 37.1912C147.094 37.1912 146.944 37.1661 146.809 37.1077C146.667 37.0493 146.55 36.9658 146.441 36.8657C146.34 36.7655 146.256 36.6403 146.198 36.4984C146.139 36.3566 146.114 36.2147 146.114 36.0561V33.5939H145.804C145.695 33.5939 145.611 33.5605 145.553 33.4938C145.494 33.427 145.469 33.3519 145.469 33.2684C145.469 33.185 145.494 33.1098 145.553 33.0431C145.611 32.9763 145.695 32.9429 145.804 32.9429H146.114V31.4239C146.114 31.3154 146.148 31.2319 146.215 31.1735C146.282 31.1151 146.357 31.09 146.441 31.09C146.525 31.09 146.6 31.1151 146.667 31.1735C146.734 31.2319 146.768 31.3154 146.768 31.4239V32.9429H147.237C147.346 32.9429 147.43 32.9763 147.488 33.0431C147.547 33.1098 147.572 33.185 147.572 33.2684C147.572 33.3519 147.547 33.427 147.488 33.4938C147.43 33.5605 147.346 33.5939 147.237 33.5939H146.768V36.0477C146.768 36.198 146.818 36.3148 146.918 36.3983C147.019 36.4817 147.136 36.5318 147.27 36.5402C147.371 36.5485 147.455 36.5902 147.505 36.657C147.555 36.7238 147.58 36.7906 147.58 36.874V36.8657Z" fill="#58595B"/>
<path d="M151.426 35.9643C151.426 36.1646 151.384 36.3482 151.292 36.4984C151.2 36.6487 151.091 36.7739 150.94 36.874C150.798 36.9742 150.63 37.0493 150.454 37.1077C150.278 37.1661 150.094 37.1828 149.91 37.1828H149.859C149.717 37.1828 149.575 37.1661 149.424 37.1244C149.273 37.0827 149.13 37.0326 148.996 36.9575C148.862 36.8824 148.737 36.7906 148.628 36.6821C148.519 36.5736 148.427 36.4567 148.36 36.3232C148.334 36.2564 148.318 36.198 148.318 36.1562C148.318 36.0561 148.351 35.981 148.418 35.9225C148.485 35.8641 148.569 35.8391 148.653 35.8391C148.703 35.8391 148.753 35.8474 148.812 35.8725C148.871 35.8975 148.913 35.9309 148.955 35.9893C149.063 36.1312 149.206 36.2647 149.373 36.3732C149.541 36.4817 149.709 36.5402 149.876 36.5402H149.918C150.186 36.5402 150.396 36.4817 150.538 36.3565C150.681 36.2314 150.756 36.0978 150.764 35.9559C150.764 35.764 150.714 35.6221 150.605 35.5219C150.496 35.4218 150.354 35.355 150.186 35.2966C150.019 35.2465 149.834 35.1964 149.633 35.163C149.432 35.1296 149.248 35.0712 149.08 34.9877C148.913 34.9126 148.77 34.7958 148.653 34.6455C148.536 34.4953 148.485 34.2867 148.485 34.0112C148.485 33.8026 148.536 33.6273 148.636 33.4854C148.737 33.3435 148.854 33.2267 148.996 33.1432C149.139 33.0597 149.298 32.993 149.457 32.9596C149.625 32.9262 149.776 32.9012 149.918 32.9012H149.952C150.102 32.9012 150.245 32.9179 150.371 32.9429C150.496 32.9763 150.605 33.0097 150.706 33.0431C150.798 33.0848 150.882 33.1182 150.949 33.1683C151.016 33.21 151.066 33.2517 151.1 33.2768C151.183 33.3435 151.225 33.427 151.225 33.5271C151.225 33.6106 151.192 33.6774 151.141 33.7441C151.083 33.8109 151.007 33.836 150.915 33.836C150.857 33.836 150.79 33.8193 150.722 33.7859L150.412 33.6356C150.304 33.5772 150.144 33.5522 149.952 33.5522H149.918C149.675 33.5522 149.491 33.6023 149.357 33.6941C149.223 33.7859 149.164 33.8944 149.156 34.0279C149.156 34.1865 149.206 34.3034 149.315 34.3785C149.424 34.4536 149.566 34.512 149.734 34.5621C149.901 34.6122 150.086 34.6539 150.278 34.6956C150.471 34.7374 150.655 34.8041 150.831 34.8959C151.007 34.9878 151.15 35.1129 151.259 35.2715C151.376 35.4301 151.426 35.6638 151.426 35.9476V35.981V35.9643Z" fill="#58595B"/>
<path d="M116.008 44.4859H17.8893C16.2696 44.4859 14.9566 45.7937 14.9566 47.4071V60.4273C14.9566 62.0407 16.2696 63.3485 17.8893 63.3485H116.008C117.628 63.3485 118.941 62.0407 118.941 60.4273V47.4071C118.941 45.7937 117.628 44.4859 116.008 44.4859Z" fill="#99B544"/>
<path d="M50.8441 50.4619L50.819 50.5621L49.1934 57.0472C49.1683 57.1473 49.1097 57.2225 49.0342 57.2725C48.9588 57.3226 48.8667 57.3476 48.7661 57.3476C48.6739 57.3476 48.5902 57.3226 48.5147 57.2725C48.4309 57.2225 48.3807 57.1473 48.3555 57.0472L46.7216 50.5621C46.7216 50.5621 46.7132 50.5037 46.7132 50.4619C46.7132 50.3534 46.7468 50.2616 46.8305 50.1865C46.906 50.1114 47.0065 50.078 47.1238 50.078C47.2076 50.078 47.283 50.103 47.35 50.1531C47.4171 50.2032 47.4674 50.2783 47.4925 50.3785L48.7745 55.7952L50.0565 50.3785C50.0816 50.2783 50.1319 50.2032 50.2073 50.1531C50.2827 50.103 50.3581 50.078 50.4335 50.078C50.5508 50.078 50.6514 50.1114 50.7268 50.1865C50.8106 50.2616 50.8441 50.3534 50.8441 50.4619Z" fill="white"/>
<path d="M52.9305 50.7041C52.9305 50.8376 52.8886 50.9378 52.8048 50.9962C52.721 51.063 52.6289 51.0964 52.5367 51.0964C52.4445 51.0964 52.3524 51.063 52.2686 50.9962C52.1848 50.9294 52.1429 50.8293 52.1429 50.7041V50.4787C52.1429 50.3452 52.1848 50.2534 52.2686 50.1866C52.3524 50.1198 52.4445 50.0865 52.5367 50.0865C52.6289 50.0865 52.721 50.1198 52.8048 50.1866C52.8886 50.2534 52.9305 50.3535 52.9305 50.4787V50.7041ZM52.9305 56.9722C52.9305 57.1057 52.8886 57.1975 52.8048 57.2643C52.721 57.3311 52.6289 57.3561 52.5367 57.3561C52.4445 57.3561 52.3524 57.3227 52.2686 57.2643C52.1848 57.2059 52.1429 57.1057 52.1429 56.9722V52.6404C52.1429 52.5069 52.1848 52.4067 52.2686 52.3483C52.3524 52.2815 52.4445 52.2482 52.5367 52.2482C52.6289 52.2482 52.721 52.2815 52.8048 52.3483C52.8886 52.4151 52.9305 52.5152 52.9305 52.6404V56.9722Z" fill="white"/>
<path d="M57.9328 54.7685C57.9328 54.8687 57.8909 54.9605 57.8155 55.044C57.7401 55.1274 57.6479 55.1608 57.539 55.1608H55.2683V55.6866C55.2683 55.9287 55.352 56.1373 55.528 56.3126C55.704 56.4879 55.9134 56.5713 56.1481 56.5713H56.2486C56.4497 56.5713 56.6173 56.5213 56.7514 56.4127C56.8854 56.3126 56.986 56.1874 57.0614 56.0372C57.0949 55.9454 57.1452 55.8869 57.2038 55.8452C57.2708 55.8118 57.3295 55.7868 57.4049 55.7868C57.5055 55.7868 57.606 55.8202 57.6814 55.9036C57.7652 55.9787 57.8071 56.0789 57.8071 56.1957C57.8071 56.2625 57.7904 56.3209 57.7652 56.371C57.6395 56.6631 57.4468 56.8968 57.1787 57.0721C56.9105 57.2557 56.6005 57.3392 56.2486 57.3392H56.1481C55.9218 57.3392 55.704 57.2975 55.4945 57.2057C55.285 57.1138 55.1091 57.0053 54.9582 56.8551C54.8074 56.7049 54.6817 56.5296 54.5979 56.3293C54.5141 56.129 54.4639 55.912 54.4639 55.6783V53.9005C54.4639 53.6752 54.5058 53.4582 54.5979 53.2495C54.6901 53.0408 54.8074 52.8656 54.9582 52.7153C55.1091 52.5651 55.285 52.4483 55.4945 52.3564C55.704 52.2646 55.9134 52.2229 56.1481 52.2229H56.2486C56.4748 52.2229 56.6927 52.2646 56.9022 52.3481C57.1033 52.4316 57.2876 52.5484 57.4384 52.6986C57.5893 52.8489 57.7066 53.0241 57.7987 53.2328C57.8909 53.4415 57.9328 53.6585 57.9328 53.9005V54.7518V54.7685ZM57.1452 53.9172C57.1452 53.6585 57.053 53.4498 56.877 53.2829C56.7011 53.116 56.5 53.0325 56.2654 53.0325H56.1648C55.9218 53.0325 55.7123 53.116 55.5364 53.2829C55.3604 53.4498 55.2683 53.6585 55.2683 53.9089V54.4263H57.1368V53.9172H57.1452Z" fill="white"/>
<path d="M65.055 52.6319C65.055 52.6903 65.055 52.7237 65.0466 52.7487L63.8233 57.0805C63.8065 57.1472 63.7646 57.214 63.6976 57.2724C63.6389 57.3308 63.5468 57.3642 63.4378 57.3642H63.354C63.2535 57.3642 63.1697 57.3308 63.1027 57.2724C63.0356 57.214 62.9854 57.1472 62.9602 57.0721C62.9183 56.9302 62.8681 56.7383 62.801 56.5129C62.734 56.2876 62.6753 56.0455 62.6083 55.7951C62.5413 55.5447 62.4742 55.286 62.4072 55.0273C62.3402 54.7685 62.2731 54.5348 62.2145 54.3262C62.1558 54.1175 62.1056 53.9422 62.0637 53.8004C62.0218 53.6585 61.9966 53.575 61.9799 53.55L61.0247 57.0805C60.9995 57.1472 60.9576 57.214 60.8906 57.2808C60.8236 57.3392 60.7398 57.3726 60.6392 57.3726H60.5471C60.4381 57.3726 60.346 57.3392 60.2873 57.2808C60.2203 57.2223 60.1868 57.1556 60.1616 57.0888L58.9467 52.7571C58.9467 52.7571 58.9383 52.7153 58.9299 52.6986C58.9299 52.6819 58.9299 52.6653 58.9299 52.6402C58.9299 52.5317 58.9634 52.4399 59.0472 52.3648C59.1226 52.2897 59.2232 52.2563 59.3405 52.2563C59.4159 52.2563 59.4913 52.2813 59.5583 52.3231C59.6254 52.3648 59.684 52.4399 59.7175 52.5484L60.6141 55.695L61.5525 52.5317C61.6028 52.3481 61.7536 52.2563 61.9966 52.2563H62.005C62.1642 52.2563 62.2731 52.2813 62.3318 52.3397C62.3904 52.3982 62.4323 52.4566 62.4491 52.5401L63.3959 55.7117L64.3009 52.5568C64.3344 52.4566 64.3847 52.3815 64.4517 52.3314C64.5187 52.2897 64.5858 52.2646 64.6612 52.2646C64.7785 52.2646 64.879 52.298 64.9544 52.3731C65.0299 52.4483 65.0718 52.5401 65.0718 52.6486L65.055 52.6319Z" fill="white"/>
<path d="M75.2439 56.9636C75.2439 57.0971 75.202 57.189 75.1182 57.2557C75.0344 57.3141 74.9423 57.3475 74.8501 57.3475C74.7579 57.3475 74.6658 57.3141 74.582 57.2557C74.4982 57.1973 74.4563 57.0971 74.4563 56.9636V51.8974L73.0821 55.0356C73.0402 55.1358 72.9816 55.2025 72.8978 55.2443C72.814 55.286 72.7302 55.3027 72.6464 55.3027C72.4285 55.3027 72.2861 55.2109 72.2023 55.0356L70.7863 51.8974V56.9636C70.7863 57.0971 70.7444 57.189 70.6606 57.2557C70.5768 57.3141 70.4846 57.3475 70.3924 57.3475C70.3003 57.3475 70.2081 57.3141 70.1243 57.2557C70.0405 57.1973 69.9986 57.0971 69.9986 56.9636V50.5286C69.9986 50.3867 70.0321 50.2782 70.0992 50.1947C70.1662 50.1113 70.2919 50.0695 70.4679 50.0695H70.5014C70.6438 50.0695 70.7444 50.1029 70.8114 50.1614C70.8784 50.2198 70.9371 50.2949 70.9706 50.37L72.638 54.0758L74.2887 50.37C74.3222 50.2949 74.3725 50.2281 74.4479 50.1614C74.5149 50.0946 74.6239 50.0695 74.7663 50.0695H74.7998C74.9758 50.0695 75.1015 50.1113 75.1601 50.1947C75.2188 50.2782 75.2523 50.3867 75.2523 50.5286V56.9636H75.2439Z" fill="white"/>
<path d="M80.2965 55.695C80.2965 55.9287 80.2546 56.1457 80.1624 56.346C80.0703 56.5463 79.953 56.7216 79.8021 56.8718C79.6513 57.022 79.4754 57.1389 79.2659 57.2223C79.0564 57.3058 78.8469 57.3559 78.6123 57.3559H78.5118C78.2855 57.3559 78.0677 57.3142 77.8582 57.2223C77.6571 57.1389 77.4728 57.022 77.3219 56.8718C77.1711 56.7216 77.0538 56.5463 76.9616 56.346C76.8695 56.1457 76.8276 55.9287 76.8276 55.695V53.9172C76.8276 53.6919 76.8695 53.4748 76.9616 53.2662C77.0538 53.0575 77.1711 52.8823 77.3219 52.732C77.4728 52.5818 77.6571 52.4649 77.8582 52.3731C78.0593 52.2897 78.2771 52.2396 78.5118 52.2396H78.6123C78.8385 52.2396 79.0564 52.2813 79.2659 52.3731C79.4754 52.4649 79.6513 52.5818 79.8021 52.732C79.953 52.8823 80.0786 53.0659 80.1624 53.2662C80.2462 53.4665 80.2965 53.6835 80.2965 53.9172V55.695ZM79.5089 53.9172C79.5089 53.6752 79.4251 53.4665 79.2491 53.2912C79.0732 53.116 78.8637 53.0325 78.6291 53.0325H78.5285C78.2855 53.0325 78.0761 53.116 77.9001 53.2912C77.7241 53.4665 77.6403 53.6752 77.6403 53.9172V55.695C77.6403 55.937 77.7241 56.1457 77.9001 56.3209C78.0761 56.4962 78.2855 56.5797 78.5369 56.5797H78.6291C78.8721 56.5797 79.0815 56.4962 79.2491 56.3209C79.4167 56.1457 79.5089 55.937 79.5089 55.695V53.9172Z" fill="white"/>
<path d="M84.3603 53.0241C84.3603 53.1326 84.3184 53.2244 84.243 53.2912C84.1676 53.358 84.0754 53.3914 83.9749 53.3914C83.8576 53.3914 83.7487 53.3413 83.6565 53.2495C83.6146 53.2078 83.5559 53.1577 83.4805 53.1076C83.4051 53.0575 83.3046 53.0325 83.1705 53.0325C83.0113 53.0325 82.8856 53.0492 82.7934 53.0909C82.7013 53.1326 82.6342 53.1827 82.584 53.2495C82.5337 53.3163 82.5002 53.3914 82.4918 53.4748C82.475 53.5583 82.475 53.6418 82.475 53.7252V56.9469C82.475 57.0888 82.4331 57.1889 82.3494 57.2557C82.2656 57.3225 82.1734 57.3559 82.0812 57.3559C81.9891 57.3559 81.8969 57.3225 81.8131 57.2557C81.7293 57.1889 81.6874 57.0888 81.6874 56.9469V52.6402C81.6874 52.515 81.7293 52.4232 81.8215 52.3481C81.9053 52.2813 81.9974 52.2479 82.098 52.2479C82.165 52.2479 82.232 52.2646 82.2991 52.298C82.3661 52.3314 82.408 52.3815 82.4415 52.4566C82.5002 52.4149 82.584 52.3731 82.6929 52.323C82.8018 52.273 82.9694 52.2479 83.1956 52.2479C83.3967 52.2479 83.5978 52.2897 83.7906 52.3648C83.9917 52.4482 84.1509 52.5734 84.2765 52.7571C84.3352 52.8572 84.3687 52.9407 84.3687 53.0241H84.3603Z" fill="white"/>
<path d="M88.6839 54.7685C88.6839 54.8687 88.642 54.9605 88.5666 55.044C88.4912 55.1274 88.3991 55.1608 88.2901 55.1608H86.0194V55.6866C86.0194 55.9287 86.1032 56.1373 86.2792 56.3126C86.4551 56.4879 86.6646 56.5713 86.9076 56.5713H87.0081C87.2092 56.5713 87.3768 56.5213 87.5109 56.4127C87.6449 56.3042 87.7455 56.1874 87.8209 56.0372C87.8544 55.9454 87.9047 55.8869 87.9633 55.8452C88.022 55.8118 88.089 55.7868 88.1644 55.7868C88.265 55.7868 88.3655 55.8202 88.4409 55.9036C88.5247 55.9787 88.5666 56.0789 88.5666 56.1957C88.5666 56.2625 88.5499 56.3209 88.5247 56.371C88.3991 56.6631 88.2063 56.8968 87.9382 57.0721C87.6701 57.2557 87.36 57.3392 87.0081 57.3392H86.9076C86.6813 57.3392 86.4635 57.2975 86.254 57.2057C86.0529 57.1222 85.8686 57.0053 85.7178 56.8551C85.5669 56.7049 85.4496 56.5296 85.3575 56.3293C85.2653 56.129 85.2234 55.912 85.2234 55.6783V53.9005C85.2234 53.6752 85.2653 53.4582 85.3575 53.2495C85.4496 53.0408 85.5669 52.8656 85.7178 52.7153C85.8686 52.5651 86.0529 52.4483 86.254 52.3564C86.4551 52.273 86.673 52.2229 86.9076 52.2229H87.0081C87.2344 52.2229 87.4522 52.2646 87.6617 52.3481C87.8628 52.4316 88.0471 52.5484 88.198 52.6986C88.3488 52.8489 88.4745 53.0241 88.5583 53.2328C88.642 53.4415 88.6923 53.6585 88.6923 53.9005V54.7518L88.6839 54.7685ZM87.8963 53.9172C87.8963 53.6585 87.8041 53.4498 87.6282 53.2829C87.4522 53.116 87.2511 53.0325 87.0165 53.0325H86.916C86.673 53.0325 86.4635 53.116 86.2875 53.2829C86.1116 53.4498 86.0194 53.6585 86.0194 53.9089V54.4263H87.8879V53.9172H87.8963Z" fill="white"/>
<path d="M23.5954 20.4067C23.5954 21.5168 23.277 22.3932 22.6318 23.0191C21.9866 23.6451 21.0817 23.9623 19.917 23.9623H19.7411C19.2383 23.9623 18.7607 23.8872 18.3082 23.7453C17.8558 23.6034 17.4452 23.378 17.0933 23.0776C16.7414 22.7771 16.4565 22.4099 16.247 21.9675C16.0375 21.5251 15.9286 21.016 15.9286 20.4401C15.9286 20.1981 16.004 20.0145 16.1632 19.906C16.314 19.7891 16.4816 19.7307 16.6659 19.7307C16.8503 19.7307 17.0095 19.7891 17.1687 19.906C17.3279 20.0228 17.4033 20.2064 17.4033 20.4652C17.4033 20.8074 17.4703 21.1078 17.596 21.3666C17.7217 21.6253 17.8977 21.834 18.1155 22.0092C18.3334 22.1845 18.5848 22.3097 18.878 22.4015C19.1713 22.4933 19.4646 22.5351 19.7746 22.5351H19.9673C20.7382 22.5351 21.2912 22.3514 21.6347 21.9842C21.9783 21.617 22.1458 21.0911 22.1458 20.3984C22.1458 20.0061 22.0788 19.6723 21.9531 19.4135C21.8274 19.1548 21.6515 18.9211 21.442 18.7208C21.2325 18.5205 20.9895 18.3452 20.713 18.2033C20.4365 18.0531 20.1516 17.9028 19.8584 17.7359C19.3975 17.4772 18.945 17.2435 18.501 17.0265C18.0569 16.8095 17.6631 16.5591 17.3028 16.2837C16.9508 16.0082 16.6659 15.6744 16.4565 15.2821C16.247 14.8898 16.1381 14.389 16.1381 13.7714C16.1381 13.3124 16.2302 12.8784 16.4146 12.4777C16.5989 12.0771 16.8587 11.7266 17.1854 11.4345C17.5122 11.1423 17.8977 10.9086 18.3418 10.7417C18.7858 10.5748 19.2551 10.4913 19.7578 10.4913H19.9505C20.4114 10.4913 20.8555 10.5664 21.2828 10.725C21.7101 10.8752 22.0788 11.0923 22.3972 11.3677C22.7156 11.6431 22.9754 11.9686 23.1681 12.3442C23.3608 12.7198 23.453 13.1288 23.453 13.5628C23.453 13.8048 23.3859 13.9884 23.2435 14.0969C23.1011 14.2138 22.9419 14.2722 22.7575 14.2722C22.5732 14.2722 22.414 14.2138 22.2548 14.0969C22.104 13.9801 22.0118 13.8132 21.9866 13.5795C21.9364 13.1037 21.7269 12.7198 21.3498 12.411C20.9728 12.1022 20.4952 11.9519 19.9003 11.9519H19.7243C19.3221 11.9519 18.9953 12.0187 18.7188 12.1439C18.4507 12.2691 18.2328 12.4277 18.0652 12.6113C17.8977 12.7949 17.7804 12.9952 17.7049 13.2039C17.6295 13.4125 17.596 13.6045 17.596 13.7714C17.596 14.1136 17.6631 14.4141 17.7971 14.6561C17.9312 14.8982 18.1071 15.1068 18.3166 15.2821C18.5261 15.4574 18.7691 15.6076 19.0372 15.7412C19.3053 15.8747 19.5735 16.0166 19.8248 16.1501C20.3025 16.4089 20.7633 16.6509 21.2242 16.8762C21.6766 17.1099 22.0788 17.377 22.4307 17.6858C22.7743 17.9947 23.0592 18.3619 23.2686 18.7876C23.4781 19.2132 23.587 19.7557 23.587 20.4067H23.5954Z" fill="#99B544"/>
<path d="M32.1923 19.1715C32.1923 19.3634 32.1253 19.5304 31.9829 19.6806C31.8404 19.8308 31.6645 19.8976 31.4634 19.8976H27.2655V20.8741C27.2655 21.3248 27.4247 21.7088 27.7514 22.0259C28.0698 22.3431 28.4553 22.51 28.9077 22.51H29.1005C29.4691 22.51 29.7875 22.4099 30.0389 22.2179C30.2903 22.0259 30.483 21.7922 30.6087 21.5251C30.6757 21.3582 30.7595 21.2414 30.8768 21.1746C30.9941 21.1078 31.1114 21.0661 31.2455 21.0661C31.4382 21.0661 31.6142 21.1329 31.765 21.2748C31.9158 21.4166 31.9996 21.5919 31.9996 21.8089C31.9996 21.9341 31.9745 22.0426 31.9242 22.1344C31.6896 22.6686 31.3293 23.1109 30.8349 23.4364C30.3406 23.7703 29.7624 23.9372 29.1088 23.9372H28.9161C28.4888 23.9372 28.0866 23.8538 27.7095 23.6952C27.3325 23.5366 26.9973 23.3196 26.7208 23.0442C26.4443 22.7687 26.2181 22.4432 26.0589 22.076C25.8997 21.7088 25.8159 21.2998 25.8159 20.8658V17.5606C25.8159 17.135 25.8997 16.7344 26.0589 16.3588C26.2181 15.9832 26.4443 15.6493 26.7208 15.3739C26.9973 15.0985 27.3325 14.8731 27.7095 14.7145C28.0866 14.556 28.4888 14.4725 28.9161 14.4725H29.1088C29.5362 14.4725 29.93 14.5476 30.3154 14.7062C30.6925 14.8564 31.0276 15.0818 31.3042 15.3572C31.589 15.641 31.8069 15.9665 31.9661 16.3421C32.1253 16.7177 32.2091 17.135 32.2091 17.5773V19.1548L32.1923 19.1715ZM30.726 17.594C30.726 17.1183 30.5584 16.726 30.2316 16.4172C29.9049 16.1084 29.5278 15.9498 29.1005 15.9498H28.9077C28.4553 15.9498 28.0698 16.1084 27.7431 16.4172C27.4163 16.7344 27.2487 17.1183 27.2487 17.5773V18.5372H30.7176V17.594H30.726Z" fill="#99B544"/>
<path d="M38.1415 23.2445C38.1415 23.4198 38.0828 23.5867 37.9655 23.7369C37.8482 23.8872 37.6639 23.9539 37.4041 23.9539C37.0606 23.9539 36.7338 23.8872 36.4238 23.762C36.1137 23.6368 35.8456 23.4531 35.611 23.2278C35.3764 23.0024 35.2004 22.727 35.0747 22.4182C34.9491 22.1094 34.882 21.7839 34.882 21.4417V11.2091C34.882 10.9671 34.9574 10.7834 35.1166 10.6582C35.2675 10.533 35.435 10.4746 35.6194 10.4746C35.8037 10.4746 35.9629 10.533 36.1221 10.6582C36.2729 10.7834 36.3567 10.9587 36.3567 11.2091V21.4417C36.3567 21.7338 36.4573 21.9842 36.6668 22.1929C36.8762 22.4015 37.1192 22.51 37.4209 22.5184C37.6806 22.5184 37.865 22.5935 37.9823 22.7521C38.0996 22.9023 38.1582 23.0692 38.1582 23.2528L38.1415 23.2445Z" fill="#99B544"/>
<path d="M46.5457 20.8825C46.5457 21.3165 46.4619 21.7171 46.3027 22.0927C46.1435 22.4683 45.9172 22.7854 45.6407 23.0609C45.3558 23.3363 45.029 23.5533 44.652 23.7119C44.2749 23.8705 43.8727 23.9539 43.4454 23.9539H43.2527C42.8254 23.9539 42.4232 23.8705 42.0461 23.7119C41.669 23.5533 41.3339 23.3363 41.0574 23.0609C40.7809 22.7854 40.5546 22.4599 40.3954 22.0927C40.2362 21.7255 40.1524 21.3165 40.1524 20.8825V17.5773C40.1524 17.1517 40.2362 16.751 40.3954 16.3755C40.5546 15.9999 40.7809 15.666 41.0574 15.3906C41.3339 15.1152 41.669 14.8898 42.0461 14.7312C42.4232 14.5727 42.8254 14.4892 43.2527 14.4892H43.4454C43.8727 14.4892 44.2666 14.5727 44.652 14.7312C45.029 14.8898 45.3642 15.1152 45.6407 15.3906C45.9256 15.6744 46.1435 15.9999 46.3027 16.3755C46.4619 16.751 46.5457 17.1517 46.5457 17.5773V20.8825ZM45.0793 17.5773C45.0793 17.1266 44.9201 16.7427 44.5933 16.4255C44.2666 16.1084 43.8895 15.9415 43.437 15.9415H43.2443C42.7918 15.9415 42.4064 16.1 42.088 16.4255C41.7696 16.7427 41.602 17.1266 41.602 17.5773V20.8825C41.602 21.3332 41.7612 21.7171 42.088 22.0343C42.4064 22.3514 42.8002 22.5184 43.2611 22.5184H43.437C43.8895 22.5184 44.2749 22.3598 44.5933 22.0343C44.9117 21.7171 45.0793 21.3332 45.0793 20.8825V17.5773Z" fill="#99B544"/>
<path d="M55.4526 23.2445C55.4526 23.4782 55.3772 23.6535 55.218 23.7703C55.0588 23.8871 54.8996 23.9539 54.7153 23.9539C54.5477 23.9539 54.3968 23.9122 54.2544 23.8204C54.112 23.7286 54.0198 23.5867 53.9863 23.3947C53.8103 23.57 53.5673 23.7119 53.2741 23.8037C52.9808 23.9038 52.6624 23.9456 52.3272 23.9456H52.1513C51.7407 23.9456 51.3469 23.8871 50.9698 23.762C50.5928 23.6368 50.2576 23.4531 49.9811 23.2027C49.6962 22.9524 49.47 22.6352 49.3108 22.2513C49.1432 21.8673 49.0594 21.4083 49.0594 20.8658V15.1986C49.0594 14.9566 49.1348 14.773 49.294 14.6478C49.4532 14.5226 49.6124 14.4642 49.7967 14.4642C49.9811 14.4642 50.1403 14.5226 50.2995 14.6478C50.4503 14.773 50.5341 14.9482 50.5341 15.1986V20.8658C50.5341 21.3165 50.6933 21.7004 51.0201 22.0176C51.3469 22.3347 51.7239 22.5017 52.1764 22.5017H52.3524C52.8132 22.5017 53.207 22.3431 53.5254 22.0176C53.8438 21.7004 54.0114 21.3165 54.0114 20.8658V15.1986C54.0114 14.9566 54.0868 14.773 54.246 14.6478C54.3968 14.5226 54.5644 14.4642 54.7488 14.4642C54.9331 14.4642 55.0923 14.5226 55.2515 14.6478C55.4107 14.773 55.4861 14.9482 55.4861 15.1986V23.2194L55.4526 23.2445Z" fill="#99B544"/>
<path d="M64.5271 21.2664C64.5271 21.7171 64.4266 22.101 64.2422 22.4349C64.0495 22.7687 63.7897 23.0442 63.4713 23.2695C63.1529 23.4949 62.7926 23.6618 62.3904 23.7786C61.9882 23.8955 61.5944 23.9539 61.1922 23.9539H61.0749C60.7649 23.9539 60.4465 23.9122 60.1197 23.8287C59.7929 23.7453 59.4829 23.6201 59.1813 23.4531C58.8796 23.2862 58.6199 23.0859 58.3685 22.8522C58.1255 22.6185 57.9244 22.3514 57.7736 22.051C57.7065 21.9007 57.673 21.7755 57.673 21.6837C57.673 21.4667 57.7484 21.2914 57.9076 21.1662C58.0585 21.0411 58.2344 20.9743 58.4272 20.9743C58.5445 20.9743 58.6618 20.9993 58.7707 21.0411C58.888 21.0828 58.9885 21.1746 59.0807 21.2998C59.3237 21.617 59.6337 21.9007 60.0024 22.1428C60.3711 22.3848 60.7398 22.51 61.1001 22.51H61.2006C61.7955 22.51 62.248 22.3765 62.558 22.1094C62.8681 21.8423 63.0356 21.5502 63.0524 21.2247C63.0608 20.799 62.9518 20.4819 62.7088 20.2732C62.4659 20.0645 62.1558 19.8976 61.7871 19.7808C61.4185 19.6639 61.0079 19.5638 60.5722 19.4803C60.1365 19.3968 59.7343 19.2716 59.3572 19.0964C58.9802 18.9211 58.6701 18.6707 58.4188 18.3368C58.1674 18.003 58.0417 17.5356 58.0417 16.9347C58.0417 16.4756 58.1506 16.0833 58.3685 15.7745C58.5864 15.4657 58.8545 15.207 59.1645 15.015C59.4829 14.823 59.8181 14.6895 60.1868 14.606C60.5554 14.5226 60.8906 14.4809 61.2006 14.4809H61.276C61.6112 14.4809 61.9128 14.5142 62.1893 14.581C62.4659 14.6478 62.7088 14.7229 62.9183 14.798C63.1278 14.8815 63.3121 14.9733 63.4546 15.0651C63.6054 15.1652 63.7143 15.2404 63.7897 15.3071C63.9657 15.449 64.0579 15.6326 64.0579 15.8663C64.0579 16.0416 63.9908 16.2085 63.8652 16.3421C63.7395 16.484 63.5719 16.5507 63.3624 16.5507C63.2367 16.5507 63.0943 16.509 62.9351 16.4339L62.2648 16.1084C62.0218 15.9832 61.6782 15.9164 61.2425 15.9164H61.1671C60.6308 15.9164 60.2203 16.0166 59.9354 16.2252C59.6505 16.4339 59.508 16.6759 59.4913 16.9514C59.4745 17.2936 59.5918 17.5523 59.8348 17.7192C60.0778 17.8861 60.3878 18.0197 60.7565 18.1198C61.1252 18.22 61.5274 18.3202 61.9631 18.4036C62.3904 18.4954 62.801 18.6373 63.1781 18.8376C63.5551 19.0379 63.8735 19.3134 64.1249 19.6723C64.3763 20.0311 64.502 20.5319 64.502 21.1662V21.2414L64.5271 21.2664Z" fill="#99B544"/>
<path d="M81.0003 20.3234C81.0003 20.8325 80.8998 21.3082 80.7071 21.7506C80.5143 22.193 80.2546 22.5769 79.9278 22.9024C79.601 23.2279 79.2072 23.4866 78.7631 23.6703C78.3107 23.8539 77.8414 23.9457 77.3387 23.9457H77.146C76.6432 23.9457 76.1656 23.8539 75.7215 23.6703C75.2691 23.4866 74.8836 23.2279 74.5568 22.9024C74.2301 22.5769 73.9703 22.193 73.7776 21.7506C73.5849 21.3082 73.4843 20.8325 73.4843 20.3234V14.1221C73.4843 13.6129 73.5849 13.1372 73.7776 12.6949C73.9703 12.2525 74.2301 11.8686 74.5568 11.5431C74.8836 11.2176 75.2691 10.9588 75.7215 10.7669C76.174 10.5749 76.6432 10.4831 77.146 10.4831H77.3387C77.7995 10.4831 78.2436 10.5665 78.6626 10.7251C79.0815 10.8837 79.4502 11.1007 79.777 11.3761C80.1038 11.6516 80.3719 11.9771 80.5898 12.361C80.8076 12.7449 80.9417 13.1622 81.0087 13.6046V13.7214C81.0087 13.9551 80.9333 14.1304 80.7741 14.2473C80.6233 14.3725 80.4557 14.4309 80.2714 14.4309C80.1038 14.4309 79.9529 14.3808 79.8105 14.289C79.6681 14.1888 79.5759 14.0386 79.5424 13.8216C79.4418 13.2874 79.2072 12.8367 78.8385 12.4778C78.4699 12.119 77.9755 11.9437 77.3471 11.9437H77.1543C76.8443 11.9437 76.5594 12.0021 76.2997 12.119C76.0399 12.2358 75.8053 12.3944 75.6042 12.5863C75.4031 12.7867 75.2523 13.012 75.135 13.2791C75.0177 13.5378 74.959 13.8216 74.959 14.1137V20.3317C74.959 20.6405 75.0177 20.9243 75.135 21.1831C75.2523 21.4418 75.4115 21.6755 75.6042 21.8758C75.8053 22.0761 76.0315 22.2263 76.2997 22.3432C76.5594 22.46 76.8527 22.5185 77.1543 22.5185H77.3471C77.6571 22.5185 77.942 22.46 78.2017 22.3432C78.4615 22.2263 78.6961 22.0678 78.8972 21.8758C79.0983 21.6755 79.2491 21.4501 79.3664 21.1831C79.4837 20.9243 79.5424 20.6322 79.5424 20.3317V18.0866H77.5146C77.2717 18.0866 77.0873 18.0115 76.9616 17.8529C76.8359 17.7026 76.7773 17.5357 76.7773 17.3521C76.7773 17.1685 76.8359 17.0099 76.9616 16.8513C77.0873 16.7011 77.2633 16.6176 77.5146 16.6176H80.2714C80.4641 16.6176 80.6317 16.6927 80.7825 16.8346C80.9333 16.9849 81.0003 17.1518 81.0003 17.3438V20.3234Z" fill="#99B544"/>
<path d="M90.9295 23.2278C90.9295 23.4198 90.8709 23.5867 90.7452 23.7369C90.6195 23.8871 90.4435 23.9539 90.2173 23.9539C90.1419 23.9539 90.0916 23.9539 90.0832 23.9372C89.7481 23.8871 89.4799 23.7953 89.2705 23.6701C89.061 23.545 88.9018 23.3864 88.7677 23.2111C88.1896 23.7119 87.4941 23.9623 86.6897 23.9623H86.5138C86.1283 23.9623 85.7513 23.9038 85.3742 23.787C84.9972 23.6701 84.6704 23.5032 84.3855 23.2695C84.1006 23.0358 83.866 22.7521 83.6816 22.4015C83.4973 22.051 83.4135 21.6587 83.4135 21.208V20.9743C83.4135 20.4735 83.5224 20.0645 83.7403 19.739C83.9582 19.4135 84.2347 19.1464 84.5698 18.9545C84.905 18.7542 85.2653 18.6039 85.6675 18.5038C86.0697 18.4036 86.4467 18.3202 86.807 18.2534C87.1673 18.1866 87.4857 18.1282 87.7622 18.0698C88.0387 18.0113 88.2147 17.9362 88.2901 17.8277C88.3153 17.786 88.332 17.7359 88.3404 17.6775C88.3404 17.6107 88.3488 17.5523 88.3488 17.5022C88.3488 16.9263 88.198 16.5257 87.8879 16.292C87.5779 16.0583 87.2092 15.9498 86.7903 15.9498H86.6562C86.254 15.9498 85.944 16.0333 85.7094 16.1918C85.4748 16.3504 85.2737 16.5925 85.0893 16.9096C85.0139 17.0515 84.9134 17.1517 84.7961 17.2101C84.6787 17.2685 84.5614 17.2936 84.4274 17.2936C84.2514 17.2936 84.0838 17.2351 83.9246 17.1099C83.7738 16.9847 83.69 16.8262 83.69 16.6175C83.69 16.4756 83.7152 16.3588 83.7654 16.2753C83.9163 15.9331 84.109 15.641 84.3352 15.4073C84.5614 15.1736 84.8044 14.9983 85.0558 14.8564C85.3072 14.7145 85.5753 14.6227 85.8434 14.5727C86.1116 14.5142 86.3797 14.4892 86.6311 14.4892H86.7651C87.1925 14.4892 87.5863 14.5643 87.9633 14.7229C88.3404 14.8731 88.6588 15.0901 88.9269 15.3572C89.1951 15.6243 89.4129 15.9415 89.5637 16.3003C89.7146 16.6592 89.7984 17.0432 89.7984 17.4521V21.9091C89.7984 22.268 89.9659 22.4766 90.3011 22.5434C90.5189 22.5851 90.6782 22.6686 90.7703 22.8021C90.8625 22.9357 90.9128 23.0776 90.9128 23.2361L90.9295 23.2278ZM88.3488 19.3718C87.9885 19.4636 87.603 19.5387 87.2008 19.5888C86.7986 19.6472 86.4216 19.7307 86.0697 19.8308C85.7261 19.931 85.4329 20.0812 85.215 20.2648C84.9888 20.4485 84.8798 20.7072 84.8798 21.0244V21.1746C84.8798 21.5836 85.0307 21.9091 85.3323 22.1511C85.634 22.3932 86.0278 22.5184 86.5138 22.5184H86.6897C87.1422 22.5184 87.5276 22.3598 87.8544 22.051C88.1812 21.7338 88.3488 21.3499 88.3488 20.8908V19.3718Z" fill="#99B544"/>
<path d="M104.403 23.2445C104.403 23.4865 104.328 23.6701 104.168 23.7786C104.018 23.8955 103.85 23.9539 103.666 23.9539C103.481 23.9539 103.322 23.8955 103.163 23.7786C103.012 23.6618 102.928 23.4865 102.928 23.2445V17.5606C102.928 17.0265 102.778 16.6175 102.476 16.3504C102.174 16.0833 101.78 15.9498 101.294 15.9498H101.118C100.658 15.9498 100.264 16.1084 99.9454 16.4172C99.627 16.7344 99.4594 17.1266 99.4594 17.594V23.2028C99.4594 23.4615 99.384 23.6451 99.2248 23.7703C99.074 23.8955 98.9064 23.9539 98.722 23.9539C98.5377 23.9539 98.3785 23.8955 98.2193 23.7703C98.0685 23.6451 97.9847 23.4615 97.9847 23.2028V17.594C97.9847 17.1099 97.8255 16.7093 97.4987 16.4005C97.1803 16.0917 96.7865 15.9415 96.3256 15.9415H96.1497C95.714 15.9415 95.3285 16.075 94.9934 16.3421C94.6582 16.6092 94.4906 16.9681 94.4906 17.4188V23.2361C94.4906 23.4782 94.4152 23.6618 94.256 23.7703C94.1052 23.8871 93.9376 23.9456 93.7533 23.9456C93.5689 23.9456 93.4097 23.8871 93.2505 23.7703C93.0913 23.6535 93.0159 23.4782 93.0159 23.2361V15.2153C93.0159 14.9816 93.0913 14.8064 93.2505 14.6812C93.4013 14.556 93.5773 14.4892 93.77 14.4892C93.9208 14.4892 94.0717 14.5393 94.2141 14.6311C94.3565 14.7229 94.4487 14.8731 94.4822 15.0651C94.6582 14.8898 94.9012 14.7479 95.1945 14.6394C95.4877 14.5393 95.8061 14.4892 96.1413 14.4892H96.3172C96.8032 14.4892 97.2557 14.5894 97.6579 14.7897C98.0601 14.99 98.412 15.2571 98.7053 15.5826C98.9985 15.2487 99.3505 14.9816 99.7527 14.7897C100.155 14.5894 100.607 14.4892 101.093 14.4892H101.269C101.68 14.4892 102.074 14.5476 102.442 14.6728C102.819 14.798 103.146 14.9816 103.431 15.232C103.724 15.4824 103.951 15.7996 104.118 16.1918C104.286 16.5841 104.37 17.0432 104.37 17.5606V23.2445H104.403Z" fill="#99B544"/>
<path d="M113.285 19.1715C113.285 19.3634 113.218 19.5304 113.075 19.6806C112.933 19.8308 112.757 19.8976 112.556 19.8976H108.358V20.8741C108.358 21.3248 108.517 21.7088 108.844 22.0259C109.162 22.3431 109.548 22.51 110 22.51H110.193C110.562 22.51 110.88 22.4099 111.131 22.2179C111.383 22.0259 111.576 21.7922 111.701 21.5251C111.768 21.3582 111.852 21.2414 111.969 21.1746C112.087 21.1078 112.204 21.0661 112.338 21.0661C112.531 21.0661 112.707 21.1329 112.858 21.2748C113.008 21.4166 113.092 21.5919 113.092 21.8089C113.092 21.9341 113.067 22.0426 113.017 22.1344C112.782 22.6686 112.422 23.1109 111.927 23.4364C111.433 23.7703 110.855 23.9372 110.201 23.9372H110.009C109.581 23.9372 109.179 23.8538 108.802 23.6952C108.425 23.5366 108.09 23.3196 107.813 23.0442C107.537 22.7687 107.311 22.4432 107.151 22.076C106.992 21.7088 106.908 21.2998 106.908 20.8658V17.5606C106.908 17.135 106.992 16.7344 107.151 16.3588C107.311 15.9832 107.537 15.6493 107.813 15.3739C108.09 15.0985 108.425 14.8731 108.802 14.7145C109.179 14.556 109.581 14.4725 110.009 14.4725H110.201C110.629 14.4725 111.023 14.5476 111.408 14.7062C111.785 14.8564 112.12 15.0818 112.397 15.3572C112.682 15.641 112.899 15.9665 113.059 16.3421C113.218 16.7177 113.302 17.135 113.302 17.5773V19.1548L113.285 19.1715ZM111.819 17.594C111.819 17.1183 111.651 16.726 111.324 16.4172C110.997 16.1084 110.62 15.9498 110.193 15.9498H110C109.548 15.9498 109.162 16.1084 108.836 16.4172C108.509 16.7344 108.341 17.1183 108.341 17.5773V18.5372H111.81V17.594H111.819Z" fill="#99B544"/>
<path d="M130.353 14.4141C130.353 14.8398 130.286 15.2404 130.16 15.616C130.035 15.9915 129.85 16.3337 129.624 16.6426C129.389 16.9514 129.113 17.2185 128.786 17.4355C128.459 17.6608 128.099 17.8277 127.714 17.9446L130.102 22.919C130.152 23.0108 130.177 23.1193 130.177 23.2445C130.177 23.4532 130.11 23.6201 129.968 23.7536C129.825 23.8872 129.641 23.9539 129.406 23.9539C129.289 23.9539 129.172 23.9289 129.063 23.8705C128.945 23.812 128.853 23.7035 128.778 23.5533L126.155 18.0614H124.186V23.2445C124.186 23.4865 124.111 23.6702 123.951 23.7787C123.792 23.8872 123.633 23.9539 123.449 23.9539C123.264 23.9539 123.105 23.8955 122.946 23.7787C122.795 23.6618 122.711 23.4865 122.711 23.2445V11.326C122.711 11.134 122.787 10.9671 122.929 10.8168C123.08 10.6666 123.248 10.5998 123.44 10.5998H126.675C127.177 10.5998 127.655 10.7 128.099 10.8836C128.551 11.0756 128.937 11.3343 129.264 11.6598C129.59 11.9853 129.85 12.3692 130.043 12.8199C130.236 13.2706 130.328 13.738 130.328 14.2388V14.4141H130.353ZM128.887 14.2388C128.887 13.93 128.828 13.6462 128.711 13.3875C128.593 13.1288 128.434 12.8951 128.241 12.6947C128.04 12.4944 127.814 12.3359 127.546 12.2274C127.286 12.1105 126.993 12.0521 126.691 12.0521H124.186V16.6008H126.767C127.077 16.6008 127.362 16.5424 127.613 16.4256C127.873 16.3087 128.091 16.1501 128.275 15.9582C128.459 15.7578 128.61 15.5325 128.719 15.2654C128.828 14.9983 128.887 14.7146 128.887 14.4141V14.2388Z" fill="#99B544"/>
<path d="M138.95 19.1715C138.95 19.3634 138.883 19.5304 138.74 19.6806C138.598 19.8308 138.422 19.8976 138.221 19.8976H134.023V20.8741C134.023 21.3248 134.182 21.7088 134.509 22.0259C134.827 22.3431 135.213 22.51 135.665 22.51H135.858C136.227 22.51 136.545 22.4099 136.796 22.2179C137.048 22.0259 137.241 21.7922 137.366 21.5251C137.433 21.3582 137.517 21.2414 137.634 21.1746C137.752 21.1078 137.869 21.0661 138.003 21.0661C138.196 21.0661 138.372 21.1329 138.523 21.2748C138.673 21.4166 138.757 21.5919 138.757 21.8089C138.757 21.9341 138.732 22.0426 138.682 22.1344C138.447 22.6686 138.087 23.1109 137.592 23.4364C137.098 23.7703 136.52 23.9372 135.866 23.9372H135.674C135.246 23.9372 134.844 23.8538 134.467 23.6952C134.09 23.5366 133.755 23.3196 133.478 23.0442C133.202 22.7687 132.976 22.4432 132.816 22.076C132.657 21.7088 132.573 21.2998 132.573 20.8658V17.5606C132.573 17.135 132.657 16.7344 132.816 16.3588C132.976 15.9832 133.202 15.6493 133.478 15.3739C133.755 15.0985 134.09 14.8731 134.467 14.7145C134.844 14.556 135.246 14.4725 135.674 14.4725H135.866C136.294 14.4725 136.688 14.5476 137.073 14.7062C137.45 14.8564 137.785 15.0818 138.062 15.3572C138.347 15.641 138.564 15.9665 138.724 16.3421C138.883 16.7177 138.967 17.135 138.967 17.5773V19.1548L138.95 19.1715ZM137.484 17.594C137.484 17.1183 137.316 16.726 136.989 16.4172C136.662 16.1084 136.285 15.9498 135.858 15.9498H135.665C135.213 15.9498 134.827 16.1084 134.501 16.4172C134.174 16.7344 134.006 17.1183 134.006 17.5773V18.5372H137.475V17.594H137.484Z" fill="#99B544"/>
<path d="M147.723 21.2664C147.723 21.7171 147.622 22.101 147.438 22.4349C147.245 22.7687 146.985 23.0442 146.667 23.2695C146.349 23.4949 145.988 23.6618 145.586 23.7786C145.184 23.8955 144.79 23.9539 144.388 23.9539H144.271C143.961 23.9539 143.642 23.9122 143.315 23.8287C142.989 23.7453 142.679 23.6201 142.377 23.4531C142.075 23.2862 141.816 23.0859 141.564 22.8522C141.321 22.6185 141.12 22.3514 140.969 22.051C140.902 21.9007 140.869 21.7755 140.869 21.6837C140.869 21.4667 140.944 21.2914 141.103 21.1662C141.254 21.0411 141.43 20.9743 141.623 20.9743C141.74 20.9743 141.857 20.9993 141.966 21.0411C142.084 21.0828 142.184 21.1746 142.276 21.2998C142.519 21.617 142.829 21.9007 143.198 22.1428C143.567 22.3848 143.935 22.51 144.296 22.51H144.396C144.991 22.51 145.444 22.3765 145.754 22.1094C146.064 21.8423 146.231 21.5502 146.248 21.2247C146.256 20.799 146.148 20.4819 145.905 20.2732C145.662 20.0645 145.352 19.8976 144.983 19.7808C144.614 19.6639 144.204 19.5638 143.768 19.4803C143.332 19.3968 142.93 19.2716 142.553 19.0964C142.176 18.9211 141.866 18.6707 141.614 18.3368C141.363 18.003 141.237 17.5356 141.237 16.9347C141.237 16.4756 141.346 16.0833 141.564 15.7745C141.782 15.4657 142.05 15.207 142.36 15.015C142.679 14.823 143.014 14.6895 143.382 14.606C143.751 14.5226 144.086 14.4809 144.396 14.4809H144.472C144.807 14.4809 145.109 14.5142 145.385 14.581C145.662 14.6478 145.905 14.7229 146.114 14.798C146.323 14.8815 146.508 14.9733 146.65 15.0651C146.801 15.1652 146.91 15.2404 146.985 15.3071C147.161 15.449 147.254 15.6326 147.254 15.8663C147.254 16.0416 147.187 16.2085 147.061 16.3421C146.935 16.484 146.768 16.5507 146.558 16.5507C146.432 16.5507 146.29 16.509 146.131 16.4339L145.46 16.1084C145.217 15.9832 144.874 15.9164 144.438 15.9164H144.363C143.827 15.9164 143.416 16.0166 143.131 16.2252C142.846 16.4339 142.704 16.6759 142.687 16.9514C142.67 17.2936 142.788 17.5523 143.031 17.7192C143.274 17.8861 143.584 18.0197 143.952 18.1198C144.321 18.22 144.723 18.3202 145.159 18.4036C145.586 18.4954 145.997 18.6373 146.374 18.8376C146.751 19.0379 147.069 19.3134 147.321 19.6723C147.572 20.0311 147.698 20.5319 147.698 21.1662V21.2414L147.723 21.2664Z" fill="#99B544"/>
<path d="M156.219 19.1715C156.219 19.3634 156.152 19.5304 156.01 19.6806C155.867 19.8308 155.691 19.8976 155.49 19.8976H151.292V20.8741C151.292 21.3248 151.451 21.7088 151.778 22.0259C152.097 22.3431 152.482 22.51 152.935 22.51H153.127C153.496 22.51 153.814 22.4099 154.066 22.2179C154.317 22.0259 154.51 21.7922 154.636 21.5251C154.703 21.3582 154.786 21.2414 154.904 21.1746C155.021 21.1078 155.138 21.0661 155.272 21.0661C155.465 21.0661 155.641 21.1329 155.792 21.2748C155.943 21.4166 156.026 21.5919 156.026 21.8089C156.026 21.9341 156.001 22.0426 155.951 22.1344C155.716 22.6686 155.356 23.1109 154.862 23.4364C154.367 23.7703 153.789 23.9372 153.136 23.9372H152.943C152.516 23.9372 152.113 23.8538 151.736 23.6952C151.359 23.5366 151.024 23.3196 150.748 23.0442C150.471 22.7687 150.245 22.4432 150.086 22.076C149.926 21.7088 149.843 21.2998 149.843 20.8658V17.5606C149.843 17.135 149.926 16.7344 150.086 16.3588C150.245 15.9832 150.471 15.6493 150.748 15.3739C151.024 15.0985 151.359 14.8731 151.736 14.7145C152.113 14.556 152.516 14.4725 152.943 14.4725H153.136C153.563 14.4725 153.957 14.5476 154.342 14.7062C154.719 14.8564 155.054 15.0818 155.331 15.3572C155.616 15.641 155.834 15.9665 155.993 16.3421C156.152 16.7177 156.236 17.135 156.236 17.5773V19.1548L156.219 19.1715ZM154.753 17.594C154.753 17.1183 154.585 16.726 154.258 16.4172C153.932 16.1084 153.555 15.9498 153.127 15.9498H152.935C152.482 15.9498 152.097 16.1084 151.77 16.4172C151.443 16.7344 151.275 17.1183 151.275 17.5773V18.5372H154.744V17.594H154.753Z" fill="#99B544"/>
<path d="M163.584 15.9331C163.584 16.1418 163.517 16.3087 163.375 16.4339C163.232 16.5591 163.065 16.6259 162.872 16.6259C162.654 16.6259 162.453 16.534 162.277 16.3588C162.202 16.2837 162.093 16.1918 161.959 16.1C161.825 16.0082 161.632 15.9582 161.389 15.9582C161.096 15.9582 160.861 15.9999 160.694 16.075C160.526 16.1501 160.4 16.2503 160.308 16.3755C160.216 16.5007 160.157 16.6342 160.132 16.7928C160.107 16.943 160.09 17.1016 160.09 17.2518V23.2194C160.09 23.4782 160.015 23.6618 159.856 23.787C159.696 23.9122 159.537 23.9706 159.353 23.9706C159.169 23.9706 159.009 23.9122 158.85 23.787C158.699 23.6618 158.616 23.4782 158.616 23.2194V15.232C158.616 14.9983 158.699 14.8231 158.859 14.6979C159.018 14.5727 159.185 14.5059 159.37 14.5059C159.495 14.5059 159.621 14.5309 159.738 14.5894C159.856 14.6478 159.948 14.7479 160.006 14.8898C160.107 14.8147 160.266 14.7312 160.467 14.6394C160.677 14.5476 160.978 14.5059 161.389 14.5059C161.758 14.5059 162.135 14.581 162.495 14.7229C162.864 14.8731 163.157 15.1068 163.392 15.4407C163.509 15.616 163.568 15.7829 163.568 15.9415L163.584 15.9331Z" fill="#99B544"/>
<path d="M171.653 15.1986C171.653 15.2904 171.637 15.3739 171.595 15.449L168.972 23.4698C168.905 23.6368 168.804 23.7536 168.662 23.8371C168.52 23.9122 168.394 23.9539 168.277 23.9539H168.101C167.975 23.9539 167.841 23.9205 167.698 23.8454C167.556 23.7786 167.455 23.6535 167.388 23.4698L164.766 15.449C164.741 15.3238 164.724 15.2404 164.724 15.1986C164.724 15.0067 164.791 14.8397 164.933 14.6979C165.076 14.556 165.252 14.4892 165.47 14.4892C165.612 14.4892 165.746 14.5309 165.863 14.606C165.981 14.6812 166.081 14.8147 166.14 14.99L168.168 21.1746L170.195 14.99C170.262 14.8147 170.355 14.6812 170.472 14.606C170.589 14.5309 170.723 14.4892 170.866 14.4892C171.084 14.4892 171.268 14.556 171.419 14.6979C171.57 14.8397 171.637 15.0067 171.637 15.1986H171.653Z" fill="#99B544"/>
<path d="M180.058 19.1715C180.058 19.3634 179.991 19.5304 179.848 19.6806C179.706 19.8308 179.53 19.8976 179.329 19.8976H175.131V20.8741C175.131 21.3248 175.29 21.7088 175.617 22.0259C175.935 22.3431 176.32 22.51 176.773 22.51H176.966C177.334 22.51 177.653 22.4099 177.904 22.2179C178.156 22.0259 178.348 21.7922 178.474 21.5251C178.541 21.3582 178.625 21.2414 178.742 21.1746C178.859 21.1078 178.977 21.0661 179.111 21.0661C179.303 21.0661 179.479 21.1329 179.63 21.2748C179.781 21.4166 179.865 21.5919 179.865 21.8089C179.865 21.9341 179.84 22.0426 179.789 22.1344C179.555 22.6686 179.195 23.1109 178.7 23.4364C178.206 23.7703 177.628 23.9372 176.974 23.9372H176.781C176.354 23.9372 175.952 23.8538 175.575 23.6952C175.198 23.5366 174.863 23.3196 174.586 23.0442C174.31 22.7687 174.083 22.4432 173.924 22.076C173.765 21.7088 173.681 21.2998 173.681 20.8658V17.5606C173.681 17.135 173.765 16.7344 173.924 16.3588C174.083 15.9832 174.31 15.6493 174.586 15.3739C174.863 15.0985 175.198 14.8731 175.575 14.7145C175.952 14.556 176.354 14.4725 176.781 14.4725H176.974C177.401 14.4725 177.795 14.5476 178.181 14.7062C178.558 14.8564 178.893 15.0818 179.169 15.3572C179.454 15.641 179.672 15.9665 179.831 16.3421C179.991 16.7177 180.074 17.135 180.074 17.5773V19.1548L180.058 19.1715ZM178.591 17.594C178.591 17.1183 178.424 16.726 178.097 16.4172C177.77 16.1084 177.393 15.9498 176.966 15.9498H176.773C176.32 15.9498 175.935 16.1084 175.608 16.4172C175.281 16.7344 175.114 17.1183 175.114 17.5773V18.5372H178.583V17.594H178.591Z" fill="#99B544"/>
</g>
<defs>
<clipPath id="clip0_60_86098">
<rect width="197" height="75" fill="white"/>
</clipPath>
</defs>
</svg>
