<svg width="255" height="152" viewBox="0 0 255 152" fill="none" xmlns="http://www.w3.org/2000/svg">
<path d="M53.5 106C82.4949 106 106 82.495 106 53.5C106 24.5051 82.4949 1 53.5 1C24.5051 1 1 24.5051 1 53.5C1 82.495 24.5051 106 53.5 106Z" stroke="#F3A021" stroke-width="1.17"/>
<path d="M53.5 101C79.6895 101 101 79.6895 101 53.5C101 27.3105 79.6895 6 53.5 6C27.3105 6 6 27.3105 6 53.5C6 79.6895 27.3105 101 53.5 101Z" stroke="#F3A021" stroke-width="1.17"/>
<path d="M158 134C178.435 134 195 117.211 195 96.5C195 75.7893 178.435 59 158 59C137.565 59 121 75.7893 121 96.5C121 117.211 137.565 134 158 134Z" stroke="#F3A021" stroke-width="4"/>
<path d="M255 84H179V111H255V84Z" fill="white"/>
<path d="M190.986 101.872C190.986 102.059 190.926 102.2 190.807 102.29C190.687 102.379 190.561 102.424 190.419 102.424C190.278 102.424 190.151 102.379 190.032 102.29C189.912 102.2 189.853 102.059 189.853 101.872V94.6054L187.892 99.1072C187.833 99.2488 187.743 99.3457 187.632 99.4053C187.52 99.465 187.393 99.4948 187.266 99.4948C186.961 99.4948 186.745 99.3681 186.625 99.1072L184.606 94.6054V101.872C184.606 102.059 184.546 102.2 184.427 102.29C184.307 102.379 184.181 102.424 184.039 102.424C183.897 102.424 183.771 102.379 183.651 102.29C183.532 102.2 183.473 102.059 183.473 101.872V92.6377C183.473 92.4365 183.517 92.2799 183.614 92.1607C183.711 92.0414 183.883 91.9818 184.143 91.9818H184.188C184.389 91.9818 184.538 92.0265 184.635 92.116C184.732 92.2054 184.807 92.3023 184.859 92.4141L187.237 97.7358L189.599 92.4141C189.651 92.3023 189.726 92.2054 189.823 92.116C189.92 92.0265 190.076 91.9818 190.285 91.9818H190.33C190.591 91.9818 190.762 92.0414 190.851 92.1607C190.941 92.2799 190.986 92.4365 190.986 92.6377V101.872Z" fill="#231F20"/>
<path d="M194.72 92.8762C194.72 93.0625 194.66 93.2042 194.541 93.301C194.422 93.3979 194.295 93.4427 194.153 93.4427C194.012 93.4427 193.885 93.3979 193.766 93.301C193.646 93.2042 193.587 93.0625 193.587 92.8762V92.5483C193.587 92.3619 193.646 92.2203 193.766 92.1234C193.885 92.0265 194.012 91.9818 194.153 91.9818C194.295 91.9818 194.422 92.0265 194.541 92.1234C194.66 92.2203 194.72 92.3619 194.72 92.5483V92.8762ZM194.72 101.872C194.72 102.059 194.66 102.2 194.541 102.29C194.422 102.379 194.295 102.424 194.153 102.424C194.012 102.424 193.885 102.379 193.766 102.29C193.646 102.2 193.587 102.059 193.587 101.872V95.6563C193.587 95.47 193.646 95.3284 193.766 95.2315C193.885 95.1346 194.012 95.0899 194.153 95.0899C194.295 95.0899 194.422 95.1346 194.541 95.2315C194.66 95.3284 194.72 95.47 194.72 95.6563V101.872Z" fill="#231F20"/>
<path d="M199.758 101.872C199.758 102.014 199.713 102.141 199.624 102.253C199.535 102.364 199.393 102.424 199.192 102.424C198.923 102.424 198.67 102.372 198.431 102.275C198.193 102.178 197.984 102.036 197.805 101.858C197.627 101.679 197.485 101.47 197.388 101.231C197.291 100.993 197.239 100.74 197.239 100.471V92.5483C197.239 92.3619 197.299 92.2203 197.418 92.1234C197.537 92.0265 197.664 91.9818 197.805 91.9818C197.947 91.9818 198.074 92.0265 198.193 92.1234C198.312 92.2203 198.372 92.3619 198.372 92.5483V100.471C198.372 100.702 198.454 100.896 198.61 101.053C198.767 101.209 198.961 101.299 199.192 101.306C199.393 101.306 199.535 101.366 199.624 101.485C199.713 101.604 199.758 101.731 199.758 101.872Z" fill="#231F20"/>
<path d="M202.225 101.872C202.225 102.059 202.166 102.2 202.046 102.29C201.927 102.379 201.8 102.424 201.659 102.424C201.517 102.424 201.39 102.379 201.271 102.29C201.152 102.2 201.092 102.059 201.092 101.872V101.544C201.092 101.358 201.152 101.216 201.271 101.12C201.39 101.023 201.517 100.978 201.659 100.978C201.8 100.978 201.927 101.023 202.046 101.12C202.166 101.216 202.225 101.358 202.225 101.544V101.872Z" fill="#231F20"/>
<path d="M215.224 101.783C215.224 101.925 215.179 102.051 215.09 102.171C215 102.29 214.859 102.349 214.657 102.349H210.007C209.857 102.349 209.723 102.29 209.612 102.178C209.5 102.066 209.44 101.932 209.44 101.783V92.6377C209.44 92.4886 209.5 92.3545 209.612 92.2427C209.723 92.1309 209.857 92.0712 210.007 92.0712H214.657C214.859 92.0712 215 92.1308 215.09 92.2501C215.179 92.3694 215.224 92.4961 215.224 92.6377C215.224 92.7793 215.179 92.906 215.09 93.0253C215 93.1445 214.859 93.2041 214.657 93.2041H210.566V96.4762H213.405C213.592 96.4762 213.733 96.5358 213.83 96.655C213.927 96.7743 213.972 96.901 213.972 97.0426C213.972 97.1842 213.927 97.3109 213.83 97.4302C213.733 97.5494 213.592 97.6091 213.405 97.6091H210.566V101.224H214.657C214.859 101.224 215 101.284 215.09 101.403C215.179 101.522 215.224 101.649 215.224 101.79V101.783Z" fill="#231F20"/>
<path d="M221.589 101.872C221.589 102.051 221.529 102.185 221.41 102.282C221.291 102.379 221.164 102.424 221.023 102.424C220.896 102.424 220.777 102.387 220.665 102.32C220.553 102.252 220.486 102.141 220.456 101.992C220.315 102.133 220.136 102.238 219.905 102.312C219.674 102.387 219.435 102.424 219.174 102.424H219.04C218.72 102.424 218.421 102.379 218.123 102.282C217.825 102.185 217.572 102.044 217.356 101.85C217.139 101.656 216.961 101.41 216.834 101.112C216.707 100.814 216.64 100.456 216.64 100.039V95.6488C216.64 95.4625 216.7 95.3208 216.819 95.224C216.938 95.1271 217.065 95.0823 217.207 95.0823C217.348 95.0823 217.475 95.1271 217.594 95.224C217.713 95.3208 217.773 95.4625 217.773 95.6488V100.039C217.773 100.382 217.9 100.68 218.146 100.933C218.392 101.179 218.69 101.306 219.04 101.306H219.174C219.532 101.306 219.83 101.179 220.083 100.933C220.329 100.687 220.456 100.389 220.456 100.039V95.6488C220.456 95.4625 220.516 95.3208 220.635 95.224C220.754 95.1271 220.881 95.0823 221.023 95.0823C221.164 95.0823 221.291 95.1271 221.41 95.224C221.529 95.3208 221.589 95.4625 221.589 95.6488V101.865V101.872Z" fill="#231F20"/>
<path d="M227.507 96.2078C227.507 96.3644 227.455 96.4985 227.343 96.5954C227.231 96.6923 227.105 96.7445 226.956 96.7445C226.784 96.7445 226.635 96.6774 226.493 96.5358C226.434 96.4762 226.352 96.4091 226.247 96.3346C226.143 96.26 225.994 96.2227 225.808 96.2227C225.577 96.2227 225.405 96.2526 225.271 96.3122C225.137 96.3718 225.04 96.4464 224.973 96.5432C224.906 96.6401 224.861 96.7445 224.839 96.8637C224.816 96.983 224.809 97.1023 224.809 97.2215V101.843C224.809 102.044 224.749 102.185 224.63 102.282C224.511 102.379 224.384 102.424 224.242 102.424C224.101 102.424 223.974 102.379 223.855 102.282C223.736 102.185 223.676 102.044 223.676 101.843V95.6563C223.676 95.4774 223.736 95.3358 223.862 95.2389C223.989 95.142 224.116 95.0898 224.257 95.0898C224.354 95.0898 224.451 95.1122 224.541 95.1569C224.63 95.2016 224.697 95.2762 224.749 95.388C224.831 95.3283 224.951 95.2613 225.107 95.1942C225.264 95.1271 225.502 95.0898 225.823 95.0898C226.113 95.0898 226.397 95.1495 226.68 95.2613C226.963 95.3731 227.194 95.5594 227.373 95.8203C227.462 95.9619 227.507 96.0886 227.507 96.2078Z" fill="#231F20"/>
<path d="M233.693 100.046C233.693 100.382 233.634 100.695 233.507 100.985C233.38 101.276 233.209 101.522 232.993 101.738C232.777 101.954 232.516 102.118 232.225 102.245C231.934 102.372 231.621 102.431 231.293 102.431H231.144C230.816 102.431 230.511 102.372 230.213 102.245C229.922 102.118 229.661 101.954 229.445 101.738C229.229 101.522 229.057 101.276 228.931 100.985C228.804 100.695 228.744 100.389 228.744 100.046V97.4898C228.744 97.1619 228.804 96.8563 228.931 96.5582C229.057 96.2675 229.229 96.0141 229.445 95.7904C229.661 95.5743 229.914 95.4029 230.213 95.2762C230.503 95.1495 230.816 95.0898 231.144 95.0898H231.293C231.621 95.0898 231.927 95.1495 232.225 95.2762C232.516 95.4029 232.769 95.5743 232.993 95.7904C233.209 96.0066 233.38 96.26 233.507 96.5582C233.634 96.8488 233.693 97.1619 233.693 97.4898V100.046ZM232.56 97.4898C232.56 97.1395 232.434 96.8488 232.188 96.5954C231.942 96.3495 231.644 96.2227 231.293 96.2227H231.144C230.801 96.2227 230.503 96.3495 230.25 96.5954C229.996 96.8414 229.877 97.1395 229.877 97.4898V100.046C229.877 100.389 230.004 100.687 230.25 100.941C230.496 101.187 230.801 101.313 231.159 101.313H231.293C231.636 101.313 231.934 101.187 232.188 100.941C232.441 100.695 232.56 100.397 232.56 100.046V97.4898Z" fill="#231F20"/>
<path d="M240.588 100.344C240.588 100.695 240.513 100.993 240.364 101.254C240.215 101.515 240.014 101.731 239.768 101.902C239.522 102.074 239.239 102.208 238.933 102.297C238.627 102.387 238.314 102.431 238.009 102.431H237.919C237.681 102.431 237.435 102.402 237.181 102.334C236.928 102.267 236.69 102.17 236.459 102.044C236.227 101.917 236.019 101.761 235.832 101.574C235.646 101.388 235.49 101.187 235.37 100.956C235.318 100.836 235.296 100.739 235.296 100.672C235.296 100.501 235.355 100.367 235.475 100.27C235.594 100.173 235.728 100.121 235.877 100.121C235.967 100.121 236.056 100.136 236.146 100.173C236.235 100.21 236.317 100.277 236.384 100.374C236.57 100.62 236.809 100.836 237.1 101.03C237.39 101.224 237.666 101.313 237.949 101.313H238.024C238.478 101.313 238.829 101.209 239.075 101C239.321 100.792 239.447 100.568 239.455 100.315C239.462 99.9866 239.373 99.7407 239.186 99.5767C239 99.4127 238.762 99.286 238.471 99.1966C238.18 99.1072 237.867 99.0326 237.532 98.9655C237.196 98.8985 236.883 98.8016 236.593 98.6674C236.302 98.5332 236.063 98.3395 235.87 98.0786C235.676 97.8177 235.579 97.46 235.579 96.9904C235.579 96.6326 235.661 96.3345 235.832 96.0885C236.004 95.8426 236.205 95.6488 236.451 95.4997C236.697 95.3507 236.958 95.2463 237.241 95.1792C237.524 95.1122 237.785 95.0823 238.024 95.0823H238.083C238.337 95.0823 238.575 95.1047 238.791 95.1569C239.008 95.209 239.194 95.2612 239.358 95.3283C239.522 95.3954 239.663 95.4625 239.775 95.537C239.887 95.6115 239.977 95.6712 240.036 95.7233C240.178 95.8351 240.245 95.9767 240.245 96.1556C240.245 96.2972 240.193 96.4165 240.096 96.5283C239.999 96.6401 239.865 96.6923 239.708 96.6923C239.611 96.6923 239.499 96.6625 239.38 96.6028L238.858 96.3494C238.672 96.2525 238.404 96.2003 238.068 96.2003H238.009C237.591 96.2003 237.278 96.2823 237.055 96.4389C236.839 96.5954 236.719 96.7892 236.712 97.0053C236.704 97.2736 236.794 97.4674 236.98 97.6016C237.167 97.7283 237.405 97.8326 237.696 97.9146C237.986 97.9966 238.292 98.0711 238.627 98.1382C238.963 98.2053 239.268 98.3171 239.567 98.4736C239.857 98.6301 240.103 98.8463 240.297 99.1221C240.491 99.3978 240.588 99.7854 240.588 100.285V100.344Z" fill="#231F20"/>
<path d="M155.53 101.627C155.53 101.977 155.418 102.297 155.194 102.595C154.971 102.894 154.613 103.043 154.114 103.043H152.444V107.612C152.444 108.081 152.295 108.431 151.997 108.655C151.699 108.879 151.378 108.99 151.028 108.99C150.678 108.99 150.357 108.879 150.059 108.655C149.761 108.431 149.612 108.089 149.612 107.612V103.043H142.993C142.472 103.043 142.062 102.879 141.764 102.543C141.465 102.208 141.316 101.828 141.316 101.41C141.316 101.187 141.376 100.911 141.503 100.591L148.896 83.7534C149.172 83.1869 149.575 82.8962 150.126 82.8962C150.573 82.8962 150.931 83.0304 151.207 83.3062C151.483 83.5819 151.617 83.9024 151.617 84.2751C151.617 84.372 151.617 84.4764 151.595 84.5732C151.58 84.6701 151.55 84.7745 151.505 84.8714L144.663 100.225H149.567V97.2514C149.567 96.752 149.716 96.3943 150.014 96.1707C150.313 95.9471 150.633 95.8353 150.983 95.8353C151.334 95.8353 151.654 95.9471 151.952 96.1707C152.25 96.3943 152.399 96.752 152.399 97.2514V100.225H154.069C154.568 100.225 154.934 100.374 155.165 100.672C155.403 100.971 155.515 101.291 155.515 101.641L155.53 101.627Z" fill="#231F20"/>
<path d="M172.486 103.043C172.486 103.885 172.33 104.667 172.024 105.383C171.711 106.099 171.286 106.725 170.742 107.261C170.198 107.798 169.557 108.215 168.827 108.528C168.096 108.841 167.306 108.99 166.464 108.99H166.054C165.234 108.99 164.459 108.834 163.729 108.528C162.998 108.215 162.357 107.798 161.813 107.261C161.269 106.732 160.837 106.106 160.531 105.383C160.218 104.667 160.069 103.885 160.069 103.043V88.8813C160.069 88.0614 160.226 87.2863 160.531 86.5558C160.844 85.8254 161.269 85.1844 161.813 84.6403C162.357 84.0962 162.998 83.6714 163.729 83.3583C164.459 83.0453 165.234 82.8962 166.054 82.8962H166.464C167.306 82.8962 168.096 83.0528 168.827 83.3583C169.557 83.6714 170.198 84.0962 170.742 84.6403C171.286 85.1844 171.711 85.8254 172.024 86.5558C172.337 87.2863 172.486 88.0614 172.486 88.8813V103.043ZM169.661 88.8813C169.661 88.0167 169.348 87.2714 168.73 86.6527C168.111 86.0341 167.351 85.7211 166.464 85.7211H166.054C165.189 85.7211 164.444 86.0341 163.825 86.6527C163.207 87.2714 162.894 88.0167 162.894 88.8813V103.043C162.894 103.907 163.207 104.653 163.825 105.271C164.444 105.89 165.189 106.203 166.054 106.203H166.464C167.358 106.203 168.111 105.89 168.73 105.271C169.348 104.653 169.661 103.907 169.661 103.043V88.8813Z" fill="#231F20"/>
<path d="M134.966 8.10934C134.966 8.3553 134.884 8.5789 134.72 8.78759C134.556 8.99629 134.31 9.10064 133.975 9.10064H131.113V24.2682C131.113 24.5962 131.008 24.8421 130.8 24.9986C130.591 25.1552 130.367 25.2297 130.121 25.2297C129.876 25.2297 129.652 25.1552 129.443 24.9986C129.235 24.8421 129.13 24.5962 129.13 24.2682V9.10064H126.268C125.94 9.10064 125.694 8.99629 125.523 8.78759C125.359 8.5789 125.277 8.3553 125.277 8.10934C125.277 7.86338 125.359 7.63978 125.523 7.43108C125.687 7.22239 125.933 7.11804 126.268 7.11804H133.967C134.295 7.11804 134.541 7.22239 134.713 7.43108C134.877 7.63978 134.959 7.86338 134.959 8.10934H134.966Z" fill="#C72127"/>
<path d="M144.805 24.2682C144.805 24.5812 144.7 24.8197 144.492 24.9837C144.283 25.1477 144.059 25.2296 143.813 25.2296C143.59 25.2296 143.381 25.17 143.187 25.0433C142.993 24.9241 142.874 24.7303 142.822 24.4694C142.576 24.7154 142.256 24.9017 141.861 25.0284C141.458 25.1551 141.033 25.2222 140.586 25.2222H140.355C139.796 25.2222 139.267 25.1402 138.752 24.9762C138.238 24.8123 137.791 24.5588 137.411 24.2234C137.031 23.888 136.725 23.4557 136.502 22.934C136.278 22.4123 136.166 21.7862 136.166 21.0632V13.3863C136.166 13.0583 136.27 12.8123 136.479 12.6409C136.688 12.4769 136.911 12.395 137.157 12.395C137.403 12.395 137.627 12.4769 137.836 12.6409C138.044 12.8049 138.149 13.0509 138.149 13.3863V21.0632C138.149 21.6669 138.365 22.1887 138.797 22.621C139.229 23.0533 139.751 23.2694 140.355 23.2694H140.586C141.212 23.2694 141.741 23.0533 142.174 22.621C142.606 22.1887 142.822 21.6669 142.822 21.0632V13.3863C142.822 13.0583 142.926 12.8123 143.135 12.6409C143.344 12.4769 143.567 12.395 143.813 12.395C144.059 12.395 144.283 12.4769 144.492 12.6409C144.7 12.8049 144.805 13.0509 144.805 13.3863V24.2607V24.2682Z" fill="#C72127"/>
<path d="M155.165 14.3552C155.165 14.631 155.068 14.862 154.881 15.0334C154.695 15.2049 154.464 15.2943 154.203 15.2943C153.905 15.2943 153.637 15.1751 153.398 14.9291C153.294 14.8247 153.152 14.7055 152.966 14.5788C152.78 14.4521 152.526 14.385 152.198 14.385C151.796 14.385 151.483 14.4372 151.259 14.5415C151.036 14.6459 150.857 14.78 150.737 14.944C150.618 15.108 150.536 15.2943 150.506 15.503C150.477 15.7117 150.454 15.9204 150.454 16.1291V24.2234C150.454 24.5737 150.35 24.8271 150.141 24.9911C149.932 25.1551 149.709 25.2371 149.463 25.2371C149.217 25.2371 148.993 25.1551 148.785 24.9911C148.576 24.8271 148.472 24.5737 148.472 24.2234V13.4011C148.472 13.0881 148.576 12.8496 148.8 12.6707C149.016 12.4993 149.247 12.4099 149.493 12.4099C149.664 12.4099 149.828 12.4471 149.985 12.5291C150.141 12.6036 150.26 12.7453 150.35 12.9316C150.491 12.8272 150.693 12.7154 150.976 12.5962C151.252 12.4769 151.669 12.4173 152.228 12.4173C152.727 12.4173 153.227 12.5142 153.726 12.7154C154.218 12.9167 154.628 13.2372 154.934 13.6918C155.09 13.9378 155.165 14.1614 155.165 14.3701V14.3552Z" fill="#C72127"/>
<path d="M166.27 24.2681C166.27 24.5961 166.173 24.8421 165.972 24.9986C165.771 25.1551 165.555 25.2296 165.309 25.2296C165.063 25.2296 164.839 25.1551 164.63 24.9986C164.422 24.8421 164.317 24.5961 164.317 24.2681V16.5912C164.317 15.9875 164.101 15.4657 163.669 15.0334C163.237 14.6011 162.707 14.385 162.081 14.385H161.85C161.239 14.385 160.717 14.6011 160.278 15.026C159.838 15.4508 159.614 15.9726 159.614 16.5986V24.2756C159.614 24.6035 159.51 24.8495 159.301 25.006C159.093 25.1625 158.869 25.2371 158.623 25.2371C158.377 25.2371 158.153 25.1625 157.945 25.006C157.736 24.8495 157.632 24.6035 157.632 24.2756V13.4011C157.632 13.0881 157.736 12.8496 157.945 12.6707C158.153 12.4993 158.385 12.4099 158.645 12.4099C158.869 12.4099 159.078 12.4769 159.272 12.6036C159.465 12.7303 159.585 12.9316 159.637 13.1925C159.883 12.9465 160.203 12.7602 160.598 12.6185C161.001 12.4769 161.426 12.4099 161.873 12.4099H162.104C162.663 12.4099 163.192 12.4918 163.691 12.6558C164.191 12.8198 164.638 13.0807 165.018 13.4235C165.398 13.7738 165.704 14.2061 165.927 14.7353C166.151 15.2645 166.263 15.8831 166.263 16.5986V24.2756L166.27 24.2681Z" fill="#C72127"/>
<path d="M178.27 21.0707C178.27 21.6595 178.158 22.2036 177.942 22.7104C177.726 23.2172 177.428 23.6495 177.048 24.0222C176.668 24.3949 176.22 24.693 175.706 24.9091C175.192 25.1253 174.655 25.2371 174.081 25.2371H173.82C173.247 25.2371 172.702 25.1253 172.196 24.9091C171.689 24.693 171.234 24.3949 170.854 24.0222C170.474 23.6495 170.176 23.2098 169.96 22.7104C169.743 22.211 169.632 21.6595 169.632 21.0707V16.5986C169.632 16.0247 169.743 15.4806 169.96 14.9738C170.176 14.467 170.474 14.0123 170.854 13.6322C171.234 13.2521 171.681 12.9539 172.196 12.7378C172.71 12.5217 173.247 12.4099 173.82 12.4099H174.081C174.655 12.4099 175.199 12.5217 175.706 12.7378C176.213 12.9539 176.668 13.2521 177.048 13.6322C177.428 14.0123 177.726 14.4595 177.942 14.9738C178.158 15.4881 178.27 16.0247 178.27 16.5986V21.0707ZM176.295 16.5986C176.295 15.9949 176.079 15.4732 175.647 15.0409C175.214 14.6086 174.693 14.3924 174.089 14.3924H173.828C173.217 14.3924 172.702 14.6086 172.27 15.0409C171.838 15.4732 171.622 15.9949 171.622 16.5986V21.0707C171.622 21.6744 171.838 22.1961 172.27 22.6284C172.702 23.0607 173.232 23.2768 173.858 23.2768H174.089C174.693 23.2768 175.214 23.0607 175.647 22.6284C176.079 22.1961 176.295 21.6744 176.295 21.0707V16.5986Z" fill="#C72127"/>
<path d="M190.315 13.364C190.315 13.4833 190.292 13.5951 190.24 13.6994L186.7 24.5739C186.61 24.7975 186.476 24.9614 186.282 25.0658C186.089 25.1701 185.917 25.2223 185.761 25.2223H185.53C185.358 25.2223 185.172 25.1776 184.986 25.0807C184.792 24.9838 184.658 24.8198 184.568 24.5739L181.028 13.6994C180.991 13.528 180.976 13.4162 180.976 13.364C180.976 13.1031 181.073 12.8795 181.259 12.6858C181.453 12.492 181.691 12.4025 181.989 12.4025C182.183 12.4025 182.355 12.4547 182.526 12.559C182.69 12.6634 182.817 12.8348 182.906 13.0808L185.642 21.4584L188.377 13.0808C188.466 12.8348 188.593 12.6634 188.757 12.559C188.921 12.4547 189.1 12.4025 189.286 12.4025C189.584 12.4025 189.83 12.4994 190.032 12.6858C190.233 12.8795 190.33 13.1031 190.33 13.364H190.315Z" fill="#C72127"/>
<path d="M201.659 18.7527C201.659 19.0136 201.562 19.2447 201.376 19.4384C201.182 19.6397 200.951 19.7366 200.675 19.7366H195.003V21.0633C195.003 21.667 195.219 22.1887 195.651 22.621C196.084 23.0533 196.605 23.2695 197.209 23.2695H197.47C197.969 23.2695 198.394 23.1428 198.73 22.8819C199.065 22.621 199.326 22.308 199.497 21.9428C199.587 21.7192 199.706 21.5552 199.862 21.4583C200.019 21.3614 200.183 21.3167 200.354 21.3167C200.615 21.3167 200.846 21.4136 201.055 21.5999C201.264 21.7937 201.368 22.0322 201.368 22.3304C201.368 22.5018 201.331 22.6508 201.264 22.7701C200.951 23.5005 200.459 24.0893 199.795 24.5365C199.125 24.9912 198.349 25.2148 197.47 25.2148H197.209C196.635 25.2148 196.091 25.103 195.584 24.8869C195.077 24.6707 194.623 24.3726 194.243 23.9999C193.863 23.6272 193.564 23.1875 193.348 22.6881C193.132 22.1887 193.02 21.6372 193.02 21.0484V16.5764C193.02 16.0025 193.132 15.4584 193.348 14.9515C193.564 14.4447 193.863 13.99 194.243 13.6099C194.623 13.2298 195.07 12.9317 195.584 12.7155C196.099 12.4994 196.635 12.3876 197.209 12.3876H197.47C198.044 12.3876 198.588 12.4919 199.095 12.7006C199.602 12.9093 200.056 13.2 200.436 13.5876C200.817 13.9677 201.115 14.4149 201.331 14.9292C201.547 15.4435 201.659 16.0025 201.659 16.6062V18.7378V18.7527ZM199.684 16.6211C199.684 15.9801 199.46 15.4434 199.02 15.0186C198.581 14.5938 198.074 14.3776 197.5 14.3776H197.239C196.628 14.3776 196.106 14.5938 195.666 15.0186C195.227 15.4434 195.003 15.9652 195.003 16.5913V17.8956H199.684V16.6211Z" fill="#C72127"/>
<path d="M211.602 14.3552C211.602 14.631 211.505 14.862 211.318 15.0334C211.132 15.2049 210.901 15.2943 210.64 15.2943C210.342 15.2943 210.074 15.1751 209.835 14.9291C209.731 14.8247 209.589 14.7055 209.403 14.5788C209.216 14.4521 208.963 14.385 208.635 14.385C208.233 14.385 207.92 14.4372 207.696 14.5415C207.472 14.6459 207.293 14.78 207.174 14.944C207.055 15.108 206.973 15.2943 206.943 15.503C206.913 15.7117 206.891 15.9204 206.891 16.1291V24.2234C206.891 24.5737 206.787 24.8271 206.578 24.9911C206.369 25.1551 206.146 25.2371 205.9 25.2371C205.654 25.2371 205.43 25.1551 205.221 24.9911C205.013 24.8271 204.908 24.5737 204.908 24.2234V13.4011C204.908 13.0881 205.013 12.8496 205.236 12.6707C205.453 12.4993 205.684 12.4099 205.93 12.4099C206.101 12.4099 206.265 12.4471 206.421 12.5291C206.578 12.6036 206.697 12.7453 206.787 12.9316C206.928 12.8272 207.13 12.7154 207.413 12.5962C207.689 12.4769 208.106 12.4173 208.665 12.4173C209.164 12.4173 209.664 12.5142 210.163 12.7154C210.655 12.9167 211.065 13.2372 211.37 13.6918C211.527 13.9378 211.602 14.1614 211.602 14.3701V14.3552Z" fill="#C72127"/>
<path d="M133.289 41.97C133.475 41.97 133.624 42.0296 133.721 42.1489C133.818 42.2681 133.87 42.3949 133.87 42.5365C133.87 42.6781 133.826 42.8048 133.729 42.924C133.632 43.0433 133.49 43.1029 133.304 43.1029H129.466C129.279 43.1029 129.13 43.0433 129.018 42.9166C128.906 42.7899 128.854 42.6334 128.854 42.447C128.854 42.2383 128.907 42.052 129.003 41.8806L132.38 36.2309C132.521 35.9999 132.603 35.821 132.626 35.6868C132.648 35.5527 132.663 35.4111 132.663 35.262V35.1725C132.663 34.8148 132.551 34.5092 132.328 34.2483C132.104 33.9875 131.791 33.8608 131.396 33.8608H131.351C131.172 33.8608 131.008 33.8906 130.859 33.9576C130.71 34.0247 130.584 34.1142 130.472 34.226C130.36 34.3378 130.278 34.4719 130.211 34.6285C130.144 34.785 130.114 34.9415 130.114 35.1129V35.2769C130.114 35.4632 130.054 35.6048 129.935 35.7017C129.816 35.7986 129.689 35.8433 129.547 35.8433C129.406 35.8433 129.279 35.7986 129.152 35.7017C129.026 35.6048 128.966 35.4632 128.966 35.2769V35.1129C128.966 34.785 129.026 34.4794 129.152 34.1812C129.279 33.8831 129.443 33.6372 129.659 33.421C129.875 33.2049 130.121 33.0409 130.412 32.9142C130.703 32.7875 131.008 32.7278 131.336 32.7278H131.381C131.709 32.7278 132.015 32.7875 132.313 32.9142C132.603 33.0409 132.864 33.2049 133.08 33.421C133.297 33.6372 133.475 33.8831 133.602 34.1738C133.729 34.4645 133.796 34.7701 133.796 35.1129V35.2173C133.796 35.4334 133.774 35.6645 133.729 35.9104C133.684 36.1564 133.58 36.4173 133.408 36.7079L130.27 41.97H133.289Z" fill="#231F20"/>
<path d="M140.988 40.7997C140.988 41.1351 140.929 41.4481 140.802 41.7388C140.675 42.0295 140.504 42.2755 140.288 42.4916C140.072 42.7078 139.818 42.8717 139.52 42.9984C139.222 43.1251 138.916 43.1848 138.573 43.1848H138.41C138.082 43.1848 137.776 43.1251 137.478 42.9984C137.187 42.8717 136.926 42.7078 136.71 42.4916C136.494 42.2755 136.323 42.0295 136.196 41.7388C136.069 41.4481 136.01 41.1426 136.01 40.7997V35.1352C136.01 34.8072 136.069 34.5016 136.196 34.2035C136.323 33.9128 136.494 33.6594 136.71 33.4358C136.926 33.2196 137.187 33.0482 137.478 32.9215C137.769 32.7948 138.082 32.7352 138.41 32.7352H138.573C138.909 32.7352 139.222 32.7948 139.52 32.9215C139.811 33.0482 140.072 33.2196 140.288 33.4358C140.504 33.6519 140.675 33.9128 140.802 34.2035C140.929 34.4942 140.988 34.8072 140.988 35.1352V40.7997ZM139.855 35.1352C139.855 34.7923 139.729 34.4942 139.483 34.2407C139.237 33.9873 138.931 33.8681 138.573 33.8681H138.41C138.059 33.8681 137.769 33.9948 137.515 34.2407C137.262 34.4867 137.142 34.7848 137.142 35.1352V40.7997C137.142 41.1426 137.269 41.4407 137.515 41.6941C137.761 41.9401 138.059 42.0668 138.41 42.0668H138.573C138.931 42.0668 139.229 41.9401 139.483 41.6941C139.729 41.4481 139.855 41.15 139.855 40.7997V35.1352Z" fill="#231F20"/>
<path d="M147.562 41.9698C147.749 41.9698 147.898 42.0295 147.995 42.1487C148.091 42.268 148.144 42.3947 148.144 42.5363C148.144 42.6779 148.099 42.8046 148.002 42.9239C147.905 43.0431 147.764 43.1027 147.577 43.1027H143.739C143.552 43.1027 143.403 43.0431 143.291 42.9164C143.18 42.7897 143.128 42.6332 143.128 42.4468C143.128 42.2381 143.18 42.0518 143.277 41.8804L146.653 36.2307C146.795 35.9997 146.877 35.8208 146.899 35.6866C146.921 35.5525 146.936 35.4109 146.936 35.2618V35.1724C146.936 34.8146 146.824 34.509 146.601 34.2481C146.377 33.9873 146.064 33.8606 145.669 33.8606H145.624C145.446 33.8606 145.282 33.8904 145.132 33.9575C144.983 34.0245 144.857 34.114 144.745 34.2258C144.633 34.3376 144.551 34.4717 144.484 34.6283C144.417 34.7848 144.387 34.9413 144.387 35.1127V35.2767C144.387 35.463 144.328 35.6047 144.208 35.7015C144.089 35.7984 143.962 35.8432 143.821 35.8432C143.679 35.8432 143.552 35.7984 143.426 35.7015C143.299 35.6047 143.239 35.463 143.239 35.2767V35.1127C143.239 34.7848 143.299 34.4792 143.426 34.1811C143.552 33.8829 143.716 33.637 143.932 33.4208C144.149 33.2047 144.395 33.0407 144.685 32.914C144.976 32.7873 145.282 32.7277 145.609 32.7277H145.654C145.982 32.7277 146.288 32.7873 146.586 32.914C146.877 33.0407 147.137 33.2047 147.354 33.4208C147.57 33.637 147.749 33.8829 147.875 34.1736C148.002 34.4643 148.069 34.7699 148.069 35.1127V35.2171C148.069 35.4332 148.047 35.6643 148.002 35.9102C147.957 36.1562 147.853 36.4171 147.682 36.7078L144.544 41.9698H147.562Z" fill="#231F20"/>
<path d="M155.321 40.7997C155.321 41.1351 155.254 41.4481 155.127 41.7388C155.001 42.0295 154.822 42.2754 154.606 42.4916C154.39 42.7077 154.129 42.8717 153.838 42.9984C153.547 43.1251 153.234 43.1847 152.906 43.1847H152.623C152.295 43.1847 151.982 43.1251 151.691 42.9984C151.401 42.8717 151.14 42.7077 150.924 42.4916C150.708 42.2754 150.536 42.0295 150.409 41.7388C150.283 41.4481 150.223 41.1425 150.223 40.7997C150.223 40.5984 150.283 40.4568 150.402 40.3674C150.521 40.2779 150.648 40.2332 150.79 40.2332C150.931 40.2332 151.058 40.2779 151.177 40.3674C151.296 40.4568 151.356 40.5984 151.356 40.7997C151.356 41.1425 151.483 41.4406 151.729 41.6941C151.975 41.94 152.273 42.0667 152.623 42.0667H152.906C153.249 42.0667 153.555 41.9475 153.808 41.7015C154.062 41.4556 154.188 41.1574 154.188 40.7997V39.786C154.188 39.4282 154.151 39.145 154.084 38.9214C154.017 38.7053 153.905 38.5413 153.763 38.4295C153.622 38.3177 153.436 38.2506 153.219 38.2133C153.003 38.1761 152.75 38.1612 152.459 38.1612C152.258 38.1612 152.116 38.1015 152.019 37.9823C151.922 37.863 151.878 37.7363 151.878 37.5947C151.878 37.4531 151.922 37.3264 152.019 37.2071C152.116 37.0879 152.258 37.0283 152.459 37.0283C152.66 37.0283 152.862 37.0208 153.07 36.9984C153.279 36.9761 153.465 36.9165 153.629 36.8196C153.793 36.7227 153.927 36.5661 154.032 36.35C154.136 36.1339 154.188 35.8432 154.188 35.4631V35.1053C154.188 34.8966 154.151 34.7103 154.069 34.5537C153.987 34.3972 153.89 34.2631 153.763 34.1587C153.637 34.0544 153.495 33.9724 153.331 33.9202C153.167 33.868 153.003 33.8382 152.832 33.8382C152.66 33.8382 152.496 33.8606 152.34 33.9128C152.183 33.9649 152.034 34.0395 151.908 34.1438C151.781 34.2482 151.677 34.3823 151.602 34.5388C151.527 34.6954 151.49 34.8817 151.49 35.0904C151.49 35.2767 151.431 35.4183 151.311 35.5152C151.192 35.6121 151.065 35.6568 150.924 35.6568C150.782 35.6568 150.655 35.6121 150.536 35.5152C150.417 35.4183 150.357 35.2767 150.357 35.0904C150.357 34.6954 150.432 34.345 150.573 34.0469C150.715 33.7488 150.901 33.5028 151.132 33.309C151.364 33.1152 151.624 32.9662 151.923 32.8693C152.221 32.7724 152.519 32.7202 152.832 32.7202C153.145 32.7202 153.443 32.7724 153.741 32.8693C154.039 32.9662 154.3 33.1152 154.539 33.3165C154.77 33.5177 154.956 33.7637 155.105 34.0618C155.247 34.36 155.321 34.7028 155.321 35.1053V35.4631C155.321 36.0071 155.239 36.4469 155.083 36.7897C154.926 37.1326 154.732 37.3935 154.501 37.5947C154.762 37.8034 154.956 38.0866 155.105 38.4444C155.247 38.8022 155.321 39.2494 155.321 39.7785V40.7922V40.7997Z" fill="#231F20"/>
<path d="M87.697 118.062C88.2765 118.097 88.8618 118.091 89.4295 118.174C90.0621 118.263 90.683 118.417 91.3098 118.553C91.9483 118.695 92.581 118.878 93.2255 118.996C94.5795 119.245 95.768 119.8 96.72 120.811C97.1989 121.32 97.6897 121.822 98.1686 122.343C98.618 122.834 98.9314 123.407 99.1974 124.01C99.5877 124.897 100.102 125.707 100.581 126.547C101.178 127.587 101.503 128.711 101.574 129.911C101.604 130.414 101.61 130.922 101.634 131.425C101.663 132.058 101.681 132.684 101.728 133.317C101.793 134.222 101.669 135.097 101.385 135.954C101.072 136.894 100.699 137.805 100.197 138.662C99.8833 139.188 99.499 139.656 99.0674 140.081C98.3283 140.809 97.6305 141.571 96.785 142.18C95.9986 142.742 95.2004 143.28 94.3075 143.653C93.7222 143.895 93.1132 144.078 92.5101 144.267C91.8301 144.486 91.1383 144.67 90.4583 144.894C89.5773 145.19 88.6785 145.308 87.7502 145.267C86.9106 145.231 86.0769 145.172 85.255 144.995C84.4154 144.817 83.6586 144.451 82.9313 144.007C82.4287 143.7 81.932 143.381 81.3999 143.12C80.921 142.89 80.4006 142.742 79.9099 142.541C79.1589 142.239 78.4908 141.814 78.0592 141.092C77.8049 140.673 77.6216 140.223 77.5211 139.75C77.3201 138.81 76.8825 138 76.3326 137.225C75.9542 136.693 75.629 136.126 75.4398 135.499C75.1678 134.582 74.884 133.666 74.6593 132.738C74.4346 131.803 74.5706 130.881 74.8958 129.982C75.0909 129.432 75.3215 128.888 75.4812 128.332C75.5994 127.901 75.6467 127.451 75.7059 127.008C75.8064 126.233 75.901 125.453 76.3208 124.779C76.6637 124.235 77.0422 123.709 77.4501 123.206C78.9165 121.403 80.7436 120.072 82.8426 119.097C83.6408 118.724 84.4568 118.393 85.326 118.251C85.9291 118.157 86.5499 118.139 87.1649 118.092C87.3482 118.08 87.5256 118.092 87.7089 118.092C87.7089 118.08 87.7089 118.068 87.7089 118.056L87.697 118.062ZM99.6527 131.383C99.6527 131.147 99.6705 130.727 99.6527 130.301C99.6054 129.279 99.3512 128.315 98.8367 127.422C98.3874 126.641 97.9557 125.849 97.5359 125.051C97.2817 124.56 97.0747 124.04 96.6904 123.626C96.247 123.141 95.7857 122.674 95.3364 122.195C94.6682 121.474 93.8227 121.107 92.8707 120.918C92.1375 120.776 91.4221 120.575 90.6889 120.415C90.1154 120.291 89.5359 120.143 88.9505 120.09C88.2942 120.031 87.632 120.049 86.9698 120.055C86.3016 120.06 85.6394 120.137 85.0008 120.344C83.6941 120.77 82.5056 121.42 81.3762 122.195C80.3178 122.922 79.4309 123.833 78.6386 124.838C78.3607 125.193 78.1065 125.577 77.9054 125.979C77.6689 126.452 77.6748 126.984 77.598 127.499C77.5329 127.925 77.4974 128.356 77.3733 128.764C77.19 129.391 76.9535 130.006 76.7288 130.621C76.51 131.218 76.4213 131.821 76.5691 132.448C76.6637 132.838 76.7702 133.228 76.8825 133.613C77.0185 134.08 77.1545 134.553 77.3141 135.014C77.4915 135.517 77.799 135.954 78.0887 136.398C78.4257 136.912 78.7983 137.409 78.9934 138C79.1589 138.485 79.3008 138.981 79.4428 139.472C79.5906 139.975 79.833 140.401 80.3415 140.619C80.4538 140.667 80.5603 140.726 80.6726 140.767C81.1693 140.956 81.6896 141.11 82.1626 141.347C82.7362 141.624 83.2802 141.967 83.8301 142.299C84.3859 142.63 84.9476 142.961 85.5921 143.079C86.1833 143.185 86.7806 143.245 87.3777 143.304C88.2706 143.392 89.1457 143.304 89.9971 142.996C90.6712 142.754 91.3748 142.576 92.0666 142.369C92.6874 142.186 93.3142 141.997 93.8877 141.69C95.0703 141.057 96.1405 140.276 97.0688 139.307C97.5241 138.828 98.0267 138.39 98.3874 137.834C98.8368 137.143 99.1383 136.386 99.4221 135.617C99.7178 134.807 99.8183 133.985 99.7355 133.134C99.6882 132.619 99.6704 132.105 99.6291 131.401L99.6527 131.383Z" fill="#F3A021"/>
<path d="M98.5943 147.585C98.0267 147.632 97.4946 147.283 97.1339 146.621C96.7377 145.888 96.4539 145.107 96.1819 144.321C96.111 144.12 96.1051 143.972 96.2824 143.83C96.4894 143.664 96.6845 143.67 96.8382 143.895C97.0156 144.149 97.1634 144.427 97.3231 144.699C97.6246 145.22 97.9203 145.74 98.2218 146.254C98.2514 146.307 98.2987 146.361 98.346 146.408C98.5589 146.633 98.7895 146.692 99.0555 146.532C99.2743 146.396 99.4872 146.231 99.6586 146.041C99.9011 145.775 99.8479 145.456 99.6764 145.184C99.5049 144.9 99.298 144.64 99.0733 144.398C98.7717 144.072 98.4406 143.777 98.1272 143.463C97.9262 143.262 97.737 143.055 97.6601 142.772C97.5892 142.5 97.737 142.287 98.0208 142.269C98.2337 142.251 98.4229 142.316 98.5943 142.423C99.2802 142.854 99.9306 143.327 100.463 143.948C100.871 144.421 101.137 144.959 101.143 145.604C101.143 146.396 100.711 147.112 100.031 147.384C99.6409 147.543 99.2211 147.573 98.5943 147.602V147.585Z" fill="#F3A021"/>
<path d="M74.4819 144.143C74.4937 143.67 74.6948 143.292 75.0259 142.979C75.5107 142.523 76.0784 142.18 76.646 141.843C76.8943 141.695 77.1545 141.554 77.4088 141.418C77.5625 141.329 77.6867 141.364 77.8581 141.536C77.9823 141.66 78.006 141.802 77.9173 141.944C77.87 142.015 77.8167 142.086 77.7517 142.139C77.2846 142.523 76.8057 142.896 76.3445 143.286C76.1198 143.475 75.9069 143.676 75.7059 143.889C75.428 144.191 75.4339 144.469 75.7059 144.776C75.7886 144.865 75.8773 144.948 75.972 145.024C76.3799 145.367 76.7406 145.385 77.1309 145.024C77.4206 144.752 77.6689 144.427 77.9114 144.108C78.1419 143.806 78.3252 143.475 78.5499 143.174C78.6682 143.008 78.8219 142.86 78.9697 142.724C79.1117 142.6 79.289 142.559 79.4664 142.647C79.6379 142.73 79.6852 142.902 79.6911 143.085C79.6911 143.369 79.5788 143.623 79.4605 143.877C79.1944 144.445 78.9224 145.007 78.5381 145.503C78.207 145.929 77.8167 146.284 77.2964 146.485C76.4923 146.792 75.5167 146.544 75.0496 145.905C74.8249 145.592 74.7066 145.231 74.6179 144.865C74.5588 144.628 74.5233 144.392 74.476 144.155L74.4819 144.143Z" fill="#F3A021"/>
<path d="M78.136 115.584C78.8869 115.561 79.4309 115.892 79.7502 116.542C80.0636 117.181 80.3178 117.843 80.5957 118.494C80.6608 118.641 80.7022 118.801 80.7554 118.949C80.8204 119.138 80.7672 119.256 80.5544 119.392C80.4006 119.493 80.2528 119.487 80.1286 119.357C80.0281 119.25 79.9453 119.126 79.8744 119.002C79.5906 118.494 79.3245 117.979 79.0407 117.477C78.9224 117.264 78.7805 117.057 78.6268 116.862C78.3784 116.536 78.1124 116.477 77.7694 116.69C77.5861 116.808 77.4087 116.95 77.2609 117.116C77.0067 117.394 77.0658 117.713 77.2254 118.021C77.4206 118.405 77.728 118.701 78.0237 119.002C78.2898 119.268 78.5617 119.522 78.8278 119.783C79.0111 119.966 79.1708 120.161 79.2476 120.421C79.3186 120.687 79.1767 120.918 78.8988 120.918C78.7391 120.918 78.5558 120.9 78.4198 120.823C77.5743 120.338 76.7938 119.765 76.2203 118.961C75.8359 118.423 75.6822 117.825 75.8064 117.157C75.9424 116.436 76.4863 115.856 77.2077 115.72C77.5152 115.661 77.8286 115.632 78.136 115.584Z" fill="#F3A021"/>
<path d="M102.396 118.86C102.408 119.517 102.207 119.895 101.87 120.208C101.385 120.658 100.823 120.995 100.262 121.338C100.007 121.491 99.7414 121.627 99.4812 121.775C99.3334 121.858 99.2152 121.823 99.0437 121.657C98.9254 121.539 98.89 121.403 98.9668 121.273C99.0141 121.19 99.0792 121.101 99.156 121.042C99.6172 120.658 100.09 120.291 100.551 119.907C100.782 119.712 101.007 119.505 101.208 119.28C101.468 118.99 101.462 118.718 101.208 118.429C101.09 118.293 100.948 118.168 100.806 118.062C100.481 117.825 100.12 117.837 99.7828 118.151C99.4872 118.429 99.2329 118.754 98.9905 119.079C98.7185 119.434 98.482 119.818 98.2218 120.185C98.139 120.297 98.0267 120.392 97.9143 120.474C97.7724 120.587 97.601 120.628 97.4295 120.545C97.264 120.463 97.193 120.291 97.2107 120.126C97.2403 119.901 97.2876 119.664 97.3763 119.457C97.6601 118.801 97.9735 118.157 98.4288 117.595C98.7894 117.157 99.2093 116.803 99.771 116.661C100.711 116.418 101.799 116.743 102.154 117.932C102.26 118.298 102.343 118.671 102.39 118.866L102.396 118.86Z" fill="#F3A021"/>
<path d="M84.1434 146.041C84.0784 146.698 84.0193 147.348 83.8182 147.981C83.5935 148.69 83.2329 149.299 82.5352 149.642C81.8197 149.991 80.9505 149.932 80.3888 149.353C80.0636 149.016 79.7916 148.643 79.5965 148.217C79.4487 147.898 79.3836 147.555 79.5137 147.218C79.632 146.911 79.762 146.597 79.9572 146.331C80.4006 145.734 80.8796 145.16 81.3526 144.581C81.4768 144.427 81.6719 144.421 81.8788 144.545C82.0326 144.64 82.0858 144.812 81.9912 144.995C81.8079 145.344 81.6068 145.681 81.4117 146.018C81.1515 146.467 80.8914 146.916 80.6371 147.366C80.5957 147.437 80.5721 147.514 80.5544 147.591C80.4952 147.827 80.5425 148.034 80.7436 148.188C80.9742 148.365 81.2402 148.472 81.53 148.519C81.8197 148.566 82.0385 148.436 82.2159 148.217C82.4701 147.91 82.5824 147.537 82.6889 147.165C82.8367 146.644 82.9609 146.124 83.1087 145.604C83.1501 145.468 83.227 145.332 83.3097 145.219C83.5403 144.906 83.9128 144.953 84.0547 145.314C84.1079 145.456 84.1257 145.616 84.1434 145.769C84.1553 145.858 84.1434 145.953 84.1434 146.041Z" fill="#F3A021"/>
<path d="M71.6201 122.029C71.626 121.314 71.9276 120.764 72.5721 120.433C72.915 120.256 73.2698 120.09 73.6364 119.978C74.2158 119.8 74.7066 120.025 75.1382 120.403C75.7473 120.936 76.2676 121.545 76.7643 122.171C76.7997 122.219 76.8411 122.266 76.8766 122.313C77.0244 122.497 77.0126 122.656 76.8352 122.851C76.711 122.993 76.5337 123.017 76.3622 122.881C76.0074 122.597 75.6704 122.296 75.3215 122.006C74.9668 121.71 74.612 121.409 74.2454 121.125C74.0325 120.959 73.7783 120.876 73.53 121.042C73.2048 121.255 73.0392 121.586 72.9505 121.953C72.8973 122.177 73.0096 122.372 73.1574 122.544C73.4117 122.84 73.7546 123.023 74.0976 123.188C74.5351 123.395 74.9845 123.579 75.4161 123.797C75.6054 123.892 75.7887 124.022 75.9365 124.176C76.1907 124.442 76.0725 124.773 75.7118 124.868C75.4339 124.939 75.1678 124.879 74.9076 124.809C74.275 124.637 73.6423 124.46 73.0628 124.146C72.5011 123.845 72.0222 123.454 71.7916 122.845C71.697 122.591 71.6556 122.313 71.5846 122.047C71.5965 122.047 71.6083 122.041 71.6201 122.035V122.029Z" fill="#F3A021"/>
<path d="M106.062 123.573C106.062 123.981 106.021 124.389 105.867 124.773C105.684 125.222 105.329 125.5 104.886 125.63C104.235 125.82 103.567 125.961 102.905 126.115C102.68 126.168 102.444 126.186 102.219 126.228C102.112 126.245 102.041 126.216 101.971 126.133C101.722 125.825 101.758 125.589 102.124 125.447C102.621 125.252 103.135 125.104 103.632 124.921C104.01 124.779 104.395 124.631 104.755 124.448C105.057 124.294 105.14 124.016 105.01 123.697C104.927 123.496 104.82 123.307 104.696 123.135C104.489 122.851 104.158 122.786 103.768 122.922C103.301 123.082 102.917 123.372 102.52 123.65C102.183 123.886 101.852 124.123 101.509 124.341C101.403 124.412 101.273 124.448 101.143 124.477C100.812 124.554 100.563 124.312 100.646 123.981C100.687 123.821 100.764 123.65 100.871 123.525C101.486 122.84 102.142 122.195 102.982 121.787C103.738 121.42 104.501 121.397 105.234 121.858C105.867 122.254 106.115 122.84 106.062 123.573Z" fill="#F3A021"/>
<path d="M70.8041 139.608C70.8633 139.253 70.8987 138.887 70.9993 138.538C71.1471 138.012 71.5373 137.692 72.034 137.545C72.6844 137.355 73.3526 137.214 74.0148 137.06C74.2336 137.007 74.4642 136.989 74.6888 136.947C74.7953 136.93 74.8781 136.947 74.9372 137.042C74.9667 137.089 75.0022 137.131 75.0318 137.178C75.156 137.409 75.1027 137.592 74.8603 137.698C74.5942 137.817 74.3163 137.911 74.0443 138.012C73.459 138.225 72.8618 138.408 72.2882 138.656C71.8211 138.857 71.7383 139.194 71.9689 139.65C72.0103 139.732 72.0576 139.803 72.1049 139.886C72.3592 140.335 72.7021 140.406 73.1633 140.253C73.6186 140.099 73.9971 139.815 74.3873 139.537C74.6652 139.342 74.9372 139.123 75.2269 138.94C75.3984 138.834 75.5935 138.751 75.7945 138.704C76.1138 138.627 76.3503 138.869 76.2735 139.188C76.238 139.342 76.167 139.502 76.0665 139.62C75.4161 140.353 74.7243 141.039 73.8138 141.447C73.187 141.725 72.5484 141.755 71.9217 141.459C71.2772 141.157 70.7864 140.602 70.8514 139.614C70.8396 139.614 70.8278 139.614 70.816 139.608H70.8041Z" fill="#F3A021"/>
<path d="M93.9764 150.346C93.4029 150.316 92.9417 150.192 92.4982 150.003C91.9779 149.784 91.7 149.364 91.5936 148.832C91.4103 147.892 91.4162 146.934 91.4517 145.982C91.4517 145.876 91.6113 145.757 91.7828 145.722C91.9779 145.681 92.1375 145.752 92.1848 145.953C92.2794 146.355 92.3445 146.763 92.4214 147.171C92.516 147.673 92.5751 148.176 92.7052 148.667C92.853 149.211 93.1368 149.335 93.6749 149.169C93.7813 149.14 93.8877 149.098 93.9883 149.051C94.3903 148.868 94.5677 148.483 94.4199 148.01C94.2898 147.596 94.1183 147.188 93.9409 146.786C93.7754 146.396 93.5744 146.024 93.4147 145.633C93.3556 145.485 93.3497 145.296 93.3674 145.131C93.397 144.894 93.6098 144.776 93.8404 144.841C94.0474 144.9 94.2129 145.018 94.343 145.184C94.8515 145.84 95.3245 146.514 95.6084 147.301C95.9217 148.158 95.8803 148.98 95.2713 149.707C94.9106 150.133 94.4435 150.358 93.9646 150.34L93.9764 150.346Z" fill="#F3A021"/>
<path d="M92.7584 117.24C92.8175 116.495 92.8826 115.839 93.0836 115.2C93.2906 114.538 93.6158 113.958 94.2484 113.604C95.0526 113.154 96.0577 113.213 96.6963 114.029C96.9624 114.366 97.2226 114.709 97.3704 115.117C97.5478 115.608 97.4295 116.063 97.1753 116.495C96.7081 117.287 96.1109 117.991 95.4901 118.665C95.4073 118.754 95.1708 118.73 95.0171 118.624C94.8811 118.529 94.822 118.363 94.9107 118.198C95.0821 117.873 95.2654 117.553 95.4487 117.24C95.7266 116.761 96.0045 116.282 96.2765 115.797C96.3356 115.697 96.3534 115.567 96.3711 115.448C96.4007 115.271 96.3238 115.123 96.1878 115.011C95.9454 114.81 95.6557 114.698 95.3482 114.656C95.0762 114.615 94.8693 114.751 94.7037 114.952C94.4849 115.206 94.3667 115.514 94.278 115.827C94.1302 116.353 94.0001 116.879 93.8582 117.406C93.8109 117.565 93.7458 117.719 93.669 117.861C93.5625 118.05 93.4147 118.21 93.1782 118.162C92.9358 118.109 92.8353 117.908 92.7939 117.684C92.7643 117.512 92.7643 117.335 92.7584 117.24Z" fill="#F3A021"/>
<path d="M72.2764 130.035C71.6615 130.024 71.0643 129.958 70.4967 129.704C69.7221 129.361 69.0894 128.516 69.2491 127.534C69.2846 127.298 69.3969 127.061 69.527 126.854C69.7753 126.464 70.1064 126.145 70.4789 125.873C70.9815 125.506 71.5255 125.518 72.0754 125.731C72.915 126.05 73.6896 126.505 74.4583 126.967C74.5706 127.038 74.5529 127.132 74.5529 127.233C74.541 127.57 74.3696 127.723 74.0503 127.617C73.5772 127.463 73.116 127.274 72.643 127.109C72.2291 126.967 71.8152 126.813 71.3954 126.712C70.9933 126.618 70.7687 126.76 70.6445 127.156C70.5795 127.369 70.544 127.599 70.544 127.824C70.544 128.196 70.8101 128.386 71.1175 128.504C71.5846 128.693 72.0813 128.705 72.5721 128.746C72.9919 128.782 73.4176 128.817 73.8374 128.871C73.9557 128.888 74.0798 128.947 74.1804 129.012C74.4228 129.166 74.4583 129.438 74.2395 129.627C74.1035 129.746 73.9143 129.852 73.7369 129.876C73.252 129.953 72.7554 129.982 72.2646 130.035H72.2764Z" fill="#F3A021"/>
<path d="M104.619 133.146C105.282 133.157 105.926 133.228 106.523 133.524C107.322 133.926 107.783 134.766 107.659 135.647C107.623 135.871 107.523 136.108 107.398 136.297C107.132 136.705 106.789 137.054 106.387 137.332C105.891 137.675 105.359 137.645 104.826 137.444C103.987 137.125 103.206 136.676 102.444 136.202C102.396 136.173 102.355 136.09 102.349 136.031C102.331 135.599 102.544 135.434 102.958 135.582C103.39 135.735 103.815 135.913 104.247 136.066C104.661 136.214 105.075 136.362 105.495 136.469C105.903 136.569 106.163 136.392 106.275 135.984C106.311 135.86 106.328 135.729 106.346 135.599C106.429 135.103 106.198 134.843 105.761 134.671C105.276 134.482 104.755 134.47 104.241 134.429C103.839 134.393 103.437 134.358 103.041 134.304C102.917 134.287 102.792 134.222 102.686 134.145C102.467 133.985 102.455 133.755 102.639 133.554C102.786 133.394 102.982 133.317 103.189 133.287C103.662 133.234 104.141 133.193 104.619 133.146Z" fill="#F3A021"/>
<path d="M105.282 141.146C105.276 141.855 104.98 142.405 104.347 142.736C104.005 142.914 103.65 143.079 103.283 143.197C102.704 143.381 102.201 143.162 101.764 142.778C101.155 142.245 100.634 141.636 100.132 141.01C100.096 140.968 100.067 140.921 100.031 140.88C99.8715 140.684 99.8833 140.513 100.067 140.318C100.197 140.182 100.374 140.158 100.557 140.306C100.965 140.637 101.344 140.998 101.752 141.329C102.095 141.613 102.449 141.891 102.822 142.139C103.047 142.293 103.277 142.239 103.472 142.056C103.703 141.849 103.851 141.583 103.934 141.287C104.005 141.033 103.898 140.814 103.733 140.619C103.472 140.324 103.135 140.146 102.787 139.981C102.349 139.774 101.9 139.591 101.468 139.372C101.285 139.277 101.101 139.153 100.959 138.999C100.699 138.721 100.823 138.355 101.208 138.307C101.456 138.278 101.722 138.307 101.965 138.367C102.603 138.52 103.23 138.709 103.809 139.017C104.377 139.319 104.862 139.709 105.098 140.324C105.199 140.578 105.24 140.856 105.305 141.122C105.294 141.122 105.282 141.128 105.27 141.134L105.282 141.146Z" fill="#F3A021"/>
<path d="M87.2122 114.449C87.2063 113.746 87.3718 113.101 87.8862 112.581C88.3593 112.102 88.9328 111.93 89.5832 112.025C89.7606 112.049 89.9439 112.131 90.1035 112.226C90.3992 112.403 90.6889 112.599 90.9609 112.817C91.4871 113.237 91.6172 113.799 91.499 114.437C91.3334 115.336 91.0082 116.182 90.6771 117.027C90.6298 117.145 90.547 117.163 90.4406 117.175C90.0917 117.222 89.9084 117.075 89.9616 116.732C90.0385 116.229 90.1508 115.732 90.2395 115.23C90.3046 114.845 90.3814 114.455 90.4169 114.065C90.4583 113.592 90.2809 113.385 89.8138 113.314C89.6778 113.29 89.5418 113.284 89.4058 113.29C88.9624 113.308 88.6726 113.551 88.6076 113.988C88.5603 114.319 88.5485 114.662 88.5603 114.999C88.578 115.431 88.6372 115.862 88.6845 116.294C88.714 116.56 88.7199 116.832 88.6135 117.086C88.4834 117.406 88.17 117.483 87.9395 117.234C87.7975 117.086 87.6911 116.891 87.6261 116.696C87.3896 115.969 87.2181 115.23 87.2063 114.461L87.2122 114.449Z" fill="#F3A021"/>
<path d="M104.661 130.485C105.098 130.485 105.5 130.485 105.903 130.485C106.039 130.485 106.175 130.455 106.305 130.42C106.535 130.355 106.665 130.183 106.695 129.947C106.736 129.645 106.677 129.35 106.559 129.072C106.464 128.847 106.263 128.735 106.033 128.687C105.636 128.605 105.258 128.687 104.88 128.782C104.365 128.912 103.863 129.066 103.348 129.19C103.183 129.231 102.999 129.231 102.822 129.22C102.473 129.19 102.331 128.9 102.497 128.599C102.633 128.356 102.857 128.22 103.1 128.108C103.703 127.824 104.306 127.546 104.962 127.404C105.731 127.233 106.476 127.251 107.132 127.747C107.617 128.114 107.925 128.581 107.907 129.225C107.883 129.994 107.564 130.627 107.067 131.177C106.754 131.526 106.311 131.608 105.873 131.585C105.294 131.555 104.72 131.478 104.141 131.407C103.845 131.372 103.555 131.301 103.265 131.242C103.047 131.2 102.958 131.064 102.97 130.792C102.976 130.603 103.088 130.485 103.301 130.473C103.626 130.461 103.945 130.461 104.271 130.461C104.413 130.461 104.554 130.473 104.661 130.479V130.485Z" fill="#F3A021"/>
<path d="M85.4561 116.158C85.4561 116.477 85.4561 116.797 85.4561 117.11C85.4561 117.293 85.3437 117.406 85.1249 117.453C84.9357 117.494 84.7761 117.429 84.7229 117.246C84.646 116.998 84.5928 116.738 84.5455 116.483C84.4568 115.945 84.3859 115.407 84.2913 114.869C84.2558 114.674 84.1907 114.479 84.1139 114.296C84.0015 114.029 83.7768 113.899 83.493 113.958C83.2861 114 83.0791 114.059 82.8899 114.148C82.4997 114.331 82.3637 114.698 82.4701 115.171C82.6002 115.732 82.884 116.229 83.1205 116.743C83.2742 117.069 83.3925 117.412 83.5285 117.749C83.5403 117.778 83.5403 117.808 83.5403 117.837C83.5521 118.015 83.5344 118.186 83.3688 118.293C83.1974 118.405 83.0259 118.358 82.8722 118.263C82.748 118.18 82.6179 118.086 82.5292 117.973C82.0562 117.37 81.6305 116.743 81.3348 116.034C81.1338 115.543 81.0215 115.035 81.122 114.497C81.2461 113.822 81.7014 113.089 82.5647 112.888C82.819 112.829 83.1028 112.847 83.3629 112.888C83.6881 112.941 84.0074 113.042 84.3208 113.154C84.8943 113.355 85.2136 113.793 85.3023 114.372C85.3969 114.964 85.4324 115.567 85.4915 116.164C85.4738 116.164 85.462 116.164 85.4442 116.164L85.4561 116.158Z" fill="#F3A021"/>
<path d="M72.1995 132.696C71.8093 132.696 71.425 132.696 71.0347 132.696C70.8928 132.696 70.7509 132.726 70.6149 132.761C70.3725 132.826 70.2306 132.998 70.201 133.246C70.1655 133.542 70.2247 133.831 70.337 134.103C70.4257 134.328 70.6208 134.434 70.8455 134.488C71.2535 134.582 71.6497 134.488 72.0399 134.393C72.5484 134.269 73.051 134.115 73.5595 133.985C73.7191 133.944 73.8906 133.938 74.0562 133.95C74.4405 133.979 74.5883 134.299 74.3814 134.624C74.2395 134.842 74.0266 134.967 73.8019 135.073C73.2047 135.357 72.6016 135.629 71.9571 135.771C71.1944 135.942 70.4434 135.93 69.7871 135.44C69.2964 135.073 68.983 134.606 69.0007 133.956C69.0244 133.187 69.3437 132.542 69.8522 131.993C70.1892 131.632 70.6504 131.561 71.1116 131.596C71.7679 131.644 72.4242 131.744 73.0805 131.827C73.252 131.851 73.4176 131.892 73.5831 131.922C73.8492 131.969 73.8847 132.004 73.932 132.27C73.9734 132.519 73.8669 132.684 73.6127 132.696C73.2343 132.714 72.8559 132.702 72.4774 132.702C72.3888 132.702 72.2942 132.702 72.2055 132.702C72.2055 132.702 72.2055 132.696 72.2055 132.69L72.1995 132.696Z" fill="#F3A021"/>
<path d="M89.6896 148.726C89.7014 149.364 89.5773 149.962 89.1457 150.458C88.8914 150.754 88.5898 150.996 88.2114 151.097C87.7088 151.233 87.2122 151.215 86.7569 150.925C86.4908 150.754 86.2247 150.576 85.9764 150.381C85.4442 149.973 85.2905 149.412 85.4028 148.773C85.5684 147.863 85.8995 146.999 86.2365 146.142C86.2779 146.035 86.3607 146.012 86.4612 146C86.8397 145.959 86.9993 146.095 86.9402 146.467C86.8633 146.964 86.751 147.455 86.6623 147.951C86.5972 148.336 86.5204 148.726 86.4908 149.116C86.4494 149.571 86.615 149.772 87.0643 149.849C87.2358 149.879 87.4191 149.885 87.5906 149.873C87.9867 149.837 88.2469 149.595 88.3001 149.187C88.3474 148.832 88.3592 148.466 88.3415 148.105C88.3238 147.691 88.2528 147.283 88.2233 146.869C88.2114 146.65 88.2232 146.426 88.2469 146.207C88.2705 146.03 88.3652 145.87 88.5603 145.817C88.7554 145.769 88.9269 145.84 89.0215 146C89.1516 146.213 89.2639 146.443 89.3349 146.68C89.5123 147.283 89.6601 147.898 89.6837 148.531C89.6837 148.59 89.6837 148.649 89.6837 148.714L89.6896 148.726Z" fill="#F3A021"/>
<path d="M88.2114 142.074C87.6202 142.074 87.0289 142.074 86.4376 142.074C85.6512 142.074 84.8885 141.979 84.1612 141.654C83.5462 141.376 83.02 140.974 82.547 140.495C81.8907 139.833 81.2462 139.153 80.5958 138.485C80.2055 138.089 79.8034 137.71 79.4309 137.296C78.7273 136.522 78.3134 135.605 78.136 134.576C77.8877 133.157 77.864 131.732 78.0414 130.307C78.1774 129.196 78.4849 128.126 79.0348 127.138C79.36 126.553 79.7975 126.044 80.2824 125.583C81.0274 124.868 81.7369 124.128 82.411 123.348C83.1383 122.502 84.0311 121.929 85.1072 121.616C86.0947 121.326 87.0998 121.143 88.1287 121.101C88.986 121.066 89.8079 121.243 90.5884 121.574C91.7177 122.053 92.8471 122.538 93.9705 123.035C94.822 123.413 95.5611 123.957 96.1937 124.655C96.9683 125.506 97.6483 126.423 98.1272 127.475C98.5352 128.392 98.7717 129.35 98.8841 130.343C99.0082 131.449 98.9846 132.548 98.8663 133.654C98.7185 135.091 98.2041 136.392 97.3704 137.568C96.2292 139.171 94.8101 140.448 93.0363 141.329C92.1021 141.79 91.1205 142.009 90.0858 142.021C89.459 142.027 88.8323 142.021 88.2055 142.021C88.2055 142.038 88.2055 142.056 88.2055 142.074H88.2114ZM88.2233 140.105C88.2233 140.105 88.2233 140.081 88.2233 140.069C88.8264 140.069 89.4236 140.075 90.0267 140.069C90.7599 140.058 91.4635 139.922 92.1316 139.596C93.6276 138.869 94.8101 137.799 95.768 136.451C96.377 135.593 96.7732 134.659 96.9033 133.619C97.0215 132.673 97.057 131.726 96.9683 130.774C96.8973 130.012 96.7436 129.267 96.4598 128.557C96.0459 127.499 95.3718 126.618 94.5914 125.808C94.207 125.406 93.7577 125.092 93.2492 124.862C92.1671 124.377 91.0851 123.904 89.9971 123.443C89.5418 123.247 89.0747 123.082 88.5721 123.064C87.6911 123.035 86.8338 123.177 85.9823 123.389C85.0658 123.62 84.3149 124.081 83.7236 124.814C83.0969 125.589 82.3755 126.275 81.6719 126.978C81.3467 127.304 81.0274 127.658 80.7909 128.049C80.2587 128.924 80.0459 129.917 79.9453 130.928C79.8507 131.922 79.8862 132.915 80.0104 133.908C80.0991 134.636 80.3119 135.321 80.7968 135.889C81.0215 136.149 81.258 136.398 81.5004 136.64C82.068 137.214 82.6475 137.781 83.2151 138.355C83.5049 138.65 83.7828 138.958 84.0784 139.248C84.6342 139.803 85.3083 140.105 86.1006 140.111C86.8101 140.111 87.5256 140.111 88.2351 140.111L88.2233 140.105Z" fill="#F3A021"/>
<path d="M88.3652 138.851C87.4132 138.834 86.745 138.81 86.0887 138.686C85.1427 138.508 84.3444 138.065 83.6645 137.403C82.813 136.581 82.1271 135.635 81.7073 134.523C81.3112 133.471 81.1397 132.359 81.3053 131.247C81.6719 128.8 82.9017 126.896 85.0717 125.648C85.6216 125.329 86.1715 125.009 86.7451 124.749C87.8803 124.235 89.0392 124.264 90.1627 124.773C91.3393 125.299 92.4568 125.932 93.4383 126.783C94.3667 127.593 94.952 128.616 95.2417 129.817C95.4723 130.769 95.4901 131.732 95.4369 132.708C95.4014 133.317 95.3245 133.914 95.1471 134.494C94.9461 135.15 94.5913 135.723 94.1834 136.262C93.5507 137.095 92.8057 137.799 91.8596 138.278C91.2506 138.585 90.5884 138.733 89.9084 138.786C89.2994 138.834 88.6904 138.839 88.3652 138.857V138.851ZM88.377 136.906C88.8677 136.876 89.394 136.859 89.9202 136.811C90.4406 136.764 90.9254 136.604 91.357 136.303C91.9306 135.901 92.3977 135.398 92.7938 134.825C93.0658 134.429 93.2846 134.009 93.3674 133.536C93.5389 132.531 93.5625 131.519 93.3851 130.508C93.2255 129.592 92.8175 128.811 92.0961 128.208C91.2743 127.516 90.34 126.996 89.3644 126.553C88.7022 126.251 88.0281 126.263 87.3777 126.6C86.9343 126.825 86.5085 127.091 86.071 127.321C84.6519 128.078 83.8241 129.314 83.3629 130.798C83.0436 131.833 83.1914 132.885 83.558 133.89C83.8241 134.63 84.2971 135.25 84.8293 135.824C85.3851 136.427 86.0651 136.788 86.8929 136.835C87.3718 136.865 87.8507 136.882 88.3711 136.912L88.377 136.906Z" fill="#F3A021"/>
<path d="M84.5337 131.756C84.5337 130.1 85.4915 128.675 87.0466 128.114C89.0392 127.392 91.2861 128.309 92.0547 130.384C92.7879 132.365 91.8419 134.606 89.9202 135.475C88.4539 136.143 86.6445 135.735 85.5743 134.506C84.8884 133.719 84.5396 132.797 84.5337 131.75V131.756ZM90.346 131.691C90.3223 131.549 90.3046 131.336 90.2454 131.141C89.9971 130.372 89.4472 129.953 88.6608 129.84C87.8921 129.728 87.1235 130.095 86.751 130.745C86.3016 131.525 86.4435 132.608 87.088 133.27C87.6852 133.891 88.5721 134.033 89.3171 133.595C90.0089 133.193 90.3046 132.548 90.3519 131.697L90.346 131.691Z" fill="#F3A021"/>
<path d="M86.005 61.7362C85.1628 62.966 84.41 63.0256 83.3367 61.9449C81.682 60.2902 80.0274 58.6356 78.3727 56.9809C78.2088 56.817 78.0373 56.6604 77.8361 56.4666C77.6349 56.6604 77.4485 56.8319 77.2696 57.0033C71.0983 63.1747 64.9269 69.346 58.7555 75.5174C57.6599 76.6131 57.1307 76.6131 56.035 75.5174C53.0388 72.5212 50.0425 69.5249 47.0538 66.5287C46.8898 66.3647 46.778 66.1486 46.6065 65.9026C46.3009 66.1933 46.1221 66.3572 45.9432 66.5361C41.1432 71.3361 36.3433 76.1361 31.5359 80.9435C31.3719 81.1074 31.2079 81.2789 31.029 81.4279C30.4328 81.9124 29.6949 81.8826 29.1806 81.3609C28.6737 80.8391 28.6589 80.1087 29.1582 79.5199C29.2775 79.3708 29.4191 79.2441 29.5532 79.1025C34.7482 73.9075 39.9358 68.7125 45.1308 63.525C46.219 62.4368 46.7556 62.4442 47.8513 63.5399C50.8475 66.5361 53.8363 69.5324 56.8326 72.5286C56.9965 72.6926 57.1679 72.8491 57.2797 72.9535C63.4511 66.7746 69.6001 60.6256 75.861 54.3648C75.6597 54.1934 75.3541 53.9698 75.0858 53.7089C73.4833 52.1213 71.8958 50.5189 70.2933 48.9313C69.8088 48.4543 69.466 47.9475 69.7641 47.2394C70.0548 46.5388 70.6287 46.3897 71.3219 46.3897C75.6225 46.4046 79.9231 46.4121 84.2236 46.3897C85.0659 46.3897 85.6696 46.6431 85.9901 47.4406V61.7511L86.005 61.7362Z" fill="#C52126"/>
<path d="M55.722 67.52C53.6127 65.4032 51.5481 63.3163 49.4686 61.2517C48.0748 59.8728 46.1817 59.5747 44.5494 60.484C44.132 60.7151 43.7444 61.043 43.4016 61.3859C40.8898 63.8753 38.3929 66.3647 35.911 68.8839C35.5681 69.2343 35.2998 69.2715 34.8675 69.0777C27.28 65.6715 22.5024 59.9548 21.0117 51.7487C19.1633 41.5823 24.157 31.7737 33.347 27.0557C45.1978 20.9738 60.03 26.452 65.1281 38.8022C69.3989 49.1325 65.8064 60.8567 56.4822 67.0355C56.2512 67.1846 56.0201 67.3262 55.7145 67.52H55.722ZM39.6973 43.6096C39.9358 42.1786 40.8973 41.5748 42.0227 41.2171C43.5879 40.7103 45.1755 40.8668 46.7407 41.2991C47.3518 41.4705 47.7544 41.8432 47.8885 42.5214C48.0674 43.3711 48.7605 43.7885 49.5506 43.6096C50.2736 43.4456 50.6686 42.7748 50.5568 41.9401C50.3556 40.4121 49.4537 39.4357 48.0823 38.8842C46.2413 38.1463 44.3109 38.0569 42.373 38.3177C41.1059 38.4892 39.9582 38.996 38.9594 39.7935C37.7371 40.7624 37.0364 42.0295 36.9246 43.632C36.4923 43.632 36.1122 43.6171 35.7321 43.632C34.8153 43.6692 34.2414 44.2282 34.2489 45.0407C34.2638 45.8307 34.8302 46.3674 35.7172 46.4046C36.1122 46.4195 36.5147 46.4046 36.9097 46.4046V49.0878C36.4998 49.0878 36.142 49.0878 35.7768 49.0878C34.8526 49.1027 34.2563 49.6319 34.2414 50.4369C34.2265 51.2866 34.8079 51.8083 35.7843 51.8307C36.1569 51.8307 36.5371 51.8307 36.9023 51.8307C37.2079 53.8803 37.9308 55.1549 39.5184 56.0716C42.5147 57.8157 45.6152 57.6666 48.686 56.2803C49.8189 55.766 50.4152 54.7449 50.5717 53.4928C50.6761 52.6654 50.2736 52.0245 49.5133 51.853C48.7829 51.6816 48.06 52.1139 47.9034 52.9263C47.7618 53.6344 47.3295 54.007 46.7034 54.1785C45.3544 54.5586 43.968 54.7077 42.6041 54.3872C41.8662 54.2157 41.1581 53.7983 40.5097 53.381C40.0327 53.0754 39.7345 52.5536 39.7569 51.8307C39.9879 51.8307 40.1967 51.8307 40.3979 51.8307C41.501 51.8307 42.6115 51.8456 43.7146 51.8307C44.5792 51.8158 45.1606 51.2344 45.1531 50.4518C45.1457 49.6766 44.5419 49.1176 43.6848 49.0953C43.0885 49.0804 42.4923 49.0953 41.896 49.0953C41.1805 49.0953 40.4724 49.0953 39.742 49.0953V46.4121C40.4352 46.4121 41.0911 46.4121 41.747 46.4121C42.4476 46.4121 43.1556 46.4419 43.8488 46.3897C44.6314 46.3375 45.1606 45.7338 45.1531 45.0034C45.1457 44.2953 44.6314 43.7438 43.8711 43.6543C43.6177 43.6245 43.3643 43.632 43.1035 43.632C42.0004 43.632 40.8973 43.632 39.6973 43.632V43.6096Z" fill="#C52126"/>
</svg>
