<svg width="124" height="232" viewBox="0 0 124 232" fill="none" xmlns="http://www.w3.org/2000/svg">
<path d="M25.59 115.3C25.59 117.38 23.41 119.07 20.72 119.07C18.03 119.07 15.85 117.38 15.85 115.3C15.85 113.22 18.03 111.53 20.72 111.53C23.41 111.53 25.59 113.22 25.59 115.3Z" fill="#26316B"/>
<path d="M19.55 78H21.93C22.4 78.08 22.88 78.14 23.35 78.24C27.63 79.1 30.96 81.36 33.25 85.08C35.53 88.79 35.98 92.78 34.78 96.94C34.07 99.42 32.8 101.66 31.39 103.81C28.71 107.93 25.32 111.41 21.56 114.55C21 115.02 20.37 115 19.8 114.51C17.9 112.92 16.1 111.23 14.42 109.41C11.53 106.27 9.07998 102.83 7.34998 98.9C6.58998 97.18 6.10998 95.4 6.01998 93.53C5.87998 90.69 6.45998 87.99 7.89998 85.53C10.25 81.49 13.73 79.03 18.34 78.21C18.74 78.14 19.15 78.07 19.55 78ZM20.71 100.03C24.64 100.03 27.84 96.82 27.84 92.88C27.84 88.94 24.66 85.76 20.71 85.73C16.78 85.71 13.55 88.95 13.56 92.89C13.58 96.83 16.78 100.03 20.71 100.02" fill="#24428F"/>
<path d="M65.77 149.26C65.77 151.36 63.56 153.07 60.85 153.07C58.14 153.07 55.93 151.37 55.93 149.26C55.93 147.15 58.14 145.46 60.85 145.46C63.56 145.46 65.77 147.16 65.77 149.26Z" fill="#DC9227"/>
<path d="M59.69 112H62.09C62.57 112.08 63.05 112.14 63.53 112.24C67.85 113.11 71.22 115.39 73.53 119.15C75.84 122.9 76.29 126.93 75.08 131.13C74.36 133.63 73.07 135.89 71.66 138.07C68.95 142.23 65.52 145.75 61.73 148.92C61.16 149.39 60.53 149.37 59.95 148.89C58.03 147.28 56.21 145.58 54.52 143.74C51.6 140.56 49.13 137.09 47.38 133.12C46.6 131.38 46.12 129.58 46.02 127.68C45.87 124.81 46.46 122.09 47.92 119.6C50.29 115.52 53.81 113.04 58.47 112.21C58.88 112.14 59.29 112.07 59.69 112ZM60.86 134.26C64.83 134.26 68.06 131.02 68.06 127.04C68.06 123.06 64.85 119.84 60.86 119.82C56.89 119.79 53.62 123.07 53.64 127.06C53.66 131.04 56.89 134.27 60.86 134.26Z" fill="#F3A021"/>
<path d="M20.78 37.26C20.78 39.36 18.57 41.07 15.86 41.07C13.15 41.07 10.94 39.37 10.94 37.26C10.94 35.15 13.15 33.46 15.86 33.46C18.57 33.46 20.78 35.16 20.78 37.26Z" fill="#A82170"/>
<path d="M14.69 0H17.09C17.57 0.08 18.05 0.14 18.53 0.24C22.85 1.11 26.22 3.39 28.53 7.15C30.84 10.9 31.29 14.93 30.08 19.13C29.36 21.63 28.07 23.89 26.66 26.07C23.95 30.23 20.52 33.75 16.73 36.92C16.16 37.39 15.53 37.37 14.95 36.89C13.03 35.28 11.21 33.58 9.50998 31.74C6.58998 28.56 4.11999 25.09 2.36998 21.12C1.59999 19.38 1.10998 17.58 1.01998 15.68C0.869985 12.81 1.45998 10.09 2.91998 7.59C5.28998 3.52 8.80999 1.04 13.47 0.21C13.88 0.14 14.29 0.07 14.69 0ZM15.86 22.26C19.84 22.26 23.06 19.02 23.06 15.04C23.06 11.06 19.85 7.84 15.86 7.82C11.89 7.79 8.61998 11.07 8.63998 15.06C8.64998 19.04 11.89 22.27 15.86 22.26Z" fill="#E03493"/>
<path d="M113.77 227.26C113.77 229.36 111.56 231.07 108.85 231.07C106.14 231.07 103.93 229.37 103.93 227.26C103.93 225.15 106.14 223.46 108.85 223.46C111.56 223.46 113.77 225.16 113.77 227.26Z" fill="#DC9227"/>
<path d="M107.69 190H110.09C110.57 190.08 111.05 190.14 111.53 190.24C115.85 191.11 119.22 193.39 121.53 197.15C123.84 200.9 124.29 204.93 123.08 209.13C122.36 211.63 121.07 213.89 119.66 216.07C116.95 220.23 113.52 223.75 109.73 226.92C109.16 227.39 108.53 227.37 107.95 226.89C106.03 225.28 104.21 223.58 102.52 221.74C99.6 218.56 97.13 215.09 95.38 211.12C94.6 209.38 94.12 207.58 94.02 205.68C93.87 202.81 94.46 200.09 95.92 197.6C98.29 193.52 101.81 191.04 106.47 190.21C106.88 190.14 107.29 190.07 107.69 190ZM108.86 212.26C112.83 212.26 116.06 209.02 116.06 205.04C116.06 201.06 112.85 197.84 108.86 197.82C104.89 197.79 101.62 201.07 101.64 205.06C101.66 209.04 104.89 212.27 108.86 212.26Z" fill="#F3A021"/>
</svg>
