<svg width="183" height="78" viewBox="0 0 183 78" fill="none" xmlns="http://www.w3.org/2000/svg">
<g clip-path="url(#clip0_60_86164)">
<path d="M176.19 0.101196H6.80136C3.10058 0.101196 0.100513 3.12179 0.100513 6.84787V71.1437C0.100513 74.8698 3.10058 77.8904 6.80136 77.8904H176.19C179.891 77.8904 182.891 74.8698 182.891 71.1437V6.84787C182.891 3.12179 179.891 0.101196 176.19 0.101196Z" fill="white" stroke="#939598" stroke-width="0.25"/>
<path d="M20.6972 37.3175C20.6888 37.385 20.6553 37.444 20.6051 37.4946C20.5548 37.5452 20.4794 37.5705 20.3789 37.5705H20.2198C20.1277 37.5705 20.0523 37.5452 19.9936 37.4946C19.935 37.444 19.9015 37.385 19.8931 37.326L18.8461 32.8141L17.7991 37.326C17.7907 37.3934 17.7572 37.444 17.6986 37.4946C17.64 37.5452 17.573 37.5705 17.4724 37.5705H17.3133C17.2212 37.5705 17.1458 37.5452 17.0871 37.4946C17.0285 37.444 16.995 37.385 16.9866 37.3175L15.814 31.8021C15.814 31.8021 15.8056 31.7262 15.8056 31.6925C15.8056 31.625 15.8307 31.566 15.8894 31.4985C15.948 31.4311 16.0318 31.3973 16.1407 31.3973C16.2077 31.3973 16.2747 31.4142 16.3333 31.4564C16.3919 31.4985 16.4338 31.566 16.4589 31.6588L17.4054 36.0863L18.4357 31.6335C18.4524 31.566 18.4859 31.507 18.5362 31.4648C18.5865 31.4226 18.6618 31.3973 18.7624 31.3973H18.9048C18.9969 31.3973 19.0723 31.4226 19.1309 31.4648C19.1895 31.507 19.223 31.566 19.2398 31.6335L20.27 36.0863L21.2165 31.6588C21.2333 31.566 21.2752 31.4985 21.3338 31.4564C21.3924 31.4142 21.4594 31.3973 21.5265 31.3973C21.6353 31.3973 21.7191 31.4311 21.7777 31.4985C21.8364 31.566 21.8615 31.6419 21.8615 31.7178C21.8615 31.7431 21.8615 31.7768 21.8531 31.8021L20.6805 37.3175H20.6972Z" fill="#58595B"/>
<path d="M26.0747 37.2416C26.0747 37.326 26.0495 37.4103 25.9909 37.4778C25.9323 37.5452 25.8569 37.579 25.748 37.579C25.7145 37.579 25.6894 37.579 25.6894 37.579C25.5386 37.5537 25.4129 37.5115 25.3208 37.4525C25.2287 37.3934 25.1533 37.326 25.0947 37.2416C24.835 37.4693 24.5167 37.5874 24.1482 37.5874H24.0728C23.8969 37.5874 23.7294 37.5621 23.5535 37.5115C23.3859 37.4609 23.2352 37.3766 23.1012 37.2754C22.9671 37.1657 22.8666 37.0392 22.7829 36.879C22.6991 36.7188 22.6572 36.5417 22.6572 36.3308V36.2296C22.6572 36.0019 22.7075 35.808 22.808 35.6646C22.9085 35.5128 23.0341 35.3947 23.1849 35.302C23.3357 35.2092 23.5032 35.1417 23.6791 35.0911C23.855 35.0405 24.0309 35.0068 24.1984 34.9731C24.3659 34.9393 24.5083 34.914 24.634 34.8887C24.7596 34.8634 24.8434 34.8297 24.8769 34.7791C24.8853 34.7622 24.8936 34.7369 24.902 34.7116C24.902 34.6863 24.902 34.6526 24.902 34.6357C24.902 34.3743 24.835 34.1888 24.6926 34.0791C24.5502 33.9695 24.3827 33.9189 24.19 33.9189H24.1314C23.9471 33.9189 23.8047 33.9526 23.7042 34.0285C23.5953 34.1044 23.5032 34.2141 23.4278 34.3574C23.3943 34.4249 23.3524 34.4671 23.2938 34.4924C23.2352 34.5177 23.1849 34.5345 23.1263 34.5345C23.0425 34.5345 22.9671 34.5092 22.9001 34.4502C22.8331 34.3912 22.7996 34.3153 22.7996 34.2225C22.7996 34.155 22.808 34.1044 22.8331 34.0623C22.9001 33.902 22.9923 33.7755 23.0928 33.6659C23.1933 33.5647 23.3022 33.4804 23.4194 33.4129C23.5367 33.3454 23.654 33.3117 23.7796 33.278C23.9053 33.2442 24.0225 33.2358 24.1398 33.2358H24.1984C24.3911 33.2358 24.5753 33.2695 24.7429 33.337C24.9104 33.4045 25.0611 33.5057 25.1784 33.6237C25.3041 33.7502 25.3962 33.8936 25.4632 34.0538C25.5302 34.2141 25.5637 34.3912 25.5637 34.5851V36.626C25.5637 36.7862 25.6391 36.8874 25.7899 36.9127C25.8904 36.9296 25.9574 36.9718 26.0076 37.0308C26.0579 37.0898 26.0747 37.1573 26.0747 37.2248V37.2416ZM24.902 35.4706C24.7345 35.5128 24.567 35.5465 24.3827 35.5718C24.1984 35.5971 24.0309 35.6309 23.8718 35.6815C23.7126 35.7321 23.587 35.7911 23.4865 35.8839C23.3859 35.9682 23.3357 36.0863 23.3357 36.2296V36.2971C23.3357 36.4826 23.4027 36.6344 23.5451 36.7441C23.6791 36.8537 23.8634 36.9127 24.0812 36.9127H24.1565C24.3576 36.9127 24.5335 36.8453 24.6842 36.6935C24.835 36.5501 24.9104 36.373 24.9104 36.1622V35.4706H24.902Z" fill="#58595B"/>
<path d="M28.8471 37.2501C28.8471 37.3344 28.822 37.4103 28.7717 37.4778C28.7215 37.5452 28.6377 37.579 28.5205 37.579C28.3613 37.579 28.2105 37.5537 28.0765 37.4946C27.9341 37.4356 27.8169 37.3513 27.708 37.2501C27.6075 37.1489 27.5237 37.0224 27.4651 36.879C27.4064 36.7356 27.3813 36.5923 27.3813 36.432V33.9442H27.0714C26.9625 33.9442 26.8788 33.9105 26.8201 33.843C26.7615 33.7755 26.7364 33.6996 26.7364 33.6153C26.7364 33.531 26.7615 33.4551 26.8201 33.3876C26.8788 33.3201 26.9625 33.2864 27.0714 33.2864H27.3813V31.7515C27.3813 31.6419 27.4148 31.5576 27.4818 31.4985C27.5488 31.4395 27.6242 31.4142 27.708 31.4142C27.7917 31.4142 27.8671 31.4395 27.9341 31.4985C28.0011 31.5576 28.0346 31.6419 28.0346 31.7515V33.2864H28.5037C28.6126 33.2864 28.6964 33.3201 28.755 33.3876C28.8136 33.4551 28.8387 33.531 28.8387 33.6153C28.8387 33.6996 28.8136 33.7755 28.755 33.843C28.6964 33.9105 28.6126 33.9442 28.5037 33.9442H28.0346V36.4236C28.0346 36.5754 28.0849 36.6935 28.1854 36.7778C28.2859 36.8621 28.4032 36.9127 28.5372 36.9212C28.6461 36.9296 28.7215 36.9718 28.7717 37.0392C28.822 37.1067 28.8471 37.1742 28.8471 37.2585V37.2501Z" fill="#58595B"/>
<path d="M32.6582 35.3863C32.6582 35.4706 32.6247 35.555 32.5577 35.6224C32.4907 35.6899 32.4153 35.7236 32.3232 35.7236H30.4134V36.1706C30.4134 36.373 30.4888 36.5501 30.6312 36.7019C30.7736 36.8537 30.9495 36.9212 31.1589 36.9212H31.2427C31.4102 36.9212 31.5526 36.879 31.6699 36.7862C31.7871 36.7019 31.8709 36.5923 31.9295 36.4658C31.9546 36.3899 31.9965 36.3308 32.0552 36.3055C32.1054 36.2718 32.164 36.2549 32.2227 36.2549C32.3064 36.2549 32.3902 36.2887 32.4572 36.3561C32.5242 36.4236 32.5577 36.4995 32.5577 36.6007C32.5577 36.6597 32.5493 36.7103 32.5242 36.7525C32.4153 36.9971 32.2562 37.1995 32.03 37.3513C31.8039 37.5031 31.5442 37.579 31.2511 37.579H31.1673C30.9746 37.579 30.7904 37.5452 30.6229 37.4693C30.447 37.3934 30.3046 37.2922 30.1705 37.1657C30.0449 37.0392 29.9444 36.8874 29.869 36.7188C29.7936 36.5501 29.7601 36.3646 29.7601 36.1622V34.6526C29.7601 34.4586 29.7936 34.2731 29.869 34.1044C29.9444 33.9358 30.0449 33.784 30.1705 33.649C30.2962 33.5225 30.447 33.4213 30.6229 33.3454C30.7987 33.2695 30.9746 33.2358 31.1673 33.2358H31.2511C31.4437 33.2358 31.628 33.2695 31.7955 33.337C31.9714 33.4045 32.1138 33.5057 32.2478 33.6406C32.3734 33.7671 32.474 33.9189 32.5493 34.096C32.6247 34.2731 32.6582 34.4586 32.6582 34.661V35.3863ZM31.9965 34.661C31.9965 34.4418 31.9211 34.2647 31.7704 34.1213C31.6196 33.9779 31.4521 33.902 31.2594 33.902H31.1757C30.9746 33.902 30.7987 33.9779 30.648 34.1213C30.4972 34.2647 30.4218 34.4418 30.4218 34.6526V35.0911H31.9965V34.661Z" fill="#58595B"/>
<path d="M36.0003 33.8936C36.0003 33.9864 35.9668 34.0623 35.8998 34.1213C35.8328 34.1803 35.7574 34.2056 35.6736 34.2056C35.5731 34.2056 35.481 34.1635 35.4056 34.0791C35.3721 34.0454 35.3218 34.0032 35.2632 33.9611C35.2045 33.9189 35.1124 33.8936 35.0035 33.8936C34.8695 33.8936 34.7606 33.9105 34.6852 33.9442C34.6099 33.9779 34.5512 34.0285 34.5093 34.0791C34.4675 34.1297 34.4423 34.1972 34.434 34.2647C34.4256 34.3321 34.4172 34.408 34.4172 34.4755V37.2163C34.4172 37.3344 34.3837 37.4187 34.3167 37.4778C34.2497 37.5368 34.1743 37.5621 34.0905 37.5621C34.0068 37.5621 33.9314 37.5368 33.8644 37.4778C33.7974 37.4187 33.7555 37.3344 33.7555 37.2163V33.5563C33.7555 33.4551 33.789 33.3707 33.8644 33.3117C33.9398 33.2527 34.0152 33.2274 34.0989 33.2274C34.1575 33.2274 34.2162 33.2442 34.2664 33.2695C34.3167 33.2948 34.3586 33.337 34.3921 33.4045C34.4423 33.3707 34.5093 33.3286 34.6015 33.2864C34.6936 33.2442 34.836 33.2274 35.0203 33.2274C35.1878 33.2274 35.3553 33.2611 35.5228 33.3286C35.6904 33.396 35.8244 33.5057 35.9333 33.6575C35.9835 33.7418 36.0087 33.8177 36.0087 33.8852L36.0003 33.8936Z" fill="#58595B"/>
<path d="M42.0478 33.8936C42.0478 33.9864 42.0143 34.0623 41.9473 34.1213C41.8803 34.1803 41.8049 34.2056 41.7211 34.2056C41.6206 34.2056 41.5285 34.1635 41.4531 34.0791C41.4196 34.0454 41.3693 34.0032 41.3107 33.9611C41.2521 33.9189 41.1599 33.8936 41.051 33.8936C40.917 33.8936 40.8081 33.9105 40.7327 33.9442C40.6574 33.9779 40.5987 34.0285 40.5568 34.0791C40.515 34.1297 40.4898 34.1972 40.4815 34.2647C40.4731 34.3321 40.4647 34.408 40.4647 34.4755V37.2163C40.4647 37.3344 40.4312 37.4187 40.3642 37.4778C40.2972 37.5368 40.2218 37.5621 40.138 37.5621C40.0543 37.5621 39.9789 37.5368 39.9119 37.4778C39.8449 37.4187 39.803 37.3344 39.803 37.2163V33.5563C39.803 33.4551 39.8365 33.3707 39.9119 33.3117C39.9873 33.2527 40.0627 33.2274 40.1464 33.2274C40.2051 33.2274 40.2637 33.2442 40.3139 33.2695C40.3642 33.2948 40.4061 33.337 40.4396 33.4045C40.4898 33.3707 40.5568 33.3286 40.649 33.2864C40.7411 33.2442 40.8835 33.2274 41.0678 33.2274C41.2353 33.2274 41.4028 33.2611 41.5704 33.3286C41.7379 33.396 41.8719 33.5057 41.9808 33.6575C42.031 33.7418 42.0562 33.8177 42.0562 33.8852L42.0478 33.8936Z" fill="#58595B"/>
<path d="M45.683 35.3863C45.683 35.4706 45.6495 35.555 45.5825 35.6224C45.5155 35.6899 45.4401 35.7236 45.3479 35.7236H43.4382V36.1706C43.4382 36.373 43.5136 36.5501 43.656 36.7019C43.7984 36.8537 43.9743 36.9212 44.1837 36.9212H44.2674C44.435 36.9212 44.5774 36.879 44.6946 36.7862C44.8119 36.7019 44.8956 36.5923 44.9543 36.4658C44.9794 36.3899 45.0213 36.3308 45.0799 36.3055C45.1302 36.2718 45.1888 36.2549 45.2474 36.2549C45.3312 36.2549 45.415 36.2887 45.482 36.3561C45.549 36.4236 45.5825 36.4995 45.5825 36.6007C45.5825 36.6597 45.5741 36.7103 45.549 36.7525C45.4401 36.9971 45.2809 37.1995 45.0548 37.3513C44.8286 37.5031 44.569 37.579 44.2758 37.579H44.1921C43.9994 37.579 43.8151 37.5452 43.6476 37.4693C43.4717 37.3934 43.3293 37.2922 43.1953 37.1657C43.0697 37.0392 42.9691 36.8874 42.8938 36.7188C42.8184 36.5501 42.7849 36.3646 42.7849 36.1622V34.6526C42.7849 34.4586 42.8184 34.2731 42.8938 34.1044C42.9691 33.9358 43.0697 33.784 43.1953 33.649C43.3209 33.5225 43.4717 33.4213 43.6476 33.3454C43.8235 33.2695 43.9994 33.2358 44.1921 33.2358H44.2758C44.4685 33.2358 44.6527 33.2695 44.8203 33.337C44.9962 33.4045 45.1385 33.5057 45.2726 33.6406C45.3982 33.7671 45.4987 33.9189 45.5741 34.096C45.6495 34.2731 45.683 34.4586 45.683 34.661V35.3863ZM45.0213 34.661C45.0213 34.4418 44.9459 34.2647 44.7951 34.1213C44.6444 33.9779 44.4768 33.902 44.2842 33.902H44.2004C43.9994 33.902 43.8235 33.9779 43.6727 34.1213C43.522 34.2647 43.4466 34.4418 43.4466 34.6526V35.0911H45.0213V34.661Z" fill="#58595B"/>
<path d="M49.6616 36.3393C49.6616 36.5417 49.6197 36.7272 49.5276 36.879C49.4438 37.0308 49.3266 37.1573 49.1758 37.2585C49.025 37.3597 48.8659 37.4356 48.69 37.4947C48.5141 37.5537 48.3298 37.5706 48.1456 37.5706H48.0953C47.9529 37.5706 47.8105 37.5537 47.6597 37.5115C47.509 37.4778 47.3666 37.4188 47.2326 37.3429C47.0985 37.267 46.9729 37.1742 46.864 37.0646C46.7551 36.9549 46.663 36.8369 46.596 36.7019C46.5625 36.6345 46.5541 36.5754 46.5541 36.5333C46.5541 36.4321 46.5876 36.3562 46.663 36.2971C46.73 36.2381 46.8138 36.2128 46.8975 36.2128C46.9478 36.2128 46.998 36.2212 47.0567 36.2465C47.1069 36.2634 47.1572 36.3056 47.1991 36.3646C47.3079 36.508 47.4503 36.6429 47.6179 36.7525C47.7854 36.8622 47.9529 36.9212 48.112 36.9212H48.1539C48.422 36.9212 48.6314 36.8622 48.7738 36.7357C48.9161 36.6092 48.9915 36.4742 48.9999 36.3309C48.9999 36.1369 48.9497 35.9935 48.8408 35.8923C48.7319 35.7911 48.5895 35.7237 48.422 35.6646C48.2544 35.614 48.0702 35.5634 47.8691 35.5297C47.6681 35.496 47.4838 35.4369 47.3163 35.3526C47.1488 35.2767 47.0064 35.1586 46.8891 35.0068C46.7719 34.855 46.7216 34.6442 46.7216 34.3659C46.7216 34.1551 46.7719 33.9779 46.8724 33.8346C46.9729 33.6912 47.0902 33.5731 47.2326 33.4888C47.375 33.4045 47.5257 33.337 47.6932 33.3033C47.8608 33.2696 48.0115 33.2442 48.1539 33.2442H48.1874C48.3382 33.2442 48.4806 33.2611 48.6062 33.2864C48.7319 33.3202 48.8408 33.3539 48.9413 33.3876C49.0418 33.4298 49.1172 33.4635 49.1842 33.5141C49.2512 33.5563 49.3014 33.5984 49.335 33.6237C49.4187 33.6912 49.4606 33.7755 49.4606 33.8767C49.4606 33.9611 49.4355 34.0286 49.3768 34.096C49.3182 34.1635 49.2428 34.1888 49.1507 34.1888C49.092 34.1888 49.025 34.1719 48.958 34.1382L48.6481 33.9864C48.5392 33.9273 48.3801 33.9021 48.1874 33.9021H48.1539C47.911 33.9021 47.7184 33.9526 47.5927 34.0454C47.4671 34.1382 47.4001 34.2478 47.3917 34.3828C47.3917 34.543 47.442 34.661 47.5509 34.7369C47.6597 34.8128 47.8021 34.8719 47.9697 34.9225C48.1372 34.9731 48.3214 35.0153 48.5141 35.0574C48.7067 35.0996 48.891 35.1671 49.0669 35.2598C49.2428 35.3526 49.3852 35.4791 49.4941 35.6393C49.6114 35.7996 49.6616 36.0357 49.6616 36.3224V36.3562V36.3393Z" fill="#58595B"/>
<path d="M53.5146 36.1622C53.5146 36.3646 53.4811 36.5501 53.4057 36.7188C53.3303 36.8874 53.2298 37.0392 53.1042 37.1657C52.9785 37.2922 52.8278 37.3934 52.6519 37.4693C52.476 37.5452 52.3001 37.579 52.1074 37.579H52.0237C51.831 37.579 51.6467 37.5452 51.4792 37.4693C51.3033 37.3934 51.1609 37.2922 51.0269 37.1657C50.9013 37.0392 50.8008 36.8874 50.7254 36.7188C50.65 36.5501 50.6165 36.3646 50.6165 36.1622V34.6526C50.6165 34.4586 50.65 34.2731 50.7254 34.1044C50.8008 33.9358 50.9013 33.784 51.0269 33.649C51.1526 33.5225 51.3033 33.4213 51.4792 33.3454C51.6551 33.2695 51.831 33.2358 52.0237 33.2358H52.1074C52.3001 33.2358 52.4843 33.2695 52.6519 33.3454C52.8278 33.4213 52.9702 33.5225 53.1042 33.649C53.2298 33.7755 53.3303 33.9273 53.4057 34.1044C53.4811 34.2815 53.5146 34.4586 53.5146 34.6526V36.1622ZM52.8529 34.6526C52.8529 34.4502 52.7775 34.2731 52.6351 34.1213C52.4927 33.9779 52.3168 33.902 52.1074 33.902H52.0237C51.8226 33.902 51.6467 33.9779 51.496 34.1213C51.3536 34.2647 51.2782 34.4418 51.2782 34.6526V36.1622C51.2782 36.3646 51.3536 36.5417 51.496 36.6935C51.6384 36.8453 51.8226 36.9127 52.032 36.9127H52.1074C52.3084 36.9127 52.4843 36.8368 52.6351 36.6935C52.7859 36.5501 52.8529 36.373 52.8529 36.1622V34.6526Z" fill="#58595B"/>
<path d="M57.5602 37.2501C57.5602 37.3513 57.5267 37.4356 57.4597 37.4946C57.3927 37.5537 57.3173 37.579 57.2336 37.579C57.1582 37.579 57.0912 37.5621 57.0242 37.5199C56.9572 37.4778 56.9153 37.4103 56.8985 37.326C56.8148 37.4103 56.7059 37.4693 56.5719 37.5115C56.4378 37.5537 56.2954 37.579 56.1447 37.579H56.0693C55.885 37.579 55.7008 37.5537 55.5332 37.4946C55.3573 37.4356 55.2149 37.3513 55.0809 37.2416C54.9553 37.1236 54.8548 36.9802 54.771 36.8031C54.6956 36.626 54.6537 36.4152 54.6537 36.1706V33.5731C54.6537 33.4635 54.6872 33.3792 54.7543 33.3201C54.8213 33.2611 54.8966 33.2358 54.9804 33.2358C55.0642 33.2358 55.1396 33.2611 55.2066 33.3201C55.2736 33.3792 55.3155 33.4635 55.3155 33.5731V36.1706C55.3155 36.373 55.3908 36.5501 55.5332 36.7019C55.6756 36.8537 55.8515 36.9212 56.0609 36.9212H56.1363C56.3457 36.9212 56.5216 36.8453 56.6724 36.7019C56.8231 36.5585 56.8901 36.3814 56.8901 36.1706V33.5731C56.8901 33.4635 56.9237 33.3792 56.9907 33.3201C57.0577 33.2611 57.1331 33.2358 57.2168 33.2358C57.3006 33.2358 57.376 33.2611 57.443 33.3201C57.51 33.3792 57.5435 33.4635 57.5435 33.5731V37.2501H57.5602Z" fill="#58595B"/>
<path d="M61.0363 33.8936C61.0363 33.9864 61.0028 34.0623 60.9358 34.1213C60.8688 34.1803 60.7934 34.2056 60.7096 34.2056C60.6091 34.2056 60.517 34.1635 60.4416 34.0791C60.4081 34.0454 60.3578 34.0032 60.2992 33.9611C60.2406 33.9189 60.1484 33.8936 60.0395 33.8936C59.9055 33.8936 59.7966 33.9105 59.7213 33.9442C59.6459 33.9779 59.5872 34.0285 59.5454 34.0791C59.5035 34.1297 59.4784 34.1972 59.47 34.2647C59.4616 34.3321 59.4532 34.408 59.4532 34.4755V37.2163C59.4532 37.3344 59.4197 37.4187 59.3527 37.4778C59.2857 37.5368 59.2103 37.5621 59.1266 37.5621C59.0428 37.5621 58.9674 37.5368 58.9004 37.4778C58.8334 37.4187 58.7915 37.3344 58.7915 37.2163V33.5563C58.7915 33.4551 58.825 33.3707 58.9004 33.3117C58.9758 33.2527 59.0512 33.2274 59.1349 33.2274C59.1936 33.2274 59.2522 33.2442 59.3025 33.2695C59.3527 33.2948 59.3946 33.337 59.4281 33.4045C59.4783 33.3707 59.5454 33.3286 59.6375 33.2864C59.7296 33.2442 59.872 33.2274 60.0563 33.2274C60.2238 33.2274 60.3913 33.2611 60.5589 33.3286C60.7264 33.396 60.8604 33.5057 60.9693 33.6575C61.0195 33.7418 61.0447 33.8177 61.0447 33.8852L61.0363 33.8936Z" fill="#58595B"/>
<path d="M64.6799 36.1622C64.6799 36.3646 64.6464 36.5501 64.571 36.7188C64.4956 36.8874 64.3951 37.0392 64.2695 37.1657C64.1438 37.2922 63.993 37.3934 63.8171 37.4693C63.6413 37.5452 63.4654 37.579 63.2727 37.579H63.1889C62.9963 37.579 62.812 37.5452 62.6445 37.4693C62.477 37.3934 62.3262 37.2922 62.1922 37.1657C62.0666 37.0392 61.966 36.8874 61.8907 36.7188C61.8153 36.5501 61.7818 36.3646 61.7818 36.1622V34.6526C61.7818 34.4502 61.8153 34.2647 61.899 34.096C61.9744 33.9189 62.0749 33.7755 62.2006 33.649C62.3262 33.5225 62.477 33.4213 62.6445 33.3454C62.8204 33.2695 62.9963 33.2358 63.1889 33.2358H63.2727C63.4654 33.2358 63.6496 33.2695 63.8171 33.3454C63.993 33.4213 64.1354 33.5225 64.2611 33.649C64.3867 33.7755 64.4872 33.9273 64.5626 34.1044C64.638 34.2815 64.6799 34.4586 64.6799 34.6526C64.6799 34.7622 64.6464 34.8466 64.571 34.9056C64.504 34.9646 64.4286 34.9899 64.3448 34.9899C64.2611 34.9899 64.1857 34.9646 64.1187 34.914C64.0517 34.8634 64.0182 34.7791 64.0098 34.6695C64.0014 34.4502 63.926 34.2647 63.7836 34.1213C63.6413 33.9779 63.4737 33.9105 63.2643 33.9105H63.1806C62.9795 33.9105 62.8036 33.9864 62.6529 34.1297C62.5105 34.2731 62.4351 34.4502 62.4351 34.661V36.1706C62.4351 36.373 62.5105 36.5501 62.6529 36.7019C62.7953 36.8453 62.9795 36.9212 63.1889 36.9212H63.2643C63.4654 36.9212 63.6413 36.8453 63.7836 36.7019C63.926 36.5585 64.0014 36.3814 64.0098 36.1706C64.0098 36.0525 64.0517 35.9682 64.1187 35.9092C64.1857 35.8501 64.2611 35.8248 64.3448 35.8248C64.4286 35.8248 64.504 35.8501 64.571 35.9092C64.638 35.9682 64.6799 36.0525 64.6799 36.1706V36.1622Z" fill="#58595B"/>
<path d="M68.5831 35.3863C68.5831 35.4706 68.5496 35.555 68.4826 35.6224C68.4156 35.6899 68.3402 35.7236 68.2481 35.7236H66.3383V36.1706C66.3383 36.373 66.4137 36.5501 66.5561 36.7019C66.6985 36.8537 66.8744 36.9212 67.0838 36.9212H67.1676C67.3351 36.9212 67.4775 36.879 67.5947 36.7862C67.712 36.7019 67.7958 36.5923 67.8544 36.4658C67.8795 36.3899 67.9214 36.3308 67.98 36.3055C68.0303 36.2718 68.0889 36.2549 68.1476 36.2549C68.2313 36.2549 68.3151 36.2887 68.3821 36.3561C68.4491 36.4236 68.4826 36.4995 68.4826 36.6007C68.4826 36.6597 68.4742 36.7103 68.4491 36.7525C68.3402 36.9971 68.1811 37.1995 67.9549 37.3513C67.7288 37.5031 67.4691 37.579 67.1759 37.579H67.0922C66.8995 37.579 66.7153 37.5452 66.5477 37.4693C66.3718 37.3934 66.2295 37.2922 66.0954 37.1657C65.9698 37.0392 65.8693 36.8874 65.7939 36.7188C65.7185 36.5501 65.685 36.3646 65.685 36.1622V34.6526C65.685 34.4586 65.7185 34.2731 65.7939 34.1044C65.8693 33.9358 65.9698 33.784 66.0954 33.649C66.2211 33.5225 66.3718 33.4213 66.5477 33.3454C66.7236 33.2695 66.8995 33.2358 67.0922 33.2358H67.1759C67.3686 33.2358 67.5529 33.2695 67.7204 33.337C67.8963 33.4045 68.0387 33.5057 68.1727 33.6406C68.2983 33.7671 68.3988 33.9189 68.4742 34.096C68.5496 34.2731 68.5831 34.4586 68.5831 34.661V35.3863ZM67.9214 34.661C67.9214 34.4418 67.846 34.2647 67.6953 34.1213C67.5445 33.9779 67.377 33.902 67.1843 33.902H67.1006C66.8995 33.902 66.7236 33.9779 66.5729 34.1213C66.4221 34.2647 66.3467 34.4418 66.3467 34.6526V35.0911H67.9214V34.661Z" fill="#58595B"/>
<path d="M77.8889 37.2501C77.8889 37.3597 77.8554 37.444 77.78 37.4946C77.7046 37.5452 77.6376 37.5705 77.5539 37.5705C77.4701 37.5705 77.3947 37.5452 77.3277 37.4946C77.2607 37.444 77.2188 37.3597 77.2188 37.2501V34.6442C77.2188 34.3996 77.1518 34.2141 77.0094 34.0876C76.8754 33.9611 76.6911 33.902 76.4734 33.902H76.398C76.1886 33.902 76.0127 33.9779 75.8619 34.1213C75.7195 34.2647 75.6441 34.4418 75.6441 34.661V37.2332C75.6441 37.3513 75.6106 37.4356 75.5436 37.4946C75.4766 37.5537 75.4012 37.579 75.3175 37.579C75.2337 37.579 75.1583 37.5537 75.0913 37.4946C75.0243 37.4356 74.9824 37.3513 74.9824 37.2332V34.661C74.9824 34.4418 74.907 34.2562 74.7646 34.1129C74.6223 33.9695 74.438 33.902 74.2286 33.902H74.1532C73.9522 33.902 73.7763 33.9611 73.6255 34.0876C73.4747 34.2141 73.3993 34.3743 73.3993 34.5767V37.2416C73.3993 37.3513 73.3658 37.4356 73.2988 37.4862C73.2318 37.5368 73.1564 37.5621 73.0727 37.5621C72.9889 37.5621 72.9135 37.5368 72.8465 37.4862C72.7795 37.4356 72.7376 37.3513 72.7376 37.2416V33.5647C72.7376 33.4635 72.7711 33.3792 72.8465 33.3201C72.9219 33.2611 72.9973 33.2358 73.0811 33.2358C73.1481 33.2358 73.2151 33.2611 73.2821 33.3033C73.3491 33.3454 73.3826 33.4129 73.4077 33.5057C73.4915 33.4213 73.6004 33.3623 73.7344 33.3117C73.8684 33.2611 74.0108 33.2442 74.1616 33.2442H74.237C74.4547 33.2442 74.6641 33.2864 74.8484 33.3792C75.0327 33.4719 75.1918 33.59 75.3258 33.7418C75.4599 33.59 75.619 33.4635 75.8033 33.3792C75.9876 33.2864 76.1886 33.2442 76.4147 33.2442H76.4901C76.6744 33.2442 76.8587 33.2695 77.0262 33.3286C77.1937 33.3876 77.3445 33.4719 77.4785 33.5816C77.6125 33.6912 77.713 33.843 77.7884 34.0201C77.8638 34.1972 77.9057 34.408 77.9057 34.6526V37.2585L77.8889 37.2501Z" fill="#58595B"/>
<path d="M82.3031 37.2416C82.3031 37.326 82.278 37.4103 82.2193 37.4778C82.1607 37.5452 82.0853 37.579 81.9764 37.579C81.9429 37.579 81.9178 37.579 81.9178 37.579C81.767 37.5537 81.6414 37.5115 81.5493 37.4525C81.4571 37.3934 81.3817 37.326 81.3231 37.2416C81.0634 37.4693 80.7451 37.5874 80.3766 37.5874H80.3012C80.1253 37.5874 79.9578 37.5621 79.7819 37.5115C79.6144 37.4609 79.4636 37.3766 79.3296 37.2754C79.1956 37.1657 79.0951 37.0392 79.0113 36.879C78.9275 36.7188 78.8857 36.5417 78.8857 36.3308V36.2296C78.8857 36.0019 78.9359 35.808 79.0364 35.6646C79.1369 35.5128 79.2626 35.3947 79.4134 35.302C79.5641 35.2092 79.7316 35.1417 79.9075 35.0911C80.0834 35.0405 80.2593 35.0068 80.4269 34.9731C80.5944 34.9393 80.7368 34.914 80.8624 34.8887C80.9881 34.8634 81.0718 34.8297 81.1053 34.7791C81.1137 34.7622 81.1221 34.7369 81.1304 34.7116C81.1304 34.6863 81.1304 34.6526 81.1304 34.6357C81.1304 34.3743 81.0634 34.1888 80.921 34.0791C80.7787 33.9695 80.6111 33.9189 80.4185 33.9189H80.3599C80.1756 33.9189 80.0332 33.9526 79.9327 34.0285C79.8238 34.1044 79.7316 34.2141 79.6563 34.3574C79.6228 34.4249 79.5809 34.4671 79.5222 34.4924C79.4636 34.5177 79.4134 34.5345 79.3547 34.5345C79.271 34.5345 79.1956 34.5092 79.1286 34.4502C79.0616 34.3912 79.0281 34.3153 79.0281 34.2225C79.0281 34.155 79.0364 34.1044 79.0616 34.0623C79.1286 33.902 79.2207 33.7755 79.3212 33.6659C79.4217 33.5647 79.5306 33.4804 79.6479 33.4129C79.7651 33.3454 79.8824 33.3117 80.0081 33.278C80.1337 33.2442 80.251 33.2358 80.3682 33.2358H80.4269C80.6195 33.2358 80.8038 33.2695 80.9713 33.337C81.1388 33.4045 81.2896 33.5057 81.4069 33.6237C81.5325 33.7502 81.6246 33.8936 81.6916 34.0538C81.7587 34.2141 81.7922 34.3912 81.7922 34.5851V36.626C81.7922 36.7862 81.8675 36.8874 82.0183 36.9127C82.1188 36.9296 82.1858 36.9718 82.2361 37.0308C82.2863 37.0898 82.3031 37.1573 82.3031 37.2248V37.2416ZM81.1304 35.4706C80.9629 35.5128 80.7954 35.5465 80.6111 35.5718C80.4269 35.5971 80.2593 35.6309 80.1002 35.6815C79.941 35.7321 79.8154 35.7911 79.7149 35.8839C79.6144 35.9682 79.5641 36.0863 79.5641 36.2296V36.2971C79.5641 36.4826 79.6311 36.6344 79.7735 36.7441C79.9075 36.8537 80.0918 36.9127 80.3096 36.9127H80.385C80.586 36.9127 80.7619 36.8453 80.9127 36.6935C81.0634 36.5501 81.1388 36.373 81.1388 36.1622V35.4706H81.1304Z" fill="#58595B"/>
<path d="M86.1645 37.2501C86.1645 37.3597 86.1309 37.4441 86.0639 37.4947C85.9969 37.5453 85.9216 37.5706 85.8378 37.5706C85.754 37.5706 85.6786 37.5453 85.6116 37.4947C85.5446 37.4441 85.5111 37.3597 85.5111 37.2501V34.6526C85.5111 34.4502 85.4357 34.2731 85.2933 34.1213C85.151 33.9779 84.9667 33.9021 84.7573 33.9021H84.6819C84.4809 33.9021 84.305 33.9779 84.1542 34.1213C84.0034 34.2647 83.928 34.4418 83.928 34.6526V37.2501C83.928 37.3597 83.8945 37.4441 83.8275 37.4947C83.7605 37.5453 83.6851 37.5706 83.6014 37.5706C83.5176 37.5706 83.4422 37.5453 83.3752 37.4947C83.3082 37.4441 83.2663 37.3597 83.2663 37.2501V33.5732C83.2663 33.472 83.2998 33.3876 83.3752 33.3286C83.4506 33.2695 83.526 33.2442 83.6098 33.2442C83.6851 33.2442 83.7521 33.2695 83.8192 33.3117C83.8862 33.3539 83.928 33.4214 83.9448 33.5141C84.0286 33.4298 84.1374 33.3707 84.2715 33.3201C84.4055 33.2695 84.5479 33.2527 84.6986 33.2527H84.774C84.9583 33.2527 85.1426 33.278 85.3101 33.337C85.4776 33.396 85.6284 33.4804 85.754 33.5984C85.8797 33.7165 85.9802 33.8599 86.0639 34.0454C86.1393 34.2225 86.1812 34.4333 86.1812 34.6779V37.2754L86.1645 37.2501Z" fill="#58595B"/>
<path d="M90.5786 37.2416C90.5786 37.326 90.5535 37.4103 90.4949 37.4778C90.4362 37.5452 90.3609 37.579 90.252 37.579C90.2185 37.579 90.1933 37.579 90.1933 37.579C90.0426 37.5537 89.9169 37.5115 89.8248 37.4525C89.7327 37.3934 89.6573 37.326 89.5986 37.2416C89.339 37.4693 89.0207 37.5874 88.6521 37.5874H88.5768C88.4009 37.5874 88.2333 37.5621 88.0574 37.5115C87.8815 37.4609 87.7391 37.3766 87.6051 37.2754C87.4711 37.1657 87.3706 37.0392 87.2868 36.879C87.2031 36.7188 87.1612 36.5417 87.1612 36.3308V36.2296C87.1612 36.0019 87.2115 35.808 87.312 35.6646C87.4125 35.5128 87.5381 35.3947 87.6889 35.302C87.8397 35.2092 88.0072 35.1417 88.1831 35.0911C88.359 35.0405 88.5349 35.0068 88.7024 34.9731C88.8615 34.9393 89.0123 34.914 89.138 34.8887C89.2636 34.8634 89.3474 34.8297 89.3809 34.7791C89.3892 34.7622 89.3976 34.7369 89.406 34.7116C89.406 34.6863 89.406 34.6526 89.406 34.6357C89.406 34.3743 89.339 34.1888 89.1966 34.0791C89.0542 33.9695 88.8867 33.9189 88.694 33.9189H88.6354C88.4511 33.9189 88.3087 33.9526 88.2082 34.0285C88.0993 34.1044 88.0072 34.2141 87.9318 34.3574C87.8983 34.4249 87.8564 34.4671 87.7978 34.4924C87.7392 34.5177 87.6889 34.5345 87.6303 34.5345C87.5465 34.5345 87.4711 34.5092 87.4041 34.4502C87.3371 34.3912 87.3036 34.3153 87.3036 34.2225C87.3036 34.155 87.312 34.1044 87.3371 34.0623C87.4041 33.902 87.4962 33.7755 87.5968 33.6659C87.6973 33.5563 87.8062 33.4804 87.9234 33.4129C88.0407 33.3539 88.158 33.3117 88.2836 33.278C88.4092 33.2527 88.5265 33.2358 88.6438 33.2358H88.7024C88.895 33.2358 89.0793 33.2695 89.2468 33.337C89.4144 33.4045 89.5651 33.5057 89.6824 33.6237C89.808 33.7502 89.9002 33.8936 89.9672 34.0538C90.0342 34.2141 90.0677 34.3912 90.0677 34.5851V36.626C90.0677 36.7862 90.1431 36.8874 90.2938 36.9127C90.3944 36.9296 90.4614 36.9718 90.5116 37.0308C90.5535 37.0898 90.5786 37.1573 90.5786 37.2248V37.2416ZM89.406 35.4706C89.2385 35.5128 89.0709 35.5465 88.8867 35.5718C88.7024 35.5971 88.5349 35.6309 88.3757 35.6815C88.2166 35.7321 88.0909 35.7911 87.9904 35.8839C87.8899 35.9766 87.8397 36.0863 87.8397 36.2296V36.2971C87.8397 36.4826 87.9067 36.6344 88.0491 36.7441C88.1831 36.8537 88.3674 36.9127 88.5851 36.9127H88.6605C88.8615 36.9127 89.0374 36.8453 89.1882 36.6935C89.339 36.5501 89.4144 36.373 89.4144 36.1622V35.4706H89.406Z" fill="#58595B"/>
<path d="M94.3897 38.0006C94.3897 38.203 94.3562 38.3886 94.2808 38.5572C94.2055 38.7259 94.1049 38.8777 93.9793 39.0126C93.8537 39.1391 93.7029 39.2403 93.527 39.3162C93.3511 39.3921 93.1752 39.4259 92.9826 39.4259H92.9072C92.7564 39.4259 92.6056 39.409 92.4465 39.3668C92.2873 39.3247 92.145 39.2656 92.0109 39.1897C91.8769 39.1138 91.7597 39.0126 91.6508 38.8946C91.5419 38.7765 91.4665 38.6331 91.4246 38.4645C91.4162 38.4054 91.4079 38.3717 91.4079 38.3464C91.4079 38.2452 91.4414 38.1693 91.5084 38.1103C91.5754 38.0512 91.6591 38.0259 91.7429 38.0259C91.8853 38.0259 91.9942 38.1018 92.0528 38.2536C92.1031 38.397 92.2036 38.5235 92.3544 38.6163C92.5051 38.709 92.6894 38.7596 92.8988 38.7596H92.9742C93.1752 38.7596 93.3511 38.6837 93.5019 38.5404C93.6443 38.397 93.7197 38.2115 93.7197 38.0006V37.326C93.6443 37.4103 93.5354 37.4693 93.393 37.5115C93.2506 37.5537 93.1082 37.579 92.9574 37.579H92.8988C92.7062 37.579 92.5219 37.5452 92.3544 37.4693C92.1868 37.3934 92.0361 37.2922 91.9021 37.1657C91.7764 37.0392 91.6675 36.8874 91.5921 36.7188C91.5167 36.5501 91.4749 36.3646 91.4749 36.1622V34.6526C91.4749 34.4586 91.5084 34.2731 91.5921 34.1044C91.6675 33.9273 91.768 33.784 91.9021 33.649C92.0277 33.5225 92.1785 33.4213 92.3544 33.3454C92.5303 33.2695 92.7062 33.2358 92.8988 33.2358H92.9742C93.1585 33.2358 93.3176 33.2611 93.4432 33.3201C93.5689 33.3792 93.661 33.4382 93.728 33.4972C93.7364 33.4129 93.7783 33.3454 93.8453 33.2948C93.9123 33.2527 93.9793 33.2274 94.0547 33.2274C94.1385 33.2274 94.2138 33.2527 94.2808 33.3033C94.3479 33.3539 94.3814 33.4382 94.3814 33.5478V37.9838L94.3897 38.0006ZM93.728 34.602C93.728 34.3827 93.6526 34.2141 93.5019 34.0876C93.3511 33.9611 93.1836 33.902 92.9826 33.902H92.9072C92.7061 33.902 92.5303 33.9779 92.3795 34.1213C92.2287 34.2647 92.1533 34.4418 92.1533 34.6526V36.1622C92.1533 36.373 92.2287 36.5501 92.3795 36.6935C92.5303 36.8368 92.7061 36.9127 92.9072 36.9127H92.9826C93.1836 36.9127 93.3511 36.8537 93.5019 36.7272C93.6526 36.6007 93.728 36.4405 93.728 36.2381V34.602Z" fill="#58595B"/>
<path d="M98.5108 35.3863C98.5108 35.4706 98.4772 35.555 98.4102 35.6224C98.3432 35.6899 98.2678 35.7236 98.1757 35.7236H96.266V36.1706C96.266 36.373 96.3414 36.5501 96.4838 36.7019C96.6261 36.8537 96.802 36.9212 97.0114 36.9212H97.0952C97.2627 36.9212 97.4051 36.879 97.5224 36.7862C97.6313 36.7019 97.7234 36.5923 97.782 36.4658C97.8072 36.3899 97.849 36.3308 97.9077 36.3055C97.9579 36.2718 98.0166 36.2549 98.0752 36.2549C98.159 36.2549 98.2427 36.2887 98.3097 36.3561C98.3767 36.4236 98.4102 36.4995 98.4102 36.6007C98.4102 36.6597 98.4019 36.7103 98.3767 36.7525C98.2678 36.9971 98.1087 37.1995 97.8826 37.3513C97.6564 37.5031 97.3967 37.579 97.1036 37.579H97.0198C96.8272 37.579 96.6429 37.5452 96.4754 37.4693C96.3079 37.3934 96.1571 37.2922 96.0231 37.1657C95.8974 37.0392 95.7969 36.8874 95.7215 36.7188C95.6461 36.5501 95.6126 36.3646 95.6126 36.1622V34.6526C95.6126 34.4586 95.6461 34.2731 95.7215 34.1044C95.7969 33.9358 95.8974 33.784 96.0231 33.649C96.1487 33.5141 96.2995 33.4213 96.4754 33.3454C96.6513 33.2695 96.8272 33.2358 97.0198 33.2358H97.1036C97.2962 33.2358 97.4805 33.2695 97.648 33.337C97.8239 33.4045 97.9663 33.5057 98.1003 33.6406C98.2343 33.7755 98.3265 33.9189 98.4019 34.096C98.4773 34.2731 98.5108 34.4586 98.5108 34.661V35.3863ZM97.849 34.661C97.849 34.4418 97.7737 34.2647 97.6229 34.1213C97.4721 33.9779 97.3046 33.902 97.112 33.902H97.0282C96.8272 33.902 96.6513 33.9779 96.5005 34.1213C96.3497 34.2647 96.2743 34.4418 96.2743 34.6526V35.0911H97.849V34.661Z" fill="#58595B"/>
<path d="M104.793 37.2501C104.793 37.3597 104.759 37.444 104.692 37.4946C104.625 37.5452 104.55 37.5705 104.466 37.5705C104.382 37.5705 104.307 37.5452 104.24 37.4946C104.173 37.444 104.139 37.3597 104.139 37.2501V34.6442C104.139 34.3996 104.072 34.2141 103.93 34.0876C103.796 33.9611 103.612 33.902 103.394 33.902H103.319C103.109 33.902 102.933 33.9779 102.783 34.1213C102.64 34.2647 102.565 34.4418 102.565 34.661V37.2332C102.565 37.3513 102.531 37.4356 102.464 37.4946C102.397 37.5537 102.322 37.579 102.238 37.579C102.154 37.579 102.079 37.5537 102.012 37.4946C101.945 37.4356 101.903 37.3513 101.903 37.2332V34.661C101.903 34.4418 101.828 34.2562 101.685 34.1129C101.543 33.9695 101.359 33.902 101.149 33.902H101.074C100.873 33.902 100.697 33.9611 100.546 34.0876C100.395 34.2141 100.32 34.3743 100.32 34.5767V37.2416C100.32 37.3513 100.286 37.4356 100.219 37.4862C100.152 37.5368 100.077 37.5621 99.9933 37.5621C99.9096 37.5621 99.8342 37.5368 99.7672 37.4862C99.7002 37.4356 99.6583 37.3513 99.6583 37.2416V33.5647C99.6583 33.4635 99.6918 33.3792 99.7672 33.3201C99.8342 33.2611 99.9179 33.2358 100.002 33.2358C100.069 33.2358 100.136 33.2611 100.203 33.3033C100.27 33.3454 100.303 33.4129 100.328 33.5057C100.412 33.4213 100.521 33.3623 100.655 33.3117C100.789 33.2611 100.931 33.2442 101.082 33.2442H101.158C101.375 33.2442 101.585 33.2864 101.769 33.3792C101.953 33.4719 102.112 33.59 102.246 33.7418C102.38 33.59 102.54 33.4635 102.724 33.3792C102.908 33.2864 103.109 33.2442 103.335 33.2442H103.411C103.595 33.2442 103.779 33.2695 103.947 33.3286C104.114 33.3876 104.265 33.4719 104.399 33.5816C104.533 33.6996 104.634 33.843 104.709 34.0201C104.784 34.1972 104.826 34.408 104.826 34.6526V37.2585L104.793 37.2501Z" fill="#58595B"/>
<path d="M108.83 35.3863C108.83 35.4706 108.797 35.555 108.73 35.6224C108.663 35.6899 108.587 35.7236 108.495 35.7236H106.585V36.1706C106.585 36.373 106.661 36.5501 106.803 36.7019C106.945 36.8537 107.121 36.9212 107.331 36.9212H107.415C107.582 36.9212 107.724 36.879 107.842 36.7862C107.951 36.7019 108.043 36.5923 108.101 36.4658C108.126 36.3899 108.168 36.3308 108.227 36.3055C108.286 36.2802 108.336 36.2549 108.394 36.2549C108.478 36.2549 108.562 36.2887 108.629 36.3561C108.696 36.4236 108.73 36.4995 108.73 36.6007C108.73 36.6597 108.721 36.7103 108.696 36.7525C108.596 36.9971 108.428 37.1995 108.202 37.3513C107.976 37.5031 107.716 37.579 107.423 37.579H107.339C107.146 37.579 106.962 37.5452 106.795 37.4693C106.619 37.3934 106.476 37.2922 106.342 37.1657C106.217 37.0392 106.116 36.8874 106.041 36.7188C105.965 36.5501 105.932 36.3646 105.932 36.1622V34.6526C105.932 34.4586 105.965 34.2731 106.041 34.1044C106.116 33.9358 106.217 33.784 106.342 33.649C106.468 33.5225 106.619 33.4213 106.795 33.3454C106.971 33.2695 107.146 33.2358 107.339 33.2358H107.423C107.616 33.2358 107.8 33.2695 107.967 33.337C108.143 33.4045 108.286 33.5057 108.42 33.6406C108.545 33.7671 108.646 33.9189 108.721 34.096C108.797 34.2731 108.83 34.4586 108.83 34.661V35.3863ZM108.168 34.661C108.168 34.4418 108.093 34.2647 107.942 34.1213C107.791 33.9779 107.624 33.902 107.431 33.902H107.347C107.146 33.902 106.971 33.9779 106.82 34.1213C106.669 34.2647 106.594 34.4418 106.594 34.6526V35.0911H108.168V34.661Z" fill="#58595B"/>
<path d="M112.867 37.2501C112.867 37.3597 112.834 37.4441 112.767 37.4947C112.7 37.5453 112.624 37.5706 112.541 37.5706C112.457 37.5706 112.381 37.5453 112.314 37.4947C112.247 37.4441 112.214 37.3597 112.214 37.2501V34.6526C112.214 34.4502 112.139 34.2731 111.996 34.1213C111.854 33.9695 111.67 33.9021 111.46 33.9021H111.385C111.184 33.9021 111.008 33.9779 110.857 34.1213C110.706 34.2647 110.631 34.4418 110.631 34.6526V37.2501C110.631 37.3597 110.597 37.4441 110.53 37.4947C110.463 37.5453 110.388 37.5706 110.304 37.5706C110.22 37.5706 110.145 37.5453 110.078 37.4947C110.011 37.4441 109.978 37.3597 109.978 37.2501V33.5732C109.978 33.472 110.011 33.3876 110.078 33.3286C110.145 33.2695 110.229 33.2442 110.313 33.2442C110.388 33.2442 110.455 33.2695 110.522 33.3117C110.589 33.3539 110.623 33.4214 110.648 33.5141C110.731 33.4298 110.84 33.3707 110.974 33.3201C111.108 33.2695 111.251 33.2527 111.402 33.2527H111.477C111.661 33.2527 111.837 33.278 112.013 33.337C112.18 33.396 112.331 33.4804 112.457 33.5984C112.583 33.7165 112.691 33.8599 112.767 34.0454C112.842 34.2225 112.884 34.4333 112.884 34.6779V37.2754L112.867 37.2501Z" fill="#58595B"/>
<path d="M115.899 37.2501C115.899 37.3344 115.874 37.4103 115.824 37.4778C115.774 37.5452 115.69 37.579 115.573 37.579C115.414 37.579 115.263 37.5537 115.129 37.4946C114.986 37.4356 114.869 37.3513 114.76 37.2501C114.66 37.1489 114.576 37.0224 114.517 36.879C114.459 36.7356 114.434 36.5923 114.434 36.432V33.9442H114.124C114.015 33.9442 113.931 33.9105 113.872 33.843C113.814 33.7755 113.789 33.6996 113.789 33.6153C113.789 33.531 113.814 33.4551 113.872 33.3876C113.931 33.3201 114.015 33.2864 114.124 33.2864H114.434V31.7515C114.434 31.6419 114.467 31.5576 114.534 31.4985C114.601 31.4395 114.677 31.4142 114.76 31.4142C114.844 31.4142 114.919 31.4395 114.986 31.4985C115.053 31.5576 115.087 31.6419 115.087 31.7515V33.2864H115.556C115.665 33.2864 115.749 33.3201 115.807 33.3876C115.866 33.4551 115.891 33.531 115.891 33.6153C115.891 33.6996 115.866 33.7755 115.807 33.843C115.749 33.9105 115.665 33.9442 115.556 33.9442H115.087V36.4236C115.087 36.5754 115.137 36.6935 115.238 36.7778C115.338 36.8621 115.456 36.9127 115.59 36.9212C115.69 36.9296 115.774 36.9718 115.824 37.0392C115.874 37.1067 115.899 37.1742 115.899 37.2585V37.2501Z" fill="#58595B"/>
<path d="M115.966 46.6701H17.8829C16.2638 46.6701 14.9513 47.9916 14.9513 49.6218V62.7778C14.9513 64.408 16.2638 65.7295 17.8829 65.7295H115.966C117.586 65.7295 118.898 64.408 118.898 62.7778V49.6218C118.898 47.9916 117.586 46.6701 115.966 46.6701Z" fill="#6DCFF6"/>
<path d="M50.8259 52.7084L50.8091 52.8096L49.1842 59.3623C49.1591 59.4635 49.1004 59.5394 49.025 59.59C48.9497 59.6406 48.8575 59.6659 48.757 59.6659C48.6649 59.6659 48.5811 59.6406 48.5057 59.59C48.422 59.5394 48.3717 59.4635 48.3466 59.3623L46.7132 52.8096C46.7132 52.8096 46.7049 52.7506 46.7049 52.7084C46.7049 52.5988 46.7384 52.506 46.8221 52.4301C46.8975 52.3542 46.998 52.3205 47.1153 52.3205C47.1991 52.3205 47.2744 52.3458 47.3415 52.3964C47.4085 52.447 47.4587 52.5229 47.4838 52.6241L48.7654 58.0973L50.0469 52.6241C50.072 52.5229 50.1223 52.447 50.1977 52.3964C50.2731 52.3458 50.3485 52.3205 50.4238 52.3205C50.5411 52.3205 50.6416 52.3542 50.717 52.4301C50.8008 52.506 50.8343 52.5988 50.8343 52.7084H50.8259Z" fill="white"/>
<path d="M52.9115 52.953C52.9115 53.0879 52.8696 53.1891 52.7859 53.2481C52.7021 53.3156 52.61 53.3493 52.5179 53.3493C52.4257 53.3493 52.3336 53.3156 52.2498 53.2481C52.1661 53.1807 52.1242 53.0795 52.1242 52.953V52.7253C52.1242 52.5903 52.1661 52.4976 52.2498 52.4301C52.3336 52.3626 52.4257 52.3289 52.5179 52.3289C52.61 52.3289 52.7021 52.3626 52.7859 52.4301C52.8696 52.4976 52.9115 52.5988 52.9115 52.7253V52.953ZM52.9115 59.2864C52.9115 59.4213 52.8696 59.5141 52.7859 59.5816C52.7021 59.6406 52.61 59.6743 52.5179 59.6743C52.4257 59.6743 52.3336 59.6406 52.2498 59.5816C52.1661 59.5225 52.1242 59.4213 52.1242 59.2864V54.9095C52.1242 54.7746 52.1661 54.6734 52.2498 54.6143C52.3336 54.5469 52.4257 54.5131 52.5179 54.5131C52.61 54.5131 52.7021 54.5469 52.7859 54.6143C52.8696 54.6818 52.9115 54.783 52.9115 54.9095V59.2864Z" fill="white"/>
<path d="M57.912 57.0684C57.912 57.1696 57.8701 57.2624 57.7948 57.3467C57.7194 57.4311 57.6272 57.4648 57.5184 57.4648H55.2484V57.9961C55.2484 58.2407 55.3322 58.4515 55.5081 58.6286C55.684 58.8057 55.8934 58.89 56.1279 58.89H56.2284C56.4295 58.89 56.597 58.8394 56.731 58.7298C56.865 58.6286 56.9655 58.5021 57.0409 58.3503C57.0744 58.2575 57.1247 58.1985 57.1833 58.1563C57.2419 58.1226 57.309 58.0973 57.3843 58.0973C57.4849 58.0973 57.5854 58.131 57.6607 58.2154C57.7445 58.2913 57.7864 58.3925 57.7864 58.5105C57.7864 58.578 57.7696 58.637 57.7445 58.6876C57.6189 58.9828 57.4262 59.2189 57.1582 59.396C56.8901 59.5816 56.5802 59.6659 56.2284 59.6659H56.1279C55.9018 59.6659 55.684 59.6237 55.4746 59.531C55.2736 59.4466 55.0893 59.3286 54.9385 59.1768C54.7878 59.025 54.6705 58.8479 54.5784 58.6455C54.4862 58.4431 54.4443 58.2238 54.4443 57.9877V56.1914C54.4443 55.9637 54.4862 55.7444 54.5784 55.5336C54.6705 55.3227 54.7878 55.1456 54.9385 54.9938C55.0893 54.842 55.2736 54.724 55.4746 54.6312C55.6756 54.5469 55.8934 54.4963 56.1279 54.4963H56.2284C56.4546 54.4963 56.6724 54.5384 56.8818 54.6228C57.0828 54.7071 57.2671 54.8252 57.4178 54.977C57.5686 55.1288 57.6859 55.3059 57.778 55.5167C57.8702 55.7275 57.912 55.9468 57.912 56.1914V57.0516V57.0684ZM57.1247 56.2082C57.1247 55.9468 57.0325 55.736 56.8566 55.5673C56.6807 55.3986 56.4797 55.3143 56.2452 55.3143H56.1447C55.9018 55.3143 55.6924 55.3986 55.5165 55.5673C55.3406 55.736 55.2484 55.9468 55.2484 56.1998V56.7227H57.1163V56.2082H57.1247Z" fill="white"/>
<path d="M65.0317 54.9011C65.0317 54.9601 65.0317 54.9938 65.0233 55.0191L63.8004 59.396C63.7836 59.4635 63.7418 59.531 63.6748 59.59C63.6161 59.6491 63.524 59.6828 63.4151 59.6828H63.3313C63.2308 59.6828 63.1471 59.6491 63.0801 59.59C63.013 59.531 62.9628 59.4635 62.9377 59.3876C62.8958 59.2442 62.8455 59.0503 62.7785 58.8226C62.7199 58.5949 62.6529 58.3503 62.5859 58.0973C62.5189 57.8443 62.4519 57.5829 62.3848 57.3214C62.3178 57.06 62.2508 56.8239 62.1922 56.613C62.1336 56.4022 62.0833 56.2251 62.0414 56.0817C61.9995 55.9384 61.9744 55.854 61.9577 55.8287L61.0028 59.396C60.986 59.4635 60.9358 59.531 60.8688 59.5984C60.8018 59.6575 60.718 59.6912 60.6175 59.6912H60.5254C60.4165 59.6912 60.3243 59.6575 60.2657 59.5984C60.2071 59.5394 60.1652 59.472 60.1401 59.4045L58.9255 55.0276C58.9255 55.0276 58.9172 54.9854 58.9088 54.9685C58.9088 54.9517 58.9088 54.9348 58.9088 54.9095C58.9088 54.7999 58.9423 54.7071 59.026 54.6312C59.1014 54.5553 59.2019 54.5216 59.3192 54.5216C59.3946 54.5216 59.47 54.5469 59.537 54.589C59.604 54.6312 59.6626 54.7071 59.6961 54.8167L60.5924 57.9961L61.5305 54.7999C61.5807 54.6143 61.7315 54.5216 61.9744 54.5216H61.9828C62.1419 54.5216 62.2508 54.5469 62.3095 54.6059C62.3681 54.6649 62.41 54.724 62.4267 54.8083L63.3732 58.013L64.2778 54.8252C64.3113 54.724 64.3616 54.6481 64.4286 54.5975C64.4956 54.5469 64.5626 54.53 64.638 54.53C64.7553 54.53 64.8558 54.5637 64.9312 54.6396C65.0065 54.7155 65.0484 54.8083 65.0484 54.9179L65.0317 54.9011Z" fill="white"/>
<path d="M75.217 59.2864C75.217 59.4213 75.1751 59.5141 75.0913 59.5816C75.0076 59.649 74.9154 59.6743 74.8233 59.6743C74.7311 59.6743 74.639 59.6406 74.5553 59.5816C74.4715 59.5225 74.4296 59.4213 74.4296 59.2864V54.1674L73.0559 57.3383C73.0141 57.4395 72.9554 57.507 72.8717 57.5491C72.7879 57.5913 72.7041 57.6082 72.6204 57.6082C72.4026 57.6082 72.2602 57.5154 72.1764 57.3383L70.7609 54.1674V59.2864C70.7609 59.4213 70.719 59.5141 70.6353 59.5816C70.5515 59.6406 70.4594 59.6743 70.3672 59.6743C70.2751 59.6743 70.183 59.6406 70.0992 59.5816C70.0154 59.5225 69.9735 59.4213 69.9735 59.2864V52.7843C69.9735 52.6409 70.0071 52.5313 70.0741 52.447C70.1411 52.3626 70.2667 52.3205 70.4426 52.3205H70.4761C70.6185 52.3205 70.719 52.3542 70.786 52.4132C70.853 52.4723 70.9117 52.5482 70.9452 52.6241L72.612 56.3685L74.2621 52.6241C74.2956 52.5482 74.3458 52.4807 74.4212 52.4132C74.4882 52.3458 74.5971 52.3205 74.7395 52.3205H74.773C74.9489 52.3205 75.0746 52.3626 75.1332 52.447C75.1918 52.5313 75.2253 52.6409 75.2253 52.7843V59.2864H75.217Z" fill="white"/>
<path d="M80.2677 57.9961C80.2677 58.2322 80.2258 58.4515 80.1337 58.6539C80.0416 58.8563 79.9243 59.0334 79.7735 59.1852C79.6228 59.337 79.4385 59.4551 79.2375 59.5394C79.0364 59.6237 78.8187 59.6743 78.5841 59.6743H78.4836C78.2575 59.6743 78.0397 59.6322 77.8303 59.5394C77.6293 59.4551 77.445 59.337 77.2942 59.1852C77.1434 59.0334 77.0262 58.8563 76.934 58.6539C76.8419 58.4515 76.8 58.2322 76.8 57.9961V56.1998C76.8 55.9721 76.8419 55.7528 76.934 55.542C77.0262 55.3312 77.1434 55.1541 77.2942 55.0023C77.445 54.8505 77.6293 54.7324 77.8303 54.6396C78.0313 54.5553 78.2491 54.5047 78.4836 54.5047H78.5841C78.8103 54.5047 79.0281 54.5469 79.2375 54.6396C79.4385 54.724 79.6228 54.8505 79.7735 55.0023C79.9243 55.1541 80.0416 55.3396 80.1337 55.542C80.2258 55.7444 80.2677 55.9637 80.2677 56.1998V57.9961ZM79.4804 56.1998C79.4804 55.9552 79.3966 55.7444 79.2207 55.5673C79.0448 55.3902 78.8354 55.3059 78.6009 55.3059H78.5004C78.2575 55.3059 78.0481 55.3902 77.8805 55.5673C77.7046 55.7444 77.6209 55.9552 77.6209 56.1998V57.9961C77.6209 58.2407 77.7046 58.4515 77.8805 58.6286C78.0564 58.8057 78.2658 58.89 78.5171 58.89H78.6093C78.8522 58.89 79.0616 58.8057 79.2291 58.6286C79.405 58.4515 79.4887 58.2407 79.4887 57.9961V56.1998H79.4804Z" fill="white"/>
<path d="M84.3301 55.2974C84.3301 55.4071 84.2882 55.4998 84.2128 55.5673C84.1375 55.6348 84.0453 55.6685 83.9448 55.6685C83.8275 55.6685 83.7186 55.6179 83.6265 55.5251C83.5846 55.483 83.526 55.4324 83.4506 55.3818C83.3752 55.3312 83.2747 55.3059 83.1407 55.3059C82.9816 55.3059 82.8559 55.3227 82.7638 55.3649C82.6716 55.4071 82.6046 55.4577 82.5544 55.5251C82.5041 55.5926 82.4706 55.6685 82.4622 55.7528C82.4455 55.8372 82.4455 55.9215 82.4455 56.0058V59.2611C82.4455 59.4045 82.4036 59.5057 82.3198 59.5731C82.2361 59.6406 82.144 59.6743 82.0518 59.6743C81.9597 59.6743 81.8675 59.6406 81.7838 59.5731C81.7 59.5057 81.6581 59.4045 81.6581 59.2611V54.9095C81.6581 54.783 81.7 54.6902 81.7922 54.6143C81.8759 54.5469 81.9681 54.5131 82.0686 54.5131C82.1356 54.5131 82.2026 54.53 82.2696 54.5637C82.3282 54.5975 82.3785 54.6481 82.412 54.724C82.4706 54.6818 82.5544 54.6396 82.6633 54.589C82.7722 54.5384 82.9397 54.5131 83.1658 54.5131C83.3669 54.5131 83.5679 54.5553 83.7605 54.6312C83.9616 54.7155 84.1207 54.842 84.2463 55.0276C84.305 55.1288 84.3385 55.2131 84.3385 55.2974H84.3301Z" fill="white"/>
<path d="M88.6521 57.0684C88.6521 57.1696 88.6103 57.2624 88.5349 57.3467C88.4595 57.4311 88.3674 57.4648 88.2585 57.4648H85.9886V57.9961C85.9886 58.2407 86.0723 58.4515 86.2482 58.6286C86.4241 58.8057 86.6335 58.89 86.8764 58.89H86.9769C87.178 58.89 87.3455 58.8394 87.4795 58.7298C87.6135 58.6202 87.714 58.5021 87.7894 58.3503C87.8229 58.2575 87.8732 58.1985 87.9318 58.1563C87.9904 58.1226 88.0574 58.0973 88.1328 58.0973C88.2333 58.0973 88.3339 58.131 88.4092 58.2154C88.493 58.2913 88.5349 58.3925 88.5349 58.5105C88.5349 58.578 88.5181 58.637 88.493 58.6876C88.3674 58.9828 88.1747 59.2189 87.9067 59.396C87.6386 59.5816 87.3287 59.6659 86.9769 59.6659H86.8764C86.6503 59.6659 86.4325 59.6237 86.2231 59.531C86.0221 59.4466 85.8378 59.3286 85.687 59.1768C85.5363 59.025 85.419 58.8479 85.3269 58.6455C85.2347 58.4431 85.1928 58.2238 85.1928 57.9877V56.1914C85.1928 55.9637 85.2347 55.7444 85.3269 55.5336C85.419 55.3227 85.5363 55.1456 85.687 54.9938C85.8378 54.842 86.0221 54.724 86.2231 54.6312C86.4241 54.5469 86.6419 54.4963 86.8764 54.4963H86.9769C87.2031 54.4963 87.4209 54.5384 87.6303 54.6228C87.8313 54.7071 88.0156 54.8252 88.1663 54.977C88.3171 55.1288 88.4427 55.3059 88.5265 55.5167C88.6103 55.7275 88.6605 55.9468 88.6605 56.1914V57.0516L88.6521 57.0684ZM87.8648 56.2082C87.8648 55.9468 87.7727 55.736 87.5968 55.5673C87.4209 55.3986 87.2198 55.3143 86.9853 55.3143H86.8848C86.6419 55.3143 86.4325 55.3986 86.2566 55.5673C86.0807 55.736 85.9886 55.9468 85.9886 56.1998V56.7227H87.8564V56.2082H87.8648Z" fill="white"/>
<path d="M23.4111 23.3688C23.4111 23.5459 23.3524 23.7146 23.2268 23.8748C23.1012 24.0266 22.9169 24.1109 22.674 24.1109H17.4138C17.2212 24.1109 17.0536 24.035 16.9029 23.8917C16.7521 23.7399 16.6851 23.5712 16.6851 23.3772V11.326C16.6851 11.0814 16.7605 10.8959 16.9196 10.7694C17.0704 10.6429 17.2379 10.5838 17.4222 10.5838C17.6065 10.5838 17.7656 10.6429 17.9248 10.7694C18.0755 10.8959 18.1593 11.073 18.1593 11.326V22.6351H22.6824C22.9253 22.6351 23.1095 22.711 23.2352 22.8712C23.3608 23.023 23.4194 23.1917 23.4194 23.3772L23.4111 23.3688Z" fill="#6DCFF6"/>
<path d="M32.4656 23.47C32.4656 23.664 32.4069 23.8326 32.2813 23.9844C32.1557 24.1362 31.9798 24.2037 31.7536 24.2037C31.6782 24.2037 31.628 24.2037 31.6196 24.1868C31.2846 24.1362 31.0165 24.0435 30.8071 23.917C30.5977 23.7905 30.4386 23.6302 30.3046 23.4531C29.7266 23.9591 29.0314 24.2121 28.2273 24.2121H28.0514C27.6661 24.2121 27.2892 24.1531 26.9123 24.035C26.5353 23.917 26.2087 23.7399 25.9239 23.5122C25.6391 23.2845 25.4046 22.9893 25.2203 22.6351C25.036 22.2809 24.9523 21.8845 24.9523 21.4291V21.193C24.9523 20.687 25.0612 20.2738 25.2789 19.9449C25.4967 19.616 25.7731 19.3461 26.1082 19.1521C26.4432 18.9497 26.8034 18.7979 27.2054 18.6967C27.6075 18.5955 27.9844 18.5112 28.3446 18.4437C28.7047 18.3763 29.023 18.3172 29.2994 18.2582C29.5758 18.1992 29.7517 18.1233 29.8271 18.0136C29.8523 17.9715 29.869 17.9209 29.8774 17.8618C29.8858 17.8028 29.8858 17.7353 29.8858 17.6847C29.8858 17.1028 29.735 16.698 29.4251 16.4619C29.1152 16.2258 28.7466 16.1161 28.3278 16.1161H28.1938C27.7917 16.1161 27.4818 16.2005 27.2473 16.3607C27.0128 16.5209 26.8117 16.7655 26.6275 17.086C26.5521 17.2293 26.4516 17.3305 26.3343 17.3896C26.217 17.4486 26.0998 17.4739 25.9658 17.4739C25.7899 17.4739 25.6223 17.4149 25.4632 17.2884C25.3124 17.1619 25.2287 17.0016 25.2287 16.7908C25.2287 16.6474 25.2538 16.5294 25.3041 16.445C25.4548 16.0993 25.6475 15.8041 25.8736 15.568C26.0998 15.3318 26.3427 15.1547 26.594 15.0114C26.8452 14.868 27.1133 14.7752 27.3813 14.7162C27.6493 14.6572 27.9174 14.6319 28.1687 14.6319H28.3027C28.7299 14.6319 29.1235 14.7078 29.5005 14.868C29.8774 15.0198 30.1957 15.2391 30.4637 15.5089C30.7317 15.7788 30.9495 16.0993 31.1003 16.4619C31.2511 16.8245 31.3348 17.2125 31.3348 17.6257V22.1291C31.3348 22.4917 31.5023 22.7026 31.8374 22.77C32.0552 22.8122 32.2143 22.8965 32.3064 23.0315C32.4069 23.1664 32.4488 23.3098 32.4488 23.47H32.4656ZM29.8858 19.5738C29.5256 19.6666 29.1403 19.7425 28.7382 19.7931C28.3362 19.8521 27.9593 19.9364 27.6075 20.0376C27.2641 20.1388 26.9709 20.2906 26.7531 20.4762C26.527 20.6617 26.4181 20.9231 26.4181 21.2436V21.3954C26.4181 21.8086 26.5688 22.1375 26.8704 22.3821C27.1719 22.6267 27.5656 22.7532 28.0514 22.7532H28.2273C28.6796 22.7532 29.0649 22.5929 29.3916 22.2809C29.7182 21.9604 29.8858 21.5725 29.8858 21.1087V19.5738Z" fill="#6DCFF6"/>
<path d="M41.4028 23.4869C41.4028 23.6808 41.3358 23.8495 41.1934 23.9929C41.051 24.1362 40.8751 24.2037 40.6574 24.2037C40.5401 24.2037 40.4312 24.1784 40.3223 24.1278C40.2134 24.0772 40.1213 23.976 40.0459 23.8411L37.6336 19.5907L36.3437 20.9906V23.4953C36.3437 23.7399 36.2683 23.9254 36.1092 24.035C35.9584 24.1531 35.7909 24.2121 35.6066 24.2121C35.4223 24.2121 35.2632 24.1531 35.104 24.035C34.9533 23.917 34.8695 23.7399 34.8695 23.4953V11.326C34.8695 11.0814 34.9449 10.8959 35.104 10.7694C35.2548 10.6429 35.4223 10.5838 35.6066 10.5838C35.7909 10.5838 35.95 10.6429 36.1092 10.7694C36.2599 10.8959 36.3437 11.073 36.3437 11.326V18.8148L40.004 14.8933C40.1548 14.7246 40.3307 14.6403 40.5233 14.6403C40.7411 14.6403 40.9254 14.7162 41.0594 14.8764C41.2018 15.0282 41.2688 15.2053 41.2688 15.3993C41.2688 15.5933 41.2018 15.7619 41.0594 15.9053L38.6722 18.469L41.3107 23.1242C41.3777 23.2423 41.4112 23.3604 41.4112 23.4953L41.4028 23.4869Z" fill="#6DCFF6"/>
<path d="M49.7119 19.3714C49.7119 19.5654 49.6449 19.734 49.5025 19.8858C49.3601 20.0376 49.1842 20.1051 48.9832 20.1051H44.7868V21.0918C44.7868 21.5472 44.9459 21.9351 45.2726 22.2556C45.5909 22.5761 45.9762 22.7447 46.4285 22.7447H46.6211C46.9897 22.7447 47.3079 22.6435 47.5592 22.4496C47.8105 22.2556 48.0032 22.0195 48.1288 21.7496C48.1958 21.5809 48.2796 21.4629 48.3968 21.387C48.5141 21.3195 48.6314 21.2773 48.7654 21.2773C48.958 21.2773 49.1339 21.3448 49.2847 21.4882C49.4355 21.6315 49.5192 21.8086 49.5192 22.0279C49.5192 22.1544 49.4941 22.264 49.4438 22.3568C49.2093 22.8965 48.8491 23.3435 48.355 23.6724C47.8608 24.0097 47.2828 24.1784 46.6295 24.1784H46.4368C46.0097 24.1784 45.6076 24.0941 45.2307 23.9338C44.8538 23.7736 44.5187 23.5543 44.2423 23.276C43.9575 22.9977 43.7397 22.6688 43.5806 22.2978C43.4215 21.9267 43.3377 21.5135 43.3377 21.0749V17.7353C43.3377 17.3052 43.4215 16.9089 43.5806 16.5209C43.7397 16.1414 43.9659 15.8041 44.2423 15.5258C44.5271 15.2391 44.8538 15.0198 45.2307 14.8596C45.6076 14.6993 46.0097 14.615 46.4368 14.615H46.6295C47.0567 14.615 47.4503 14.6909 47.8356 14.8511C48.2126 15.0029 48.5476 15.2306 48.824 15.5089C49.1088 15.7957 49.3266 16.1246 49.4857 16.5041C49.6449 16.8836 49.7286 17.3052 49.7286 17.7522V19.3461L49.7119 19.3714ZM48.2461 17.7775C48.2461 17.2968 48.0785 16.9004 47.7519 16.5884C47.4252 16.2679 47.0483 16.1161 46.6211 16.1161H46.4285C45.9762 16.1161 45.5909 16.2764 45.2642 16.5884C44.9375 16.9089 44.77 17.2968 44.77 17.7606V18.7305H48.2377V17.7775H48.2461Z" fill="#6DCFF6"/>
<path d="M66.7739 14.5644C66.7739 14.9945 66.7069 15.3993 66.5812 15.7788C66.4556 16.1583 66.2713 16.5041 66.0452 16.8161C65.8106 17.1281 65.5342 17.398 65.2076 17.6173C64.8809 17.845 64.5207 18.0136 64.1354 18.1317L66.5226 23.158C66.5729 23.2507 66.598 23.3604 66.598 23.4869C66.598 23.6977 66.531 23.8664 66.3886 24.0013C66.2462 24.1362 66.0619 24.2037 65.8274 24.2037C65.7101 24.2037 65.5929 24.1784 65.484 24.1194C65.3667 24.0603 65.2746 23.9507 65.1992 23.7989L62.5775 18.2498H60.6091V23.4869C60.6091 23.7314 60.5337 23.917 60.3746 24.0266C60.2238 24.1447 60.0563 24.2037 59.872 24.2037C59.6878 24.2037 59.5286 24.1447 59.3695 24.0266C59.2187 23.9085 59.1349 23.7314 59.1349 23.4869V11.444C59.1349 11.2501 59.2103 11.0814 59.3527 10.9296C59.5035 10.7778 59.671 10.7103 59.8637 10.7103H63.0968C63.5994 10.7103 64.0768 10.8115 64.5207 11.0055C64.9647 11.1995 65.3583 11.4609 65.685 11.7898C66.0117 12.1187 66.2713 12.5066 66.464 12.962C66.6566 13.4174 66.7488 13.8897 66.7488 14.3957V14.5728L66.7739 14.5644ZM65.3081 14.3873C65.3081 14.0752 65.2495 13.7885 65.1322 13.5271C65.0149 13.2656 64.8558 13.0295 64.6631 12.8271C64.4621 12.6247 64.236 12.4645 63.9679 12.3548C63.6999 12.2452 63.4151 12.1777 63.1136 12.1777H60.6091V16.7739H63.1889C63.4989 16.7739 63.7836 16.7149 64.0349 16.5968C64.2946 16.4788 64.5124 16.3185 64.6966 16.1246C64.8809 15.9222 65.0317 15.6944 65.1406 15.4246C65.2495 15.1631 65.3081 14.868 65.3081 14.5644V14.3873Z" fill="#6DCFF6"/>
<path d="M75.4096 23.4869C75.4096 23.723 75.3342 23.9001 75.1751 24.0182C75.0159 24.1362 74.8568 24.2037 74.6725 24.2037C74.505 24.2037 74.3542 24.1615 74.2118 24.0688C74.0694 23.976 73.9773 23.8326 73.9438 23.6387C73.7679 23.8158 73.525 23.9591 73.2318 24.0519C72.9387 24.1531 72.6204 24.1953 72.2853 24.1953H72.1094C71.699 24.1953 71.3053 24.1362 70.9284 24.0097C70.5515 23.8832 70.2165 23.6977 69.94 23.4447C69.6553 23.1917 69.4291 22.8712 69.27 22.4833C69.1024 22.0954 69.0187 21.6315 69.0187 21.0834V15.3571C69.0187 15.1126 69.0941 14.927 69.2532 14.8005C69.404 14.674 69.5715 14.615 69.7558 14.615C69.94 14.615 70.0992 14.674 70.2583 14.8005C70.4091 14.927 70.4929 15.1041 70.4929 15.3571V21.0834C70.4929 21.5388 70.652 21.9267 70.9787 22.2472C71.297 22.5676 71.6823 22.7363 72.1346 22.7363H72.3105C72.7712 22.7363 73.1648 22.5761 73.4831 22.2472C73.8014 21.9267 73.9689 21.5388 73.9689 21.0834V15.3571C73.9689 15.1126 74.0443 14.927 74.2035 14.8005C74.3542 14.674 74.5217 14.615 74.706 14.615C74.8903 14.615 75.0494 14.674 75.2086 14.8005C75.3594 14.927 75.4431 15.1041 75.4431 15.3571V23.4616L75.4096 23.4869Z" fill="#6DCFF6"/>
<path d="M85.0421 23.4869C85.0421 23.6808 84.9751 23.8495 84.8327 23.9929C84.6903 24.1362 84.5144 24.2037 84.2966 24.2037C84.1793 24.2037 84.0704 24.1784 83.9616 24.1278C83.8527 24.0772 83.7605 23.976 83.6851 23.8411L81.2728 19.5907L79.9829 20.9906V23.4953C79.9829 23.7399 79.9075 23.9254 79.7484 24.035C79.5976 24.1531 79.4301 24.2121 79.2458 24.2121C79.0616 24.2121 78.9024 24.1531 78.7433 24.035C78.5925 23.917 78.5087 23.7399 78.5087 23.4953V11.326C78.5087 11.0814 78.5841 10.8959 78.7433 10.7694C78.894 10.6429 79.0616 10.5838 79.2458 10.5838C79.4301 10.5838 79.5893 10.6429 79.7484 10.7694C79.8992 10.8959 79.9829 11.073 79.9829 11.326V18.8148L83.6433 14.8933C83.794 14.7246 83.9699 14.6403 84.1626 14.6403C84.3804 14.6403 84.5646 14.7162 84.6986 14.8764C84.841 15.0282 84.9081 15.2053 84.9081 15.3993C84.9081 15.5933 84.841 15.7619 84.6986 15.9053L82.3115 18.469L84.9499 23.1242C85.0169 23.2423 85.0504 23.3604 85.0504 23.4953L85.0421 23.4869Z" fill="#6DCFF6"/>
<path d="M97.8491 15.3571C97.8491 15.4583 97.8491 15.5342 97.8323 15.568L95.5624 23.6724C95.5205 23.7989 95.4451 23.9254 95.3279 24.035C95.2106 24.1447 95.0514 24.2037 94.8504 24.2037H94.6997C94.5238 24.2037 94.3646 24.1447 94.2306 24.0266C94.0966 23.9085 94.0128 23.7905 93.9709 23.6555C93.8956 23.3857 93.795 23.0315 93.6862 22.6098C93.5773 22.1881 93.4516 21.7327 93.326 21.2605C93.2003 20.7882 93.0831 20.3075 92.9491 19.8268C92.8234 19.3377 92.7062 18.8991 92.5889 18.5112C92.48 18.1148 92.3879 17.7859 92.3125 17.5245C92.2371 17.2631 92.1868 17.1028 92.1617 17.0522L90.386 23.664C90.3441 23.7905 90.2603 23.917 90.1347 24.035C90.0091 24.1531 89.8499 24.2121 89.674 24.2121H89.4981C89.2887 24.2121 89.1296 24.1531 89.0123 24.0435C88.895 23.9338 88.8197 23.8158 88.7778 23.6808L86.5246 15.5764C86.5246 15.5764 86.4995 15.5005 86.4995 15.4668C86.4995 15.433 86.4911 15.3993 86.4911 15.3571C86.4911 15.1463 86.5581 14.9776 86.7005 14.8427C86.8429 14.7078 87.0188 14.6403 87.2366 14.6403C87.379 14.6403 87.513 14.6825 87.6386 14.7668C87.7643 14.8511 87.8648 14.9861 87.9234 15.18L89.5819 21.0749L91.3157 15.1547C91.4079 14.809 91.6843 14.6319 92.145 14.6319H92.1617C92.4549 14.6319 92.6559 14.6825 92.7648 14.7837C92.8737 14.8849 92.9491 15.0114 92.9826 15.1547L94.7332 21.0918L96.4084 15.1716C96.4754 14.9776 96.5675 14.8427 96.6848 14.7584C96.8104 14.674 96.9361 14.6319 97.0785 14.6319C97.2962 14.6319 97.4805 14.6993 97.6145 14.8343C97.7569 14.9692 97.8239 15.1379 97.8239 15.3487L97.8491 15.3571Z" fill="#6DCFF6"/>
<path d="M107.096 23.47C107.096 23.664 107.038 23.8326 106.912 23.9844C106.786 24.1362 106.61 24.2037 106.384 24.2037C106.309 24.2037 106.259 24.2037 106.25 24.1868C105.915 24.1362 105.647 24.0435 105.438 23.917C105.228 23.7905 105.069 23.6302 104.935 23.4531C104.357 23.9591 103.662 24.2121 102.858 24.2121H102.682C102.297 24.2121 101.92 24.1531 101.543 24.035C101.166 23.917 100.839 23.7399 100.555 23.5122C100.27 23.2845 100.035 22.9893 99.8509 22.6351C99.6667 22.2809 99.5829 21.8845 99.5829 21.4291V21.193C99.5829 20.687 99.6918 20.2738 99.9096 19.9449C100.127 19.616 100.404 19.3461 100.739 19.1521C101.074 18.9497 101.434 18.7979 101.836 18.6967C102.238 18.5955 102.615 18.5112 102.975 18.4437C103.335 18.3763 103.654 18.3172 103.93 18.2582C104.206 18.1992 104.382 18.1233 104.458 18.0136C104.483 17.9715 104.5 17.9209 104.508 17.8618C104.516 17.8028 104.516 17.7353 104.516 17.6847C104.516 17.1028 104.366 16.698 104.056 16.4619C103.746 16.2258 103.377 16.1161 102.958 16.1161H102.824C102.422 16.1161 102.112 16.2005 101.878 16.3607C101.643 16.5209 101.442 16.7655 101.258 17.086C101.183 17.2293 101.082 17.3305 100.965 17.3896C100.848 17.4486 100.73 17.4739 100.596 17.4739C100.42 17.4739 100.253 17.4149 100.094 17.2884C99.9431 17.1619 99.8593 17.0016 99.8593 16.7908C99.8593 16.6474 99.8844 16.5294 99.9347 16.445C100.085 16.0993 100.278 15.8041 100.504 15.568C100.73 15.3318 100.973 15.1547 101.225 15.0114C101.476 14.868 101.744 14.7752 102.012 14.7162C102.28 14.6572 102.548 14.6319 102.799 14.6319H102.933C103.36 14.6319 103.754 14.7078 104.131 14.868C104.508 15.0198 104.826 15.2391 105.094 15.5089C105.362 15.7788 105.58 16.0993 105.731 16.4619C105.882 16.8245 105.965 17.2125 105.965 17.6257V22.1291C105.965 22.4917 106.133 22.7026 106.468 22.77C106.686 22.8122 106.845 22.8965 106.937 23.0315C107.038 23.1664 107.079 23.3098 107.079 23.47H107.096ZM104.516 19.5738C104.156 19.6666 103.771 19.7425 103.369 19.7931C102.967 19.8521 102.59 19.9364 102.238 20.0376C101.895 20.1388 101.602 20.2906 101.384 20.4762C101.158 20.6617 101.049 20.9231 101.049 21.2436V21.3954C101.049 21.8086 101.199 22.1375 101.501 22.3821C101.803 22.6267 102.196 22.7532 102.682 22.7532H102.858C103.31 22.7532 103.696 22.5929 104.022 22.2809C104.349 21.9604 104.516 21.5725 104.516 21.1087V19.5738Z" fill="#6DCFF6"/>
</g>
<defs>
<clipPath id="clip0_60_86164">
<rect width="183" height="78" fill="white"/>
</clipPath>
</defs>
</svg>
