<svg width="1985" height="952" viewBox="0 0 1985 952" fill="none" xmlns="http://www.w3.org/2000/svg">
<g clip-path="url(#clip0_199_90691)">
<g opacity="0.66">
<path d="M227.69 91.71C239.03 91.71 248.22 82.52 248.22 71.18C248.22 59.84 239.03 50.65 227.69 50.65C216.35 50.65 207.16 59.84 207.16 71.18C207.16 82.52 216.35 91.71 227.69 91.71Z" stroke="#F39F1E" stroke-width="2"/>
<path d="M1669.21 626.35C1843.2 626.35 1984.25 486.287 1984.25 313.51C1984.25 140.733 1843.2 0.670013 1669.21 0.670013C1495.22 0.670013 1354.17 140.733 1354.17 313.51C1354.17 486.287 1495.22 626.35 1669.21 626.35Z" stroke="#BED487" stroke-width="1.34"/>
<path d="M1669.21 617.43C1838.28 617.43 1975.34 481.36 1975.34 313.51C1975.34 145.66 1838.28 9.59003 1669.21 9.59003C1500.14 9.59003 1363.08 145.66 1363.08 313.51C1363.08 481.36 1500.14 617.43 1669.21 617.43Z" stroke="#BED487" stroke-width="1.34"/>
<g opacity="0.4">
<mask id="mask0_199_90691" style="mask-type:luminance" maskUnits="userSpaceOnUse" x="1401" y="549" width="233" height="234">
<path d="M1633.39 549H1401.24V782.6H1633.39V549Z" fill="white"/>
</mask>
<g mask="url(#mask0_199_90691)">
<path d="M1517.31 761.68C1569.87 761.68 1612.47 718.753 1612.47 665.8C1612.47 612.847 1569.87 569.92 1517.31 569.92C1464.75 569.92 1422.15 612.847 1422.15 665.8C1422.15 718.753 1464.75 761.68 1517.31 761.68Z" stroke="#74B0D1" stroke-width="0.83"/>
<path d="M1517.31 757.52C1567.56 757.52 1608.3 716.456 1608.3 665.8C1608.3 615.144 1567.56 574.08 1517.31 574.08C1467.06 574.08 1426.32 615.144 1426.32 665.8C1426.32 716.456 1467.06 757.52 1517.31 757.52Z" stroke="#74B0D1" stroke-width="0.83"/>
</g>
</g>
<g opacity="0.4">
<mask id="mask1_199_90691" style="mask-type:luminance" maskUnits="userSpaceOnUse" x="878" y="750" width="190" height="191">
<path d="M1067.31 750.96H878.56V940.83H1067.31V750.96Z" fill="white"/>
</mask>
<g mask="url(#mask1_199_90691)">
<path d="M972.94 911.95C1009.11 911.95 1038.43 882.378 1038.43 845.9C1038.43 809.422 1009.11 779.85 972.94 779.85C936.771 779.85 907.45 809.422 907.45 845.9C907.45 882.378 936.771 911.95 972.94 911.95Z" stroke="#74B0D1" stroke-width="1.17"/>
<path d="M972.94 785.68C940.04 785.68 913.28 812.69 913.28 845.9C913.28 879.11 940.04 906.12 972.94 906.12C1005.84 906.12 1032.6 879.11 1032.6 845.9C1032.6 812.69 1005.84 785.68 972.94 785.68Z" stroke="#74B0D1" stroke-width="1.17"/>
</g>
</g>
<g opacity="0.4">
<mask id="mask2_199_90691" style="mask-type:luminance" maskUnits="userSpaceOnUse" x="804" y="444" width="129" height="130">
<path d="M932.81 444.77H804.3V573.27H932.81V444.77Z" fill="white"/>
</mask>
<g mask="url(#mask2_199_90691)">
<path d="M868.55 465.68C844.65 465.68 825.21 485.12 825.21 509.01C825.21 532.9 844.65 552.34 868.55 552.34C892.45 552.34 911.89 532.9 911.89 509.01C911.89 485.12 892.45 465.68 868.55 465.68Z" stroke="#74B0D1" stroke-width="0.83"/>
<path d="M868.55 469.85C846.95 469.85 829.38 487.42 829.38 509.02C829.38 530.62 846.95 548.19 868.55 548.19C890.15 548.19 907.72 530.62 907.72 509.02C907.72 487.42 890.15 469.85 868.55 469.85Z" stroke="#74B0D1" stroke-width="0.83"/>
</g>
</g>
<g opacity="0.4">
<mask id="mask3_199_90691" style="mask-type:luminance" maskUnits="userSpaceOnUse" x="1463" y="653" width="188" height="186">
<path d="M1650.71 653.98H1463.75V838.62H1650.71V653.98Z" fill="white"/>
</mask>
<g mask="url(#mask3_199_90691)">
<path d="M1557.23 805.75C1590.7 805.75 1617.84 779.133 1617.84 746.3C1617.84 713.467 1590.7 686.85 1557.23 686.85C1523.76 686.85 1496.62 713.467 1496.62 746.3C1496.62 779.133 1523.76 805.75 1557.23 805.75Z" stroke="#BED487" stroke-width="1.34"/>
<path d="M1557.23 799.09C1587.03 799.09 1611.18 775.455 1611.18 746.3C1611.18 717.145 1587.03 693.51 1557.23 693.51C1527.43 693.51 1503.28 717.145 1503.28 746.3C1503.28 775.455 1527.43 799.09 1557.23 799.09Z" stroke="#BED487" stroke-width="1.34"/>
</g>
</g>
<path d="M1244.69 775.71C1256.03 775.71 1265.22 766.52 1265.22 755.18C1265.22 743.84 1256.03 734.65 1244.69 734.65C1233.35 734.65 1224.16 743.84 1224.16 755.18C1224.16 766.52 1233.35 775.71 1244.69 775.71Z" stroke="#BED487" stroke-width="2"/>
<path d="M419.22 951.43C650.473 951.43 837.94 763.963 837.94 532.71C837.94 301.457 650.473 113.99 419.22 113.99C187.967 113.99 0.5 301.457 0.5 532.71C0.5 763.963 187.967 951.43 419.22 951.43Z" stroke="#F39F1E"/>
<path d="M419.22 941.54C645.011 941.54 828.05 758.501 828.05 532.71C828.05 306.919 645.011 123.88 419.22 123.88C193.429 123.88 10.39 306.919 10.39 532.71C10.39 758.501 193.429 941.54 419.22 941.54Z" stroke="#F39F1E"/>
</g>
</g>
<defs>
<clipPath id="clip0_199_90691">
<rect width="1984.92" height="951.93" fill="white"/>
</clipPath>
</defs>
</svg>
